<svg id="Capa_1" data-name="Capa 1" xmlns="http://www.w3.org/2000/svg" viewBox="0 0 32 32"><defs><style>.cls-1{fill:#fcf7f7;}.cls-2{fill:#212121;}.cls-3{fill:#485aff;}.cls-4{fill:#cc232c;}.cls-5{fill:#f2dc41;}</style></defs><path class="cls-1" d="M31.09,16.07c0,8.35-6.82,16-15.13,15.12A16.85,16.85,0,0,1,.91,14.8C.91,6.45,7.73-.53,16,.94S31.09,7.71,31.09,16.07Z"/><path class="cls-2" d="M7.29,9.57,7,9.33l-.89-.76.16-.18.55.47a1.75,1.75,0,0,1-.2-.44.91.91,0,0,1,0-.33.4.4,0,0,1,.09-.21A.32.32,0,0,1,7,7.76a.67.67,0,0,1,.38.15l0,0a.39.39,0,0,1,.21-.14.4.4,0,0,1,.24,0A1.34,1.34,0,0,1,8.11,8l.42.36-.15.18-.44-.37A1.16,1.16,0,0,0,7.73,8,.2.2,0,0,0,7.6,8,.15.15,0,0,0,7.51,8l.17.15a.7.7,0,0,1,.24.32.26.26,0,0,1-.07.26.25.25,0,0,1-.21.11.37.37,0,0,1-.26-.12.56.56,0,0,1-.19-.3.53.53,0,0,1,0-.35L7,8a.2.2,0,0,0-.11,0A.16.16,0,0,0,6.85,8a.35.35,0,0,0,0,.25A1.22,1.22,0,0,0,7,8.76a3.75,3.75,0,0,0,.55.71l-.16.18Zm.34-.93s0,0,.06,0,0,0,0,0a.22.22,0,0,0,0-.08l-.14-.14-.13-.11a.32.32,0,0,0,.14.34A.27.27,0,0,0,7.63,8.64Z"/><path class="cls-2" d="M7.52,7l.18-.16L8.83,8.1l-.17.16Z"/><path class="cls-2" d="M9.79,7.28a1,1,0,0,1-.23.26A.73.73,0,0,1,9,7.71a.91.91,0,0,1-.55-.39.94.94,0,0,1-.24-.62.73.73,0,0,1,.31-.52A.87.87,0,0,1,8.77,6,.63.63,0,0,1,9,6l0,.21a.69.69,0,0,0-.2,0l-.18.1a.44.44,0,0,0-.19.36.71.71,0,0,0,.19.46.66.66,0,0,0,.4.29.45.45,0,0,0,.4-.1A.58.58,0,0,0,9.66,7h.2A.67.67,0,0,1,9.79,7.28Z"/><path class="cls-2" d="M10.29,6.91a.84.84,0,0,1-.38-.11,1,1,0,0,1-.27-.3.84.84,0,0,1-.12-.31.81.81,0,0,1,0-.31l.23,0a.49.49,0,0,0,0,.24.67.67,0,0,0,.1.23.6.6,0,0,0,.21.21.5.5,0,0,0,.26.08.55.55,0,0,0,.52-.39.65.65,0,0,0-.11-.45,1.2,1.2,0,0,0-.17-.21.6.6,0,0,0-.21-.14l-.06.12a.81.81,0,0,1-.09.1l-.13.1a.48.48,0,0,1-.2.07.32.32,0,0,1-.17,0,.23.23,0,0,1-.13-.3v0a.47.47,0,0,1,.21-.21.62.62,0,0,1,.46-.09.35.35,0,0,1,.13-.11l.11-.06a.29.29,0,0,1,.1,0l0,.21a.52.52,0,0,0-.13.06.84.84,0,0,1,.24.18,1.12,1.12,0,0,1,.19.24.79.79,0,0,1,.12.42.66.66,0,0,1-.09.39.78.78,0,0,1-.29.28A.75.75,0,0,1,10.29,6.91ZM9.86,5.66l.11,0,.09-.08a.36.36,0,0,0,.07-.1.58.58,0,0,0-.21.07c-.09,0-.12.1-.1.13l0,0Z"/><path class="cls-2" d="M11.66,6.21a.57.57,0,0,1-.34-.08l.07-.21a.72.72,0,0,0,.29.06A.62.62,0,0,0,12,5.93a.46.46,0,0,0,.24-.17.2.2,0,0,0,0-.21.14.14,0,0,0-.09-.09l-.15,0h-.52a.55.55,0,0,1-.24-.07A.42.42,0,0,1,11,5.14.27.27,0,0,1,11,5h-.09l0-.21a.76.76,0,0,1,.21,0,.67.67,0,0,1,.14-.15.56.56,0,0,1,.2-.11.64.64,0,0,1,.27-.07.31.31,0,0,1,.19,0,.24.24,0,0,1,.1.1.38.38,0,0,1,0,.15.64.64,0,0,1-.08.14.42.42,0,0,1-.18.11.48.48,0,0,1-.24.06h-.24a.15.15,0,0,0,.1.09.24.24,0,0,0,.15,0H12a.46.46,0,0,1,.23.06.38.38,0,0,1,.16.19.47.47,0,0,1,0,.4.73.73,0,0,1-.39.3A.9.9,0,0,1,11.66,6.21ZM11.5,4.83l.14,0a.21.21,0,0,0,.1-.06s0,0,0,0,0,0-.06,0a.66.66,0,0,0-.2.06.51.51,0,0,0-.16.09Z"/><path class="cls-2" d="M14.42,5.41a.93.93,0,0,1-.33.12.69.69,0,0,1-.59-.11,1,1,0,0,1-.31-.59.94.94,0,0,1,.07-.66.74.74,0,0,1,.51-.33.81.81,0,0,1,.31,0,.69.69,0,0,1,.25.1l-.12.18A.7.7,0,0,0,14,4.06a.41.41,0,0,0-.22,0,.4.4,0,0,0-.33.23.69.69,0,0,0,0,.49.7.7,0,0,0,.23.45.47.47,0,0,0,.41.09.58.58,0,0,0,.39-.23l.17.09A.66.66,0,0,1,14.42,5.41Z"/><path class="cls-2" d="M14.88,5.19a1,1,0,0,1-.23-.63,1,1,0,0,1,.17-.64.82.82,0,0,1,1.12,0,.93.93,0,0,1,.23.62,1,1,0,0,1-.17.64.83.83,0,0,1-1.13.06ZM15.06,5a.46.46,0,0,0,.38.14A.44.44,0,0,0,15.81,5a.73.73,0,0,0,.11-.48A.72.72,0,0,0,15.76,4a.43.43,0,0,0-.38-.15.47.47,0,0,0-.37.18.8.8,0,0,0-.11.5.78.78,0,0,0,.16.46Z"/><path class="cls-2" d="M16.49,3.67h.23L16.6,5.13l.91.08,0,.21-1.14-.09Z"/><path class="cls-2" d="M17.72,5.27a1,1,0,0,1-.06-.67A1,1,0,0,1,18,4a.83.83,0,0,1,1.1.23,1,1,0,0,1,.06.67,1,1,0,0,1-.33.58A.82.82,0,0,1,17.72,5.27Zm.21-.12a.51.51,0,0,0,.7.18l0,0a.76.76,0,0,0,.23-.44.72.72,0,0,0,0-.5.51.51,0,0,0-.7-.18l0,0a.85.85,0,0,0-.23.45.76.76,0,0,0,0,.49Z"/><path class="cls-2" d="M20.07,6s0-.08,0-.1a1.21,1.21,0,0,0,0-.18.3.3,0,0,0,0-.23A.28.28,0,0,0,20,5.31l-.4-.14-.26.69-.21-.08.58-1.57.72.27a.46.46,0,0,1,.28.23.48.48,0,0,1,0,.37.43.43,0,0,1-.13.17.37.37,0,0,1-.21.06.39.39,0,0,1,.08.2,1.07,1.07,0,0,1,0,.25,1.27,1.27,0,0,1-.06.18l0,.11,0,.16L20,6.12S20.05,6,20.07,6Zm0-.83A.25.25,0,0,0,20.45,5a.38.38,0,0,0,0-.21.27.27,0,0,0-.16-.12l-.45-.17L19.66,5Z"/><path class="cls-2" d="M22,7.1A.93.93,0,0,1,21.62,7a.73.73,0,0,1-.36-.49.93.93,0,0,1,.17-.64.87.87,0,0,1,.5-.44.69.69,0,0,1,.59.1.91.91,0,0,1,.24.2,1.08,1.08,0,0,1,.12.24l-.22,0a.42.42,0,0,0-.1-.17.47.47,0,0,0-.15-.13A.43.43,0,0,0,22,5.64a.79.79,0,0,0-.36.34.75.75,0,0,0-.14.48.49.49,0,0,0,.24.35.65.65,0,0,0,.45.08l.07.18A.55.55,0,0,1,22,7.1Z"/><path class="cls-2" d="M22.44,7.25a1,1,0,0,1,.26-.62.86.86,0,0,1,.55-.36.82.82,0,0,1,.87.71.86.86,0,0,1-.25.61.93.93,0,0,1-.56.37A.82.82,0,0,1,22.44,7.25Zm.25,0a.42.42,0,0,0,.18.37.46.46,0,0,0,.4.11.74.74,0,0,0,.4-.29A.76.76,0,0,0,23.88,7a.51.51,0,0,0-.54-.48h-.05a.77.77,0,0,0-.4.29.69.69,0,0,0-.2.44Z"/><path class="cls-2" d="M24.67,7.21l.42.47a.72.72,0,0,1,.21.57,1.06,1.06,0,0,1-.91.83.75.75,0,0,1-.54-.27l-.42-.48ZM24,8.66a.46.46,0,0,0,.38.17.68.68,0,0,0,.42-.21.73.73,0,0,0,.25-.41.48.48,0,0,0-.13-.39l-.27-.3-.92.85Z"/><path class="cls-2" d="M25.82,8.53l.62.88-.18.13-.48-.69-.41.29.42.61-.17.12-.43-.61-.42.3.48.69-.18.12-.61-.88Z"/><path class="cls-2" d="M25.91,11.65l.34-.12,1.11-.39.08.23-.68.24a1.48,1.48,0,0,1,.47.05.69.69,0,0,1,.3.14.4.4,0,0,1,.14.18.33.33,0,0,1,0,.29.72.72,0,0,1-.32.25v0a.46.46,0,0,1,0,.26.37.37,0,0,1-.14.19,1.33,1.33,0,0,1-.34.16l-.52.18-.08-.22.52-.18.24-.11a.17.17,0,0,0,.1-.1.2.2,0,0,0,0-.11l-.21.08a.78.78,0,0,1-.4.05.27.27,0,0,1-.2-.19.29.29,0,0,1,0-.24.33.33,0,0,1,.23-.17.59.59,0,0,1,.37,0,.6.6,0,0,1,.27.2l.19-.1a.16.16,0,0,0,.07-.09.14.14,0,0,0,0-.09.36.36,0,0,0-.2-.16,1.27,1.27,0,0,0-.51-.08,3.82,3.82,0,0,0-.89.12l-.08-.22Zm.63.77a0,0,0,0,0,0,.06s0,0,0,0h.09l.19,0L27,12.4a.32.32,0,0,0-.35,0,.24.24,0,0,0-.11.06Z"/><path class="cls-2" d="M28,13.12l.06.24-1.63.37-.05-.23Z"/><path class="cls-2" d="M26.65,15a.76.76,0,0,1-.11-.33.67.67,0,0,1,.14-.58A1.13,1.13,0,0,1,28,13.87a.76.76,0,0,1,.3.53,1.09,1.09,0,0,1,0,.31.8.8,0,0,1-.11.25L28,14.82a1.07,1.07,0,0,0,.07-.19.74.74,0,0,0,0-.21.47.47,0,0,0-.21-.35.76.76,0,0,0-.49-.06.7.7,0,0,0-.46.2.45.45,0,0,0-.11.4A.57.57,0,0,0,27,15l-.1.17A.66.66,0,0,1,26.65,15Z"/><path class="cls-2" d="M26.71,15.58A.75.75,0,0,1,27,15.3a.87.87,0,0,1,.39-.1,1.26,1.26,0,0,1,.33.05,1,1,0,0,1,.27.17l-.15.18a.39.39,0,0,0-.19-.12.75.75,0,0,0-.26,0,.73.73,0,0,0-.29.07.44.44,0,0,0-.19.19.55.55,0,0,0,.09.65.59.59,0,0,0,.44.13.86.86,0,0,0,.28,0,.65.65,0,0,0,.22-.11.41.41,0,0,1-.07-.11.54.54,0,0,1-.05-.11.55.55,0,0,1,0-.18.51.51,0,0,1,0-.21.45.45,0,0,1,.1-.14.34.34,0,0,1,.14-.05.24.24,0,0,1,.2.11.54.54,0,0,1,.08.28.8.8,0,0,1-.14.45.41.41,0,0,1,0,.16v.12s0,.07,0,.11L28,16.69v-.14a.83.83,0,0,1-.27.12,1,1,0,0,1-.3,0,.9.9,0,0,1-.43-.09.75.75,0,0,1-.29-.27.78.78,0,0,1-.1-.39A.65.65,0,0,1,26.71,15.58Zm1.3.23a.37.37,0,0,0,0,.11.59.59,0,0,0,0,.13.6.6,0,0,0,.06.11.45.45,0,0,0,0-.23q0-.15-.06-.15S28,15.79,28,15.81Z"/><path class="cls-2" d="M26.63,17.12a.75.75,0,0,1,.24-.26L27,17a.7.7,0,0,0-.2.22.54.54,0,0,0-.09.25.51.51,0,0,0,0,.3.25.25,0,0,0,.18.11.13.13,0,0,0,.12,0,.38.38,0,0,0,.11-.11l.1-.19c0-.08.12-.21.16-.27a.58.58,0,0,1,.18-.17.4.4,0,0,1,.26,0,.21.21,0,0,1,.12,0,.36.36,0,0,0,0-.09l.21.07a1.54,1.54,0,0,1-.08.19.52.52,0,0,1,.07.21v.21a1.2,1.2,0,0,1-.08.27.37.37,0,0,1-.13.15.23.23,0,0,1-.14,0,.21.21,0,0,1-.12-.07.42.42,0,0,1-.09-.14.5.5,0,0,1,0-.21.73.73,0,0,1,.07-.24,2.39,2.39,0,0,1,.13-.21h0a.19.19,0,0,0-.13,0,.29.29,0,0,0-.1.12,1.11,1.11,0,0,0-.11.2,2.26,2.26,0,0,1-.16.26.52.52,0,0,1-.16.17.36.36,0,0,1-.25,0,.44.44,0,0,1-.34-.2.68.68,0,0,1-.08-.48A1.23,1.23,0,0,1,26.63,17.12Zm1.27.54a.83.83,0,0,0,0,.15.2.2,0,0,0,0,.11s0,0,0,0,0,0,.05-.05A.8.8,0,0,0,28,17.7a.54.54,0,0,0,0-.18l-.09.14Z"/><path class="cls-2" d="M26,19.91a1,1,0,0,1,.06-.34.67.67,0,0,1,.39-.46,1.13,1.13,0,0,1,1.2.42.72.72,0,0,1,0,.61.76.76,0,0,1-.15.26.52.52,0,0,1-.21.18l-.09-.2a.5.5,0,0,0,.15-.14,1,1,0,0,0,.1-.17.48.48,0,0,0,0-.42.8.8,0,0,0-.41-.28.75.75,0,0,0-.49,0,.46.46,0,0,0-.29.3.61.61,0,0,0,0,.46l-.17.1A.63.63,0,0,1,26,19.91Z"/><path class="cls-2" d="M25.92,20.42a1.13,1.13,0,0,1,1.13.58.81.81,0,0,1-.51,1,.9.9,0,0,1-.66-.11,1,1,0,0,1-.48-.47A.83.83,0,0,1,25.92,20.42Zm0,.24a.5.5,0,0,0-.35.63.06.06,0,0,0,0,0,.94.94,0,0,0,.85.44.47.47,0,0,0,.32-.26.46.46,0,0,0,0-.41.93.93,0,0,0-.84-.43Z"/><path class="cls-2" d="M26.43,22.57l-.13.2-1.19-.84-.52.75-.18-.12.66-.95Z"/><path class="cls-2" d="M24.42,22.84a1.15,1.15,0,0,1,.95.85.83.83,0,0,1-.75.84,1.16,1.16,0,0,1-.95-.85A.82.82,0,0,1,24.42,22.84Zm0,.25a.44.44,0,0,0-.37.16.46.46,0,0,0-.13.4.77.77,0,0,0,.27.42.74.74,0,0,0,.44.22.51.51,0,0,0,.51-.52.08.08,0,0,0,0,0,.75.75,0,0,0-.26-.42.77.77,0,0,0-.45-.22Z"/><path class="cls-2" d="M22.65,24.53l.08.08a.8.8,0,0,0,.13.13.33.33,0,0,0,.21.11.31.31,0,0,0,.2-.07l.32-.28-.47-.56.18-.16,1.07,1.27-.59.5a.42.42,0,0,1-.34.12.48.48,0,0,1-.31-.19.34.34,0,0,1-.09-.19.38.38,0,0,1,.05-.21.41.41,0,0,1-.22,0,.78.78,0,0,1-.21-.16l-.13-.13-.08-.08-.11-.11.19-.16A1.36,1.36,0,0,0,22.65,24.53Zm.7.45a.25.25,0,0,0-.11.17.24.24,0,0,0,.07.18.23.23,0,0,0,.17.1.26.26,0,0,0,.19-.07l.37-.31-.32-.38Z"/><path class="cls-2" d="M20.73,25.59a.88.88,0,0,1,.87-.28,1.14,1.14,0,0,1,.61,1.12.74.74,0,0,1-.39.46,1,1,0,0,1-.29.1.62.62,0,0,1-.27,0l.06-.22a.34.34,0,0,0,.2,0,.66.66,0,0,0,.2-.06.47.47,0,0,0,.25-.33.8.8,0,0,0-.12-.48.72.72,0,0,0-.35-.36.48.48,0,0,0-.42,0,.59.59,0,0,0-.29.35l-.19,0A.58.58,0,0,1,20.73,25.59Z"/><path class="cls-2" d="M20.35,26a1.11,1.11,0,0,1,.45,1.19.7.7,0,0,1-.44.4.72.72,0,0,1-.61,0,1.11,1.11,0,0,1-.45-1.19.83.83,0,0,1,1.06-.4Zm-.11.21a.51.51,0,0,0-.69.22.08.08,0,0,1,0,0,.94.94,0,0,0,.34.9.52.52,0,0,0,.69-.23s0,0,0,0a.91.91,0,0,0-.34-.88Z"/><path class="cls-2" d="M19.27,27.9l-.63.13a.71.71,0,0,1-.6-.09,1.08,1.08,0,0,1-.26-1.21.72.72,0,0,1,.5-.33l.64-.13Zm-.93-1.29a.45.45,0,0,0-.33.24.84.84,0,0,0,.19.89.45.45,0,0,0,.4.08l.39-.08-.26-1.22Z"/><path class="cls-2" d="M15.36,26.79c0,.07,0,.19,0,.36l-.15,1.17-.24,0,.09-.72a1.84,1.84,0,0,1-.26.4.75.75,0,0,1-.26.21.46.46,0,0,1-.23.05.36.36,0,0,1-.24-.15.74.74,0,0,1-.08-.41h0a.42.42,0,0,1-.24-.09.33.33,0,0,1-.11-.21,1.6,1.6,0,0,1,0-.38l.08-.55.24,0-.08.54a2.28,2.28,0,0,0,0,.26.28.28,0,0,0,0,.13.16.16,0,0,0,.11.05,1.06,1.06,0,0,1,0-.21.73.73,0,0,1,.14-.38.25.25,0,0,1,.25-.09.3.3,0,0,1,.22.12.42.42,0,0,1,0,.29.59.59,0,0,1-.15.33.51.51,0,0,1-.3.15.81.81,0,0,0,0,.22.14.14,0,0,0,0,.1.11.11,0,0,0,.08,0,.35.35,0,0,0,.24-.1,1.43,1.43,0,0,0,.31-.42,3.71,3.71,0,0,0,.29-.85l.23,0Zm-1,.23a.06.06,0,0,0-.07,0h0a.2.2,0,0,0,0,.08c0,.05,0,.11,0,.19l0,.18a.38.38,0,0,0,.2-.3A.49.49,0,0,0,14.38,27Z"/><path class="cls-2" d="M13.1,28l-.23-.06.41-1.62.23.06Z"/><path class="cls-2" d="M12.07,26a.76.76,0,0,1,.34.05.7.7,0,0,1,.46.39.91.91,0,0,1,0,.67.94.94,0,0,1-.4.54.67.67,0,0,1-.6,0,.87.87,0,0,1-.27-.14.62.62,0,0,1-.17-.22l.2-.09a.47.47,0,0,0,.13.15.81.81,0,0,0,.18.1.45.45,0,0,0,.41,0,.81.81,0,0,0,.28-.42.78.78,0,0,0,0-.5.47.47,0,0,0-.3-.28.61.61,0,0,0-.46,0l-.1-.16A.53.53,0,0,1,12.07,26Z"/><path class="cls-2" d="M11.49,25.73a.7.7,0,0,1,.11.37.79.79,0,0,1-.1.4.73.73,0,0,1-.2.26.71.71,0,0,1-.26.16l-.1-.21a.67.67,0,0,0,.2-.12.8.8,0,0,0,.15-.21.59.59,0,0,0,.07-.29.48.48,0,0,0-.07-.26.52.52,0,0,0-.21-.18.5.5,0,0,0-.43,0,.61.61,0,0,0-.32.33.82.82,0,0,0-.1.26,1,1,0,0,0,0,.25l.14,0,.13,0a.52.52,0,0,1,.16.06.48.48,0,0,1,.16.12.31.31,0,0,1,.09.18.22.22,0,0,1,0,.14.26.26,0,0,1-.19.13.49.49,0,0,1-.29-.06.75.75,0,0,1-.32-.34.33.33,0,0,1-.16-.05l-.11-.06-.08-.06.15-.15.13.08a1,1,0,0,1,0-.3,1.42,1.42,0,0,1,.1-.29,1,1,0,0,1,.29-.34.82.82,0,0,1,.37-.13.86.86,0,0,1,.39.09A.79.79,0,0,1,11.49,25.73Zm-.82,1-.09-.06-.12,0h-.13a.65.65,0,0,0,.18.15c.1.05.15.05.17,0A.06.06,0,0,0,10.67,26.77Z"/><path class="cls-2" d="M10.16,25a.66.66,0,0,1,.12.32l-.21.06a1,1,0,0,0-.11-.28.58.58,0,0,0-.19-.19.41.41,0,0,0-.28-.11.21.21,0,0,0-.18.11.24.24,0,0,0,0,.12.35.35,0,0,0,.06.14.69.69,0,0,0,.12.18c.06.09.11.18.16.27a.48.48,0,0,1,.07.24.38.38,0,0,1-.08.25.38.38,0,0,1-.09.09l.06.07-.15.15a1,1,0,0,1-.14-.15.52.52,0,0,1-.21,0,.75.75,0,0,1-.2-.1,1,1,0,0,1-.21-.19.45.45,0,0,1-.07-.18.17.17,0,0,1,0-.14.31.31,0,0,1,.11-.09h.17a.66.66,0,0,1,.19.09.46.46,0,0,1,.17.17A1.48,1.48,0,0,1,9.4,26h0a.31.31,0,0,0,0-.13.35.35,0,0,0-.06-.14l-.13-.2a2.13,2.13,0,0,1-.16-.25A.57.57,0,0,1,9,25a.33.33,0,0,1,.07-.23.45.45,0,0,1,.34-.21.71.71,0,0,1,.46.15A1.23,1.23,0,0,1,10.16,25Zm-1.06.88-.1-.1-.11,0s0,0-.05,0a.09.09,0,0,0,0,.08.7.7,0,0,0,.16.13l.15.08a1.09,1.09,0,0,0-.08-.15Z"/><path class="cls-2" d="M8,23.08a1,1,0,0,1,.29.2.74.74,0,0,1,.22.56.89.89,0,0,1-.32.58.91.91,0,0,1-.59.3A.72.72,0,0,1,7,24.48a1.1,1.1,0,0,1-.18-.26.47.47,0,0,1,0-.26H7a.67.67,0,0,0,0,.19.66.66,0,0,0,.12.17.42.42,0,0,0,.38.15A.76.76,0,0,0,8,24.24a.73.73,0,0,0,.25-.43.48.48,0,0,0-.14-.39.57.57,0,0,0-.42-.19V23A.7.7,0,0,1,8,23.08Z"/><path class="cls-2" d="M7.54,22.81a.92.92,0,0,1-.4.54.93.93,0,0,1-.64.21.83.83,0,0,1-.66-.91,1.12,1.12,0,0,1,1-.74.79.79,0,0,1,.66.9Zm-.23,0a.47.47,0,0,0-.09-.41.47.47,0,0,0-.35-.21.78.78,0,0,0-.47.18.77.77,0,0,0-.31.38.44.44,0,0,0,.09.41.45.45,0,0,0,.35.21A.94.94,0,0,0,7.31,22.76Z"/><path class="cls-2" d="M5.39,22.3l-.11-.21,1.28-.69-.43-.8.19-.1.54,1Z"/><path class="cls-2" d="M6.06,20.39a1,1,0,0,1-.53.42.89.89,0,0,1-.66,0,.81.81,0,0,1-.4-1.06,1,1,0,0,1,.52-.4.91.91,0,0,1,.67,0,.81.81,0,0,1,.4,1Zm-.21-.12a.51.51,0,0,0-.23-.68l0,0a.78.78,0,0,0-.5.05.71.71,0,0,0-.39.29.5.5,0,0,0,.22.68l0,0A.94.94,0,0,0,5.85,20.27Z"/><path class="cls-2" d="M5.37,18l-.11,0-.18.06a.41.41,0,0,0-.19.13.3.3,0,0,0,0,.21L5,18.9l.73-.17,0,.23-1.63.37-.17-.75a.45.45,0,0,1,0-.36A.51.51,0,0,1,4.3,18a.38.38,0,0,1,.21,0,.39.39,0,0,1,.17.14A.3.3,0,0,1,4.8,18,.7.7,0,0,1,5,17.9l.18-.06.11,0,.15,0,0,.24Zm-.72.43a.25.25,0,0,0-.11-.17.21.21,0,0,0-.19,0,.25.25,0,0,0-.17.11.3.3,0,0,0,0,.21l.11.47.5-.13Z"/><path class="cls-2" d="M5.3,15.85a.94.94,0,0,1,.07.34.68.68,0,0,1-.21.56.94.94,0,0,1-.64.22,1,1,0,0,1-.63-.18.82.82,0,0,1-.19-.86.56.56,0,0,1,.13-.24l.16.16a.59.59,0,0,0-.1.17.71.71,0,0,0,0,.2.44.44,0,0,0,.18.38.79.79,0,0,0,.47.12A.83.83,0,0,0,5,16.57a.49.49,0,0,0,.16-.39A.64.64,0,0,0,5,15.75l.12-.15A.62.62,0,0,1,5.3,15.85Z"/><path class="cls-2" d="M5.15,15.35a.93.93,0,0,1-.65.13,1,1,0,0,1-.62-.27A.82.82,0,0,1,4,14.09.93.93,0,0,1,4.66,14a.92.92,0,0,1,.61.26.74.74,0,0,1,.17.59A.71.71,0,0,1,5.15,15.35ZM5,15.15a.51.51,0,0,0,.12-.71l0,0a.8.8,0,0,0-.47-.18.74.74,0,0,0-.48.08A.51.51,0,0,0,4,15l0,0a.78.78,0,0,0,.46.18A.76.76,0,0,0,5,15.15Z"/><path class="cls-2" d="M3.9,13.5l.16-.61a.73.73,0,0,1,.36-.49.86.86,0,0,1,.63,0,.83.83,0,0,1,.56.34.71.71,0,0,1,.07.6l-.16.62Zm1.57-.24a.46.46,0,0,0-.07-.41.69.69,0,0,0-.4-.24.66.66,0,0,0-.48,0,.48.48,0,0,0-.25.32l-.1.39,1.2.32Z"/><path class="cls-2" d="M4.38,11.82l.41-1,.2.08-.32.78.47.19.28-.69.2.08L5.33,12l.49.2.32-.78.2.08-.41,1Z"/><circle class="cls-3" cx="12.5" cy="11.68" r="2.16"/><rect class="cls-4" x="17.53" y="13.3" width="4.32" height="4.32" rx="0.85" transform="translate(-3.86 23.95) rotate(-57.95)"/><path class="cls-5" d="M16,20.66,13,23.2a.41.41,0,0,1-.56,0L11.59,19a.4.4,0,0,1,.54-.46l3.95,1.54a.41.41,0,0,1,0,.56Z"/></svg>