<svg id="Capa_1" data-name="Capa 1" xmlns="http://www.w3.org/2000/svg" viewBox="0 0 46 46"><path d="M20,2.25a4,4,0,0,1,5.92,0l.28.31a4,4,0,0,0,4.17,1.12l.41-.13a4,4,0,0,1,5.12,3l.09.42a4,4,0,0,0,3,3.05l.42.09a4,4,0,0,1,3,5.12l-.13.41a4,4,0,0,0,1.12,4.17l.31.28a4,4,0,0,1,0,5.92l-.31.28a4,4,0,0,0-1.12,4.17l.13.41a4,4,0,0,1-3,5.12l-.42.09a4,4,0,0,0-3,3l-.09.42a4,4,0,0,1-5.12,3l-.41-.13a4,4,0,0,0-4.17,1.12l-.28.31a4,4,0,0,1-5.92,0l-.28-.31a4,4,0,0,0-4.17-1.12l-.41.13a4,4,0,0,1-5.12-3L10,39.08a4,4,0,0,0-3.05-3l-.42-.09a4,4,0,0,1-2.95-5.12l.13-.41a4,4,0,0,0-1.12-4.17L2.25,26a4,4,0,0,1,0-5.92l.31-.28a4,4,0,0,0,1.12-4.17l-.13-.41a4,4,0,0,1,3-5.12L6.92,10A4,4,0,0,0,10,6.92l.09-.42a4,4,0,0,1,5.12-2.95l.41.13a4,4,0,0,0,4.17-1.12Z"/></svg>