<svg width="407" height="171" viewBox="0 0 407 171" fill="none" xmlns="http://www.w3.org/2000/svg">
<path d="M5 4L14.5 6L25.4375 0L37.9375 6L50.875 0L63.375 6L76.3125 0L88.8125 6L101.75 0L114.25 6L127.188 0L139.688 6L152.625 0L165.125 6L178.062 0L190.562 6L203.5 0L216 6L228.938 0L241.438 6L254.375 0L266.875 6L279.812 0L292.312 6L305.25 0L317.75 6L330.688 0L343.188 6L356.125 0L368.625 6L381.562 0L389.5 6L401.5 4V13L407 21.375L402 32.75L407 42.75L402 54.125L407 64.125L402 75.5L407 85.5L402 96.875L407 106.875L402 118.25L407 128.25L402 139.625L407 149.625L402 159.5L400.5 169L389.5 166L381.562 171L369.625 166L356.125 171L344.188 166L330.688 171L318.75 166L305.25 171L293.312 166L279.812 171L267.875 166L254.375 171L242.438 166L228.938 171L217 166L203.5 171L191.562 166L178.062 171L166.125 166L152.625 171L140.688 166L127.188 171L115.25 166L101.75 171L89.8125 166L76.3125 171L64.375 166L50.875 171L38.9375 166L25.4375 171L15.5 166L5 169L5.5 159L0 149.625L5 139.625L0 128.25L5 118.25L0 106.875L5 96.875L0 85.5L5 75.5L0 64.125L5 54.125L0 42.75L5 32.75L0 21.375L4.5 13L5 4Z" fill="black"/>
</svg>
