<svg width="331" height="382" viewBox="0 0 331 382" fill="none" xmlns="http://www.w3.org/2000/svg">
<path d="M1.89423 7.40566C3.65782 3.76824 7.88917 2.05701 11.6855 3.44591C13.9378 4.26994 16.4429 4.0226 18.4906 2.774L20.5154 1.5394C23.5649 -0.320075 27.4081 -0.276878 30.415 1.65067C33.3803 3.55149 37.2097 3.5943 40.2436 1.80507C43.1607 0.0846949 46.8172 0.0194173 49.7709 1.67634L50.1886 1.91069C53.315 3.66449 57.1443 3.59492 60.2049 1.72872L60.5154 1.5394C63.5649 -0.320075 67.4081 -0.276878 70.415 1.65067C73.3803 3.55149 77.2097 3.5943 80.2436 1.80507C83.1607 0.0846949 86.8172 0.0194173 89.7709 1.67634L90.1886 1.91069C93.315 3.66449 97.1443 3.59492 100.205 1.72872L100.515 1.5394C103.565 -0.320075 107.408 -0.276878 110.415 1.65067C113.38 3.55149 117.21 3.5943 120.244 1.80507C123.161 0.0846949 126.817 0.0194173 129.771 1.67634L130.189 1.91069C133.315 3.66449 137.144 3.59492 140.205 1.72872L140.515 1.5394C143.565 -0.320075 147.408 -0.276878 150.415 1.65067C153.38 3.55149 157.21 3.5943 160.244 1.80507C163.161 0.0846949 166.817 0.0194173 169.771 1.67634L170.189 1.91069C173.315 3.66449 177.144 3.59492 180.205 1.72872L180.515 1.5394C183.565 -0.320075 187.408 -0.276878 190.415 1.65067C193.38 3.55149 197.21 3.5943 200.244 1.80507C203.161 0.0846949 206.817 0.0194173 209.771 1.67634L210.189 1.91069C213.315 3.66449 217.144 3.59492 220.205 1.72872L220.515 1.5394C223.565 -0.320075 227.408 -0.276878 230.415 1.65067C233.38 3.55149 237.21 3.5943 240.244 1.80507C243.161 0.0846949 246.817 0.0194173 249.771 1.67634L250.189 1.91069C253.315 3.66449 257.144 3.59492 260.205 1.72872L260.515 1.5394C263.565 -0.320075 267.408 -0.276878 270.415 1.65067C273.38 3.55149 277.21 3.5943 280.244 1.80507C283.161 0.0846949 286.817 0.0194173 289.771 1.67634L290.189 1.91069C293.315 3.66449 297.144 3.59492 300.205 1.72872C303.444 -0.246579 307.527 -0.200692 310.721 1.84692L312.127 2.74776C314.09 4.00654 316.536 4.25546 318.713 3.41813C322.268 2.05091 326.277 3.63421 327.939 7.06127L328.877 8.997C330.213 11.7512 330.165 14.975 328.749 17.6886L328 19.125C326.113 22.7423 326.049 27.0395 327.829 30.7108L328.171 31.4142C329.951 35.0855 329.887 39.3827 328 43C326.113 46.6173 326.049 50.9145 327.829 54.5858L328.171 55.2892C329.951 58.9605 329.887 63.2577 328 66.875C326.113 70.4923 326.049 74.7895 327.829 78.4608L328.171 79.1642C329.951 82.8355 329.887 87.1327 328 90.75C326.113 94.3673 326.049 98.6645 327.829 102.336L328.171 103.039C329.951 106.71 329.887 111.008 328 114.625C326.113 118.242 326.049 122.54 327.829 126.211L328.171 126.914C329.951 130.585 329.887 134.883 328 138.5C326.113 142.117 326.049 146.415 327.829 150.086L328.171 150.789C329.951 154.46 329.887 158.758 328 162.375C326.113 165.992 326.049 170.29 327.829 173.961L328.171 174.664C329.951 178.335 329.887 182.633 328 186.25C326.113 189.867 326.049 194.165 327.829 197.836L328.171 198.539C329.951 202.21 329.887 206.508 328 210.125C326.113 213.742 326.049 218.04 327.829 221.711L328.171 222.414C329.951 226.085 329.887 230.383 328 234C326.113 237.617 326.049 241.915 327.829 245.586L328.171 246.289C329.951 249.96 329.887 254.258 328 257.875C326.113 261.492 326.049 265.79 327.829 269.461L328.171 270.164C329.951 273.835 329.887 278.133 328 281.75C326.113 285.367 326.049 289.665 327.829 293.336L328.171 294.039C329.951 297.71 329.887 302.008 328 305.625C326.113 309.242 326.049 313.54 327.829 317.211L328.171 317.914C329.951 321.585 329.887 325.883 328 329.5C326.113 333.117 326.049 337.415 327.829 341.086L328.171 341.789C329.951 345.46 329.887 349.758 328 353.375C326.113 356.992 326.049 361.29 327.829 364.961L329.306 368.006C330.372 370.204 330.334 372.777 329.204 374.943L327.918 377.407C326.389 380.338 322.598 381.198 319.954 379.215C318.175 377.881 315.758 377.784 313.878 378.972L311.926 380.205C309.202 381.925 305.752 382.001 302.955 380.403L301.945 379.826C298.856 378.06 295.088 377.956 291.905 379.547L289.229 380.886C286.637 382.181 283.536 381.902 281.218 380.163C278.678 378.259 275.226 378.12 272.543 379.815L271.926 380.205C269.202 381.925 265.752 382.001 262.955 380.403L261.945 379.826C258.856 378.06 255.088 377.956 251.905 379.547L249.229 380.886C246.637 382.181 243.536 381.902 241.218 380.163C238.678 378.259 235.226 378.12 232.543 379.815L231.926 380.205C229.202 381.925 225.752 382.001 222.955 380.403L221.945 379.826C218.856 378.06 215.088 377.956 211.905 379.547L209.229 380.886C206.637 382.181 203.536 381.902 201.218 380.163C198.678 378.259 195.226 378.12 192.543 379.815L191.926 380.205C189.202 381.925 185.752 382.001 182.955 380.403L181.945 379.826C178.856 378.06 175.088 377.956 171.905 379.547L169.229 380.886C166.637 382.181 163.536 381.902 161.218 380.163C158.678 378.259 155.226 378.12 152.543 379.815L151.926 380.205C149.202 381.925 145.752 382.001 142.955 380.403L141.945 379.826C138.856 378.06 135.088 377.956 131.905 379.547L129.229 380.886C126.637 382.181 123.536 381.902 121.218 380.163C118.678 378.259 115.226 378.12 112.543 379.815L111.926 380.205C109.202 381.925 105.752 382.001 102.955 380.403L101.945 379.826C98.8558 378.06 95.0882 377.956 91.9054 379.547L89.2288 380.886C86.6371 382.181 83.5357 381.902 81.2176 380.163C78.6782 378.259 75.2264 378.12 72.5426 379.815L71.9259 380.205C69.2024 381.925 65.7518 382.001 62.955 380.403L61.9454 379.826C58.8558 378.06 55.0882 377.956 51.9054 379.547L49.2288 380.886C46.6371 382.181 43.5357 381.902 41.2176 380.163C38.6782 378.259 35.2264 378.12 32.5426 379.815L31.9259 380.205C29.2024 381.925 25.7518 382.001 22.955 380.403L21.1066 379.347C18.541 377.881 15.3784 377.811 12.7354 379.132C8.47621 381.262 3.23422 379.616 1.0315 375.394C-0.246504 372.944 -0.289333 370.034 0.916031 367.548L2.17052 364.961C3.95053 361.29 3.88728 356.992 2 353.375C0.112717 349.758 0.0494706 345.46 1.82948 341.789L2.17052 341.086C3.95053 337.415 3.88728 333.117 2 329.5C0.112717 325.883 0.0494706 321.585 1.82948 317.914L2.17052 317.211C3.95053 313.54 3.88728 309.242 2 305.625C0.112717 302.008 0.0494706 297.71 1.82948 294.039L2.17052 293.336C3.95053 289.665 3.88728 285.367 2 281.75C0.112717 278.133 0.0494706 273.835 1.82948 270.164L2.17052 269.461C3.95053 265.79 3.88728 261.492 2 257.875C0.112717 254.258 0.0494706 249.96 1.82948 246.289L2.17052 245.586C3.95053 241.915 3.88728 237.617 2 234C0.112717 230.383 0.0494706 226.085 1.82948 222.414L2.17052 221.711C3.95053 218.04 3.88728 213.742 2 210.125C0.112717 206.508 0.0494706 202.21 1.82948 198.539L2.17052 197.836C3.95053 194.165 3.88728 189.867 2 186.25C0.112717 182.633 0.0494706 178.335 1.82948 174.664L2.17052 173.961C3.95053 170.29 3.88728 165.992 2 162.375C0.112717 158.758 0.0494706 154.46 1.82948 150.789L2.17052 150.086C3.95053 146.415 3.88728 142.117 2 138.5C0.112717 134.883 0.0494706 130.585 1.82948 126.914L2.17052 126.211C3.95053 122.54 3.88728 118.242 2 114.625C0.112717 111.008 0.0494706 106.71 1.82948 103.039L2.17052 102.336C3.95053 98.6645 3.88728 94.3673 2 90.75C0.112717 87.1327 0.0494706 82.8355 1.82948 79.1642L2.17052 78.4608C3.95053 74.7895 3.88728 70.4923 2 66.875C0.112717 63.2577 0.0494706 58.9605 1.82948 55.2892L2.17052 54.5858C3.95053 50.9145 3.88728 46.6173 2 43C0.112717 39.3827 0.0494706 35.0855 1.82948 31.4142L2.17052 30.7108C3.95053 27.0395 3.88728 22.7423 2 19.125L1.27467 17.7348C-0.156312 14.9921 -0.204267 11.7338 1.14538 8.95016L1.89423 7.40566Z" fill="black"/>
</svg>
