<?xml version="1.0" encoding="utf-8"?>
<!-- Generator: Adobe Illustrator 26.1.0, SVG Export Plug-In . SVG Version: 6.00 Build 0)  -->
<svg version="1.1" id="Capa_1" xmlns="http://www.w3.org/2000/svg" xmlns:xlink="http://www.w3.org/1999/xlink" x="0px" y="0px"
	 viewBox="0 0 331 382" style="enable-background:new 0 0 331 382;" xml:space="preserve">
<path d="M2.3,7.5c1.8-3.6,6-5.3,9.8-4c2.3,0.8,4.8,0.6,6.8-0.7l2-1.2c3-1.9,6.9-1.8,9.9,0.1c3,1.9,6.8,1.9,9.8,0.2
	c2.9-1.7,6.6-1.8,9.5-0.1L50.6,2c3.1,1.8,7,1.7,10-0.2L61,1.6c3-1.9,6.9-1.8,9.9,0.1c3,1.9,6.8,1.9,9.8,0.2c2.9-1.7,6.6-1.8,9.5-0.1
	L90.6,2c3.1,1.8,7,1.7,10-0.2l0.3-0.2c3.1-1.9,6.9-1.8,9.9,0.1c3,1.9,6.8,1.9,9.8,0.2c2.9-1.7,6.6-1.8,9.5-0.1l0.4,0.2
	c3.1,1.8,7,1.7,10-0.2l0.3-0.2c3.1-1.9,6.9-1.8,9.9,0.1c3,1.9,6.8,1.9,9.8,0.2c2.9-1.7,6.6-1.8,9.5-0.1l0.4,0.2
	c3.1,1.8,7,1.7,10-0.2l0.3-0.2c3.1-1.9,6.9-1.8,9.9,0.1c3,1.9,6.8,1.9,9.8,0.2c2.9-1.7,6.6-1.8,9.5-0.1l0.4,0.2
	c3.1,1.8,7,1.7,10-0.2l0.3-0.2c3.1-1.9,6.9-1.8,9.9,0.1c3,1.9,6.8,1.9,9.8,0.2c2.9-1.7,6.6-1.8,9.5-0.1l0.4,0.2
	c3.1,1.8,7,1.7,10-0.2l0.3-0.2c3-1.9,6.9-1.8,9.9,0.1c3,1.9,6.8,1.9,9.8,0.2c2.9-1.7,6.6-1.8,9.5-0.1l0.4,0.2c3.1,1.8,7,1.7,10-0.2
	c3.2-2,7.3-1.9,10.5,0.1l1.4,0.9c2,1.3,4.4,1.5,6.6,0.7c3.6-1.4,7.6,0.2,9.2,3.6l0.9,1.9c1.3,2.8,1.3,6-0.1,8.7l-0.7,1.4
	c-1.9,3.6-2,7.9-0.2,11.6l0.3,0.7c1.8,3.7,1.7,8-0.2,11.6s-2,7.9-0.2,11.6l0.3,0.7c1.8,3.7,1.7,8-0.2,11.6c-1.9,3.6-2,7.9-0.2,11.6
	l0.3,0.7c1.8,3.7,1.7,8-0.2,11.6s-2,7.9-0.2,11.6l0.3,0.7c1.8,3.7,1.7,8-0.2,11.6s-2,7.9-0.2,11.6l0.3,0.7c1.8,3.7,1.7,8-0.2,11.6
	s-2,7.9-0.2,11.6l0.3,0.7c1.8,3.7,1.7,8-0.2,11.6s-2,7.9-0.2,11.6l0.3,0.7c1.8,3.7,1.7,8-0.2,11.6s-2,7.9-0.2,11.6l0.3,0.7
	c1.8,3.7,1.7,8-0.2,11.6s-2,7.9-0.2,11.6l0.3,0.7c1.8,3.7,1.7,8-0.2,11.6s-2,7.9-0.2,11.6l0.3,0.7c1.8,3.7,1.7,8-0.2,11.6
	c-1.9,3.6-2,7.9-0.2,11.6l0.3,0.7c1.8,3.7,1.7,8-0.2,11.6s-2,7.9-0.2,11.6l0.3,0.7c1.8,3.7,1.7,8-0.2,11.6s-2,7.9-0.2,11.6l0.3,0.7
	c1.8,3.7,1.7,8-0.2,11.6s-2,7.9-0.2,11.6l0.3,0.7c1.8,3.7,1.7,8-0.2,11.6s-2,7.9-0.2,11.6l1.5,3c1.1,2.2,1,4.8-0.1,6.9l-1.3,2.5
	c-1.5,2.9-5.3,3.8-8,1.8c-1.8-1.3-4.2-1.4-6.1-0.2l-2,1.2c-2.7,1.7-6.2,1.8-9,0.2l-1-0.6c-3.1-1.8-6.9-1.9-10-0.3l-2.7,1.3
	c-2.6,1.3-5.7,1-8-0.7c-2.5-1.9-6-2-8.7-0.3l-0.6,0.4c-2.7,1.7-6.2,1.8-9,0.2l-1-0.6c-3.1-1.8-6.9-1.9-10-0.3l-2.7,1.3
	c-2.6,1.3-5.7,1-8-0.7c-2.5-1.9-6-2-8.7-0.3l-0.6,0.4c-2.7,1.7-6.2,1.8-9,0.2l-1-0.6c-3.1-1.8-6.9-1.9-10-0.3l-2.7,1.3
	c-2.6,1.3-5.7,1-8-0.7c-2.5-1.9-6-2-8.7-0.3l-0.6,0.4c-2.7,1.7-6.2,1.8-9,0.2l-1-0.6c-3.1-1.8-6.9-1.9-10-0.3l-2.7,1.3
	c-2.6,1.3-5.7,1-8-0.7c-2.5-1.9-6-2-8.7-0.3l-0.6,0.4c-2.7,1.7-6.2,1.8-9,0.2l-1-0.6c-3.1-1.8-6.9-1.9-10-0.3l-2.7,1.3
	c-2.6,1.3-5.7,1-8-0.7c-2.5-1.9-6-2-8.7-0.3l-0.6,0.4c-2.7,1.7-6.2,1.8-9,0.2l-1-0.6c-3.1-1.8-6.9-1.9-10-0.3l-2.7,1.3
	c-2.6,1.3-5.7,1-8-0.7c-2.5-1.9-6-2-8.7-0.3l-0.6,0.4c-2.7,1.7-6.2,1.8-9,0.2l-1-0.6c-3.1-1.8-6.9-1.9-10-0.3l-2.7,1.3
	c-2.6,1.3-5.7,1-8-0.7c-2.5-1.9-6-2-8.7-0.3l-0.6,0.4c-2.7,1.7-6.2,1.8-9,0.2l-1.8-1.1c-2.6-1.5-5.7-1.5-8.4-0.2
	c-4.3,2.1-9.5,0.5-11.7-3.7c-1.3-2.5-1.3-5.4-0.1-7.8l1.3-2.6c1.8-3.7,1.7-8-0.2-11.6c-1.9-3.6-2-7.9-0.2-11.6l0.3-0.7
	c1.8-3.7,1.7-8-0.2-11.6c-1.9-3.6-2-7.9-0.2-11.6l0.3-0.7c1.8-3.7,1.7-8-0.2-11.6c-1.9-3.6-2-7.9-0.2-11.6l0.3-0.7
	c1.8-3.7,1.7-8-0.2-11.6c-1.9-3.6-2-7.9-0.2-11.6l0.3-0.7c1.8-3.7,1.7-8-0.2-11.6c-1.9-3.6-2-7.9-0.2-11.6l0.3-0.7
	c1.8-3.7,1.7-8-0.2-11.6c-1.9-3.6-2-7.9-0.2-11.6l0.3-0.7c1.8-3.7,1.7-8-0.2-11.6c-1.9-3.6-2-7.9-0.2-11.6l0.3-0.7
	c1.8-3.7,1.7-8-0.2-11.6c-1.9-3.6-2-7.9-0.2-11.6l0.3-0.7c1.8-3.7,1.7-8-0.2-11.6c-1.9-3.6-2-7.9-0.2-11.6l0.3-0.7
	c1.8-3.7,1.7-8-0.2-11.6c-1.9-3.6-2-7.9-0.2-11.6l0.3-0.7c1.8-3.7,1.7-8-0.2-11.6c-1.9-3.6-2-7.9-0.2-11.6l0.3-0.7
	c1.8-3.7,1.7-8-0.2-11.6c-1.9-3.6-2-7.9-0.2-11.6l0.3-0.7c1.8-3.7,1.7-8-0.2-11.6c-1.9-3.6-2-7.9-0.2-11.6l0.3-0.7
	c1.8-3.7,1.7-8-0.2-11.6c-1.9-3.6-2-7.9-0.2-11.6l0.3-0.7c1.8-3.7,1.7-8-0.2-11.6l-0.7-1.4c-1.4-2.7-1.5-6-0.1-8.8L2.3,7.5z"/>
</svg>
