<svg width="302" height="311" viewBox="0 0 302 311" fill="none" xmlns="http://www.w3.org/2000/svg">
<path d="M13 33C0.591465 22.114 14.2207 2.64823 29 10C35.7035 -2.51317 53.4067 -3.16126 61.0072 8.82826L61.75 10C70.0028 -3.01845 88.9972 -3.01845 97.25 10C105.503 -3.01845 124.497 -3.01845 132.75 10C141.003 -3.01845 159.997 -3.01845 168.25 10C176.503 -3.01845 195.497 -3.01845 203.75 10C212.003 -3.01845 230.997 -3.01845 239.25 10C247.503 -3.01845 266.497 -3.01845 274.75 10L276.454 9.15883C291.611 1.67686 305.138 21.7752 292.5 33C302.454 38.5302 302.633 52.7826 292.821 58.561L292.5 58.75C304.319 68.862 304.319 87.138 292.5 97.25C304.319 107.362 304.319 125.638 292.5 135.75C304.319 145.862 304.319 164.138 292.5 174.25C304.319 184.362 304.319 202.638 292.5 212.75C304.319 222.862 304.319 241.138 292.5 251.25C303.188 258.494 303.243 274.338 292.5 281.5C304.396 291.475 292.299 310.232 278.305 303.509L271 300C265.061 312.726 247.293 313.594 240.142 301.508L239.25 300C231.265 313.496 211.735 313.496 203.75 300C195.765 313.496 176.235 313.496 168.25 300C160.265 313.496 140.735 313.496 132.75 300C124.765 313.496 105.235 313.496 97.25 300C89.2648 313.496 69.7352 313.496 61.75 300C53.7648 313.496 34.2352 313.496 26.25 300L25.1378 300.575C10.1079 308.348 -3.85938 288.557 8.5 277C-0.822304 272.106 -1.91004 259.188 6.46261 252.804L8.5 251.25C-2.4199 240.74 -2.4199 223.26 8.5 212.75C-2.4199 202.24 -2.4199 184.76 8.5 174.25C-2.4199 163.74 -2.4199 146.26 8.5 135.75C-2.4199 125.24 -2.4199 107.76 8.5 97.25C-2.4199 86.7396 -2.4199 69.2604 8.5 58.75C-0.438425 52.8283 0.319396 39.4697 9.87018 34.5968L13 33Z" fill="black"/>
</svg>
