<?xml version="1.0" encoding="utf-8"?>
<svg version="1.1" xmlns="http://www.w3.org/2000/svg" 
     viewBox="0 0 370 171" 
     preserveAspectRatio="none">
<path d="M0,4l9.5,2l10.9-6l12.5,6l12.9-6l12.5,6l12.9-6l12.5,6l12.9-6l12.5,6l12.9-6l12.5,6l12.9-6l12.5,6l12.9-6l12.5,6l12.9-6
	L211,6l12.9-6l12.5,6l12.9-6l12.5,6l12.9-6l12.5,6l12.9-6l12.5,6l12.9-6l12.5,6l12.9-6l12.5,6l12.9-6l7.9,6l12-2v9l5.5,8.4l-5,11.4
	l5,10l-5,11.4l5,10l-5,11.4l5,10l-5,11.4l5,10l-5,11.4l5,10l-5,11.4l5,10l-5,9.9l-1.5,9.5l-11-3l-7.9,5l-11.9-5l-13.5,5l-11.9-5
	l-13.5,5l-11.9-5l-13.5,5l-11.9-5l-13.5,5l-11.9-5l-13.5,5l-11.9-5l-13.5,5l-11.9-5l-13.5,5l-11.9-5l-13.5,5l-11.9-5l-13.5,5
	l-11.9-5l-13.5,5l-11.9-5l-13.5,5l-11.9-5l-13.5,5l-11.9-5l-13.5,5l-11.9-5l-13.5,5l-11.9-5l-13.5,5l-9.9-5L0,169l0.5-10L-5,149.6l5-10l-5-11.4l5-10
	l-5-11.4l5-10L-5,85.5l5-10L-5,64.1l5-10L-5,42.8l5-10L-5,21.4L-0.5,13L0,4z"/>
</svg>