<svg width="341" height="147" viewBox="0 0 341 147" fill="none" xmlns="http://www.w3.org/2000/svg">
<path d="M51.4914 0.000239639C23.0536 0.000237153 0.000167205 23.0549 0.000164719 51.4943C0.000162233 79.9336 23.0536 102.988 51.4914 102.988C79.9292 102.988 102.982 79.9336 102.982 51.4943C102.982 23.0549 79.9292 0.000242125 51.4914 0.000239639Z" fill="#009FE3"/>
<path d="M40.1552 140.132C39.6219 140.132 39.1419 140.031 38.7152 139.828C38.2992 139.615 37.9685 139.327 37.7232 138.964C37.4779 138.602 37.3552 138.196 37.3552 137.748C37.3552 137.172 37.4992 136.719 37.7872 136.388C38.0859 136.058 38.5712 135.823 39.2432 135.684C39.9259 135.546 40.8539 135.476 42.0272 135.476H42.7472V136.324H42.0432C41.1792 136.324 40.4965 136.367 39.9952 136.452C39.5045 136.527 39.1579 136.66 38.9552 136.852C38.7632 137.044 38.6672 137.316 38.6672 137.668C38.6672 138.106 38.8165 138.463 39.1152 138.74C39.4245 139.018 39.8405 139.156 40.3632 139.156C40.7899 139.156 41.1632 139.055 41.4832 138.852C41.8139 138.65 42.0699 138.372 42.2512 138.02C42.4432 137.668 42.5392 137.263 42.5392 136.804V134.98C42.5392 134.319 42.4059 133.844 42.1392 133.556C41.8725 133.258 41.4352 133.108 40.8272 133.108C40.4539 133.108 40.0805 133.156 39.7072 133.252C39.3339 133.348 38.9392 133.503 38.5232 133.716C38.3739 133.791 38.2459 133.818 38.1392 133.796C38.0325 133.764 37.9472 133.706 37.8832 133.62C37.8192 133.535 37.7819 133.439 37.7712 133.332C37.7605 133.215 37.7819 133.103 37.8352 132.996C37.8992 132.89 37.9952 132.804 38.1232 132.74C38.5925 132.506 39.0565 132.335 39.5152 132.228C39.9739 132.122 40.4112 132.068 40.8272 132.068C41.4992 132.068 42.0539 132.18 42.4912 132.404C42.9285 132.618 43.2539 132.948 43.4672 133.396C43.6805 133.834 43.7872 134.399 43.7872 135.092V139.428C43.7872 139.642 43.7339 139.807 43.6272 139.924C43.5312 140.042 43.3872 140.1 43.1952 140.1C42.9925 140.1 42.8379 140.042 42.7312 139.924C42.6245 139.807 42.5712 139.642 42.5712 139.428V138.18H42.7152C42.6299 138.586 42.4645 138.932 42.2192 139.22C41.9845 139.508 41.6912 139.732 41.3392 139.892C40.9872 140.052 40.5925 140.132 40.1552 140.132ZM46.3356 139.988C46.1969 139.988 46.0849 139.956 45.9996 139.892C45.9143 139.828 45.8556 139.743 45.8236 139.636C45.7916 139.53 45.7916 139.412 45.8236 139.284C45.8556 139.156 45.9249 139.034 46.0316 138.916L50.5436 132.884V133.22H46.2716C46.1009 133.22 45.9676 133.178 45.8716 133.092C45.7863 132.996 45.7436 132.868 45.7436 132.708C45.7436 132.548 45.7863 132.426 45.8716 132.34C45.9676 132.255 46.1009 132.212 46.2716 132.212H51.1836C51.3436 132.212 51.4716 132.244 51.5676 132.308C51.6743 132.372 51.7436 132.458 51.7756 132.564C51.8076 132.66 51.8076 132.772 51.7756 132.9C51.7543 133.018 51.6956 133.135 51.5996 133.252L47.0076 139.348V138.98H51.5036C51.8556 138.98 52.0316 139.146 52.0316 139.476C52.0316 139.636 51.9836 139.764 51.8876 139.86C51.8023 139.946 51.6743 139.988 51.5036 139.988H46.3356ZM56.3498 140.132C55.7205 140.132 55.1978 140.02 54.7818 139.796C54.3765 139.562 54.0672 139.215 53.8538 138.756C53.6512 138.298 53.5498 137.727 53.5498 137.044V132.756C53.5498 132.532 53.6032 132.367 53.7098 132.26C53.8272 132.154 53.9872 132.1 54.1898 132.1C54.4032 132.1 54.5632 132.154 54.6698 132.26C54.7872 132.367 54.8458 132.532 54.8458 132.756V137.028C54.8458 137.711 54.9845 138.223 55.2618 138.564C55.5498 138.895 55.9978 139.06 56.6058 139.06C57.2672 139.06 57.8058 138.836 58.2218 138.388C58.6378 137.94 58.8458 137.354 58.8458 136.628V132.756C58.8458 132.532 58.8992 132.367 59.0058 132.26C59.1232 132.154 59.2885 132.1 59.5018 132.1C59.7045 132.1 59.8592 132.154 59.9658 132.26C60.0832 132.367 60.1418 132.532 60.1418 132.756V139.428C60.1418 139.876 59.9338 140.1 59.5178 140.1C59.3152 140.1 59.1552 140.042 59.0378 139.924C58.9312 139.807 58.8778 139.642 58.8778 139.428V137.972L59.0858 138.196C58.8725 138.826 58.5205 139.306 58.0298 139.636C57.5498 139.967 56.9898 140.132 56.3498 140.132ZM64.9346 140.132C64.1666 140.132 63.5799 139.898 63.1746 139.428C62.7693 138.959 62.5666 138.287 62.5666 137.412V129.252C62.5666 129.039 62.6199 128.879 62.7266 128.772C62.8333 128.655 62.9933 128.596 63.2066 128.596C63.4093 128.596 63.5693 128.655 63.6866 128.772C63.8039 128.879 63.8626 129.039 63.8626 129.252V137.316C63.8626 137.892 63.9746 138.324 64.1986 138.612C64.4333 138.89 64.7746 139.028 65.2226 139.028C65.3186 139.028 65.4039 139.023 65.4786 139.012C65.5533 139.002 65.6279 138.996 65.7026 138.996C65.8199 138.986 65.8999 139.012 65.9426 139.076C65.9959 139.14 66.0226 139.268 66.0226 139.46C66.0226 139.652 65.9799 139.796 65.8946 139.892C65.8093 139.988 65.6706 140.052 65.4786 140.084C65.3933 140.095 65.3026 140.106 65.2066 140.116C65.1106 140.127 65.0199 140.132 64.9346 140.132Z" fill="#1A1A1A"/>
<path d="M205.816 102.988L137.814 102.988C129.699 102.988 122.983 96.2712 122.983 88.1553L122.983 20.9891C122.983 12.8732 129.699 6.15659 137.814 6.15659L205.816 6.15659C213.932 6.15659 220.648 12.8732 220.648 20.9891L220.648 88.1553C220.928 96.2712 214.211 102.988 205.816 102.988Z" fill="#E30613"/>
<path d="M159.691 140.1C159.478 140.1 159.313 140.041 159.195 139.924C159.089 139.806 159.035 139.641 159.035 139.428V132.756C159.035 132.542 159.089 132.382 159.195 132.276C159.302 132.158 159.457 132.1 159.659 132.1C159.862 132.1 160.017 132.158 160.123 132.276C160.241 132.382 160.299 132.542 160.299 132.756V134.052H160.139C160.31 133.422 160.635 132.937 161.115 132.596C161.595 132.254 162.187 132.073 162.891 132.052C163.051 132.041 163.179 132.078 163.275 132.164C163.371 132.238 163.425 132.372 163.435 132.564C163.446 132.745 163.403 132.889 163.307 132.996C163.211 133.102 163.062 133.166 162.859 133.188L162.603 133.22C161.878 133.284 161.318 133.518 160.923 133.924C160.539 134.318 160.347 134.862 160.347 135.556V139.428C160.347 139.641 160.289 139.806 160.171 139.924C160.065 140.041 159.905 140.1 159.691 140.1ZM167.908 140.132C167.151 140.132 166.495 139.966 165.94 139.636C165.385 139.305 164.953 138.841 164.644 138.244C164.345 137.636 164.196 136.921 164.196 136.1C164.196 135.481 164.281 134.926 164.452 134.436C164.623 133.934 164.873 133.508 165.204 133.156C165.535 132.804 165.924 132.537 166.372 132.356C166.831 132.164 167.343 132.068 167.908 132.068C168.665 132.068 169.321 132.233 169.876 132.564C170.431 132.894 170.857 133.364 171.156 133.972C171.465 134.569 171.62 135.278 171.62 136.1C171.62 136.718 171.535 137.273 171.364 137.764C171.193 138.254 170.943 138.681 170.612 139.044C170.281 139.396 169.887 139.668 169.428 139.86C168.98 140.041 168.473 140.132 167.908 140.132ZM167.908 139.092C168.388 139.092 168.809 138.974 169.172 138.74C169.535 138.505 169.812 138.164 170.004 137.716C170.207 137.268 170.308 136.729 170.308 136.1C170.308 135.129 170.089 134.388 169.652 133.876C169.225 133.364 168.644 133.108 167.908 133.108C167.417 133.108 166.991 133.225 166.628 133.46C166.276 133.684 165.999 134.02 165.796 134.468C165.604 134.905 165.508 135.449 165.508 136.1C165.508 137.06 165.727 137.801 166.164 138.324C166.601 138.836 167.183 139.092 167.908 139.092ZM172.079 143.044C171.919 143.054 171.791 143.028 171.695 142.964C171.588 142.9 171.519 142.814 171.487 142.708C171.444 142.612 171.433 142.51 171.455 142.404C171.465 142.308 171.508 142.222 171.583 142.148C171.657 142.073 171.759 142.036 171.887 142.036C172.473 142.004 172.905 141.844 173.183 141.556C173.471 141.278 173.615 140.836 173.615 140.228V132.756C173.615 132.542 173.668 132.382 173.775 132.276C173.892 132.158 174.057 132.1 174.271 132.1C174.473 132.1 174.628 132.158 174.735 132.276C174.852 132.382 174.911 132.542 174.911 132.756V140.132C174.911 140.782 174.799 141.316 174.575 141.732C174.361 142.158 174.047 142.473 173.631 142.676C173.215 142.889 172.697 143.012 172.079 143.044ZM174.255 130.34C173.988 130.34 173.78 130.27 173.631 130.132C173.481 129.982 173.407 129.785 173.407 129.54C173.407 129.284 173.481 129.092 173.631 128.964C173.78 128.825 173.988 128.756 174.255 128.756C174.532 128.756 174.745 128.825 174.895 128.964C175.044 129.092 175.119 129.284 175.119 129.54C175.119 129.785 175.044 129.982 174.895 130.132C174.745 130.27 174.532 130.34 174.255 130.34ZM180.58 140.132C179.823 140.132 179.167 139.966 178.612 139.636C178.057 139.305 177.625 138.841 177.316 138.244C177.017 137.636 176.868 136.921 176.868 136.1C176.868 135.481 176.953 134.926 177.124 134.436C177.295 133.934 177.545 133.508 177.876 133.156C178.207 132.804 178.596 132.537 179.044 132.356C179.503 132.164 180.015 132.068 180.58 132.068C181.337 132.068 181.993 132.233 182.548 132.564C183.103 132.894 183.529 133.364 183.828 133.972C184.137 134.569 184.292 135.278 184.292 136.1C184.292 136.718 184.207 137.273 184.036 137.764C183.865 138.254 183.615 138.681 183.284 139.044C182.953 139.396 182.559 139.668 182.1 139.86C181.652 140.041 181.145 140.132 180.58 140.132ZM180.58 139.092C181.06 139.092 181.481 138.974 181.844 138.74C182.207 138.505 182.484 138.164 182.676 137.716C182.879 137.268 182.98 136.729 182.98 136.1C182.98 135.129 182.761 134.388 182.324 133.876C181.897 133.364 181.316 133.108 180.58 133.108C180.089 133.108 179.663 133.225 179.3 133.46C178.948 133.684 178.671 134.02 178.468 134.468C178.276 134.905 178.18 135.449 178.18 136.1C178.18 137.06 178.399 137.801 178.836 138.324C179.273 138.836 179.855 139.092 180.58 139.092Z" fill="#1A1A1A"/>
<path d="M335.248 102.988L245.698 102.988C241.78 102.988 239.541 98.7904 241.22 95.4321L285.995 9.79528C287.954 6.15711 292.991 6.15711 294.95 9.79528L339.725 95.4321C341.684 98.7904 339.165 102.988 335.248 102.988Z" fill="#FFED00"/>
<path d="M264.694 140.132C264.161 140.132 263.681 140.031 263.254 139.828C262.838 139.615 262.508 139.327 262.262 138.964C262.017 138.602 261.894 138.196 261.894 137.748C261.894 137.172 262.038 136.719 262.326 136.388C262.625 136.058 263.11 135.823 263.782 135.684C264.465 135.546 265.393 135.476 266.566 135.476H267.286V136.324H266.582C265.718 136.324 265.036 136.367 264.534 136.452C264.044 136.527 263.697 136.66 263.494 136.852C263.302 137.044 263.206 137.316 263.206 137.668C263.206 138.106 263.356 138.463 263.654 138.74C263.964 139.018 264.38 139.156 264.902 139.156C265.329 139.156 265.702 139.055 266.022 138.852C266.353 138.65 266.609 138.372 266.79 138.02C266.982 137.668 267.078 137.263 267.078 136.804V134.98C267.078 134.319 266.945 133.844 266.678 133.556C266.412 133.258 265.974 133.108 265.366 133.108C264.993 133.108 264.62 133.156 264.246 133.252C263.873 133.348 263.478 133.503 263.062 133.716C262.913 133.791 262.785 133.818 262.678 133.796C262.572 133.764 262.486 133.706 262.422 133.62C262.358 133.535 262.321 133.439 262.31 133.332C262.3 133.215 262.321 133.103 262.374 132.996C262.438 132.89 262.534 132.804 262.662 132.74C263.132 132.506 263.596 132.335 264.054 132.228C264.513 132.122 264.95 132.068 265.366 132.068C266.038 132.068 266.593 132.18 267.03 132.404C267.468 132.618 267.793 132.948 268.006 133.396C268.22 133.834 268.326 134.399 268.326 135.092V139.428C268.326 139.642 268.273 139.807 268.166 139.924C268.07 140.042 267.926 140.1 267.734 140.1C267.532 140.1 267.377 140.042 267.27 139.924C267.164 139.807 267.11 139.642 267.11 139.428V138.18H267.254C267.169 138.586 267.004 138.932 266.758 139.22C266.524 139.508 266.23 139.732 265.878 139.892C265.526 140.052 265.132 140.132 264.694 140.132ZM271.403 140.1C271.189 140.1 271.029 140.042 270.923 139.924C270.816 139.807 270.763 139.642 270.763 139.428V132.756C270.763 132.543 270.816 132.383 270.923 132.276C271.029 132.159 271.184 132.1 271.387 132.1C271.589 132.1 271.744 132.159 271.851 132.276C271.968 132.383 272.027 132.543 272.027 132.756V134.164L271.851 133.94C272.053 133.343 272.379 132.884 272.827 132.564C273.285 132.234 273.829 132.068 274.459 132.068C275.12 132.068 275.653 132.228 276.059 132.548C276.475 132.858 276.752 133.343 276.891 134.004H276.651C276.843 133.407 277.184 132.938 277.675 132.596C278.176 132.244 278.757 132.068 279.419 132.068C280.005 132.068 280.485 132.18 280.859 132.404C281.243 132.628 281.531 132.97 281.723 133.428C281.915 133.876 282.011 134.447 282.011 135.14V139.428C282.011 139.642 281.952 139.807 281.835 139.924C281.728 140.042 281.568 140.1 281.355 140.1C281.152 140.1 280.992 140.042 280.875 139.924C280.768 139.807 280.715 139.642 280.715 139.428V135.204C280.715 134.49 280.592 133.967 280.347 133.636C280.101 133.295 279.685 133.124 279.099 133.124C278.459 133.124 277.952 133.348 277.579 133.796C277.216 134.234 277.035 134.831 277.035 135.588V139.428C277.035 139.642 276.976 139.807 276.859 139.924C276.752 140.042 276.592 140.1 276.379 140.1C276.176 140.1 276.016 140.042 275.899 139.924C275.792 139.807 275.739 139.642 275.739 139.428V135.204C275.739 134.49 275.611 133.967 275.355 133.636C275.109 133.295 274.699 133.124 274.123 133.124C273.483 133.124 272.976 133.348 272.603 133.796C272.24 134.234 272.059 134.831 272.059 135.588V139.428C272.059 139.876 271.84 140.1 271.403 140.1ZM286.882 140.132C286.348 140.132 285.868 140.031 285.442 139.828C285.026 139.615 284.695 139.327 284.45 138.964C284.204 138.602 284.082 138.196 284.082 137.748C284.082 137.172 284.226 136.719 284.514 136.388C284.812 136.058 285.298 135.823 285.97 135.684C286.652 135.546 287.58 135.476 288.754 135.476H289.474V136.324H288.77C287.906 136.324 287.223 136.367 286.722 136.452C286.231 136.527 285.884 136.66 285.682 136.852C285.49 137.044 285.394 137.316 285.394 137.668C285.394 138.106 285.543 138.463 285.842 138.74C286.151 139.018 286.567 139.156 287.09 139.156C287.516 139.156 287.89 139.055 288.21 138.852C288.54 138.65 288.796 138.372 288.978 138.02C289.17 137.668 289.266 137.263 289.266 136.804V134.98C289.266 134.319 289.132 133.844 288.866 133.556C288.599 133.258 288.162 133.108 287.554 133.108C287.18 133.108 286.807 133.156 286.434 133.252C286.06 133.348 285.666 133.503 285.25 133.716C285.1 133.791 284.972 133.818 284.866 133.796C284.759 133.764 284.674 133.706 284.61 133.62C284.546 133.535 284.508 133.439 284.498 133.332C284.487 133.215 284.508 133.103 284.562 132.996C284.626 132.89 284.722 132.804 284.85 132.74C285.319 132.506 285.783 132.335 286.242 132.228C286.7 132.122 287.138 132.068 287.554 132.068C288.226 132.068 288.78 132.18 289.218 132.404C289.655 132.618 289.98 132.948 290.194 133.396C290.407 133.834 290.514 134.399 290.514 135.092V139.428C290.514 139.642 290.46 139.807 290.354 139.924C290.258 140.042 290.114 140.1 289.922 140.1C289.719 140.1 289.564 140.042 289.458 139.924C289.351 139.807 289.298 139.642 289.298 139.428V138.18H289.442C289.356 138.586 289.191 138.932 288.946 139.22C288.711 139.508 288.418 139.732 288.066 139.892C287.714 140.052 287.319 140.132 286.882 140.132ZM293.574 140.1C293.361 140.1 293.195 140.042 293.078 139.924C292.971 139.807 292.918 139.642 292.918 139.428V132.756C292.918 132.543 292.971 132.383 293.078 132.276C293.185 132.159 293.339 132.1 293.542 132.1C293.745 132.1 293.899 132.159 294.006 132.276C294.123 132.383 294.182 132.543 294.182 132.756V134.052H294.022C294.193 133.423 294.518 132.938 294.998 132.596C295.478 132.255 296.07 132.074 296.774 132.052C296.934 132.042 297.062 132.079 297.158 132.164C297.254 132.239 297.307 132.372 297.318 132.564C297.329 132.746 297.286 132.89 297.19 132.996C297.094 133.103 296.945 133.167 296.742 133.188L296.486 133.22C295.761 133.284 295.201 133.519 294.806 133.924C294.422 134.319 294.23 134.863 294.23 135.556V139.428C294.23 139.642 294.171 139.807 294.054 139.924C293.947 140.042 293.787 140.1 293.574 140.1ZM299.293 140.068C299.079 140.068 298.919 140.01 298.813 139.892C298.706 139.764 298.653 139.588 298.653 139.364V132.82C298.653 132.596 298.706 132.426 298.813 132.308C298.919 132.191 299.079 132.132 299.293 132.132C299.495 132.132 299.655 132.191 299.773 132.308C299.89 132.426 299.949 132.596 299.949 132.82V139.364C299.949 139.588 299.89 139.764 299.773 139.892C299.666 140.01 299.506 140.068 299.293 140.068ZM299.293 130.34C299.026 130.34 298.818 130.271 298.669 130.132C298.519 129.983 298.445 129.786 298.445 129.54C298.445 129.284 298.519 129.092 298.669 128.964C298.818 128.826 299.026 128.756 299.293 128.756C299.57 128.756 299.778 128.826 299.917 128.964C300.066 129.092 300.141 129.284 300.141 129.54C300.141 129.786 300.066 129.983 299.917 130.132C299.778 130.271 299.57 130.34 299.293 130.34ZM304.739 140.132C303.971 140.132 303.385 139.898 302.979 139.428C302.574 138.959 302.371 138.287 302.371 137.412V129.252C302.371 129.039 302.425 128.879 302.531 128.772C302.638 128.655 302.798 128.596 303.011 128.596C303.214 128.596 303.374 128.655 303.491 128.772C303.609 128.879 303.667 129.039 303.667 129.252V137.316C303.667 137.892 303.779 138.324 304.003 138.612C304.238 138.89 304.579 139.028 305.027 139.028C305.123 139.028 305.209 139.023 305.283 139.012C305.358 139.002 305.433 138.996 305.507 138.996C305.625 138.986 305.705 139.012 305.747 139.076C305.801 139.14 305.827 139.268 305.827 139.46C305.827 139.652 305.785 139.796 305.699 139.892C305.614 139.988 305.475 140.052 305.283 140.084C305.198 140.095 305.107 140.106 305.011 140.116C304.915 140.127 304.825 140.132 304.739 140.132ZM309.474 140.132C308.706 140.132 308.119 139.898 307.714 139.428C307.308 138.959 307.106 138.287 307.106 137.412V129.252C307.106 129.039 307.159 128.879 307.266 128.772C307.372 128.655 307.532 128.596 307.746 128.596C307.948 128.596 308.108 128.655 308.226 128.772C308.343 128.879 308.402 129.039 308.402 129.252V137.316C308.402 137.892 308.514 138.324 308.738 138.612C308.972 138.89 309.314 139.028 309.762 139.028C309.858 139.028 309.943 139.023 310.018 139.012C310.092 139.002 310.167 138.996 310.242 138.996C310.359 138.986 310.439 139.012 310.482 139.076C310.535 139.14 310.562 139.268 310.562 139.46C310.562 139.652 310.519 139.796 310.434 139.892C310.348 139.988 310.21 140.052 310.018 140.084C309.932 140.095 309.842 140.106 309.746 140.116C309.65 140.127 309.559 140.132 309.474 140.132ZM314.994 140.132C314.237 140.132 313.581 139.967 313.026 139.636C312.471 139.306 312.039 138.842 311.73 138.244C311.431 137.636 311.282 136.922 311.282 136.1C311.282 135.482 311.367 134.927 311.538 134.436C311.709 133.935 311.959 133.508 312.29 133.156C312.621 132.804 313.01 132.538 313.458 132.356C313.917 132.164 314.429 132.068 314.994 132.068C315.751 132.068 316.407 132.234 316.962 132.564C317.517 132.895 317.943 133.364 318.242 133.972C318.551 134.57 318.706 135.279 318.706 136.1C318.706 136.719 318.621 137.274 318.45 137.764C318.279 138.255 318.029 138.682 317.698 139.044C317.367 139.396 316.973 139.668 316.514 139.86C316.066 140.042 315.559 140.132 314.994 140.132ZM314.994 139.092C315.474 139.092 315.895 138.975 316.258 138.74C316.621 138.506 316.898 138.164 317.09 137.716C317.293 137.268 317.394 136.73 317.394 136.1C317.394 135.13 317.175 134.388 316.738 133.876C316.311 133.364 315.73 133.108 314.994 133.108C314.503 133.108 314.077 133.226 313.714 133.46C313.362 133.684 313.085 134.02 312.882 134.468C312.69 134.906 312.594 135.45 312.594 136.1C312.594 137.06 312.813 137.802 313.25 138.324C313.687 138.836 314.269 139.092 314.994 139.092Z" fill="#1A1A1A"/>
</svg>
