<svg width="375" height="526" viewBox="0 0 375 526" fill="none" xmlns="http://www.w3.org/2000/svg">
<path d="M118.089 58.2102C118.089 57.6505 117.901 57.0907 117.714 56.8109C117.526 56.531 116.964 56.531 116.588 56.531L112.087 56.2512C111.525 56.2512 110.962 55.9713 110.587 55.4116C110.212 54.8519 110.024 54.2922 110.024 53.4526C110.024 52.613 110.212 52.0532 110.587 51.4935C110.962 50.9338 111.525 50.654 112.087 50.654L116.776 50.3741C117.339 50.3741 117.526 50.0943 117.714 49.8144C117.901 49.5345 117.901 48.695 117.901 47.8554L117.901 42.5381C117.901 41.4186 118.089 40.2992 118.464 40.0193C118.839 39.7395 119.214 39.1798 119.777 39.1798C120.339 39.1798 120.902 39.4596 121.09 40.0193C121.277 40.5791 121.465 41.4186 121.652 42.5381L121.84 48.6949C121.84 49.5345 122.027 50.0943 122.215 50.3741C122.402 50.654 122.778 50.654 123.153 50.654L127.279 50.654C128.967 50.654 129.717 51.7734 129.717 53.7324C129.717 55.6914 128.967 56.8109 127.279 56.8109L123.34 56.8109C122.965 56.8109 122.59 57.0907 122.402 57.3706C122.215 57.6504 122.027 58.2102 122.027 59.0498L121.84 65.2066C121.84 66.3261 121.652 67.1656 121.277 67.7254C120.902 68.2851 120.527 68.5649 119.964 68.5649C119.402 68.5649 118.839 68.2851 118.652 67.7254C118.464 67.1656 118.089 66.3261 118.089 65.2066L118.089 58.2102Z" fill="#9D9D9C"/>
<path d="M118.089 249.634C118.089 249.074 117.901 248.515 117.714 248.235C117.526 247.955 116.964 247.955 116.588 247.955L112.087 247.675C111.525 247.675 110.962 247.395 110.587 246.835C110.212 246.276 110.024 245.716 110.024 244.876C110.024 244.037 110.212 243.477 110.587 242.917C110.962 242.358 111.525 242.078 112.087 242.078L116.776 241.798C117.339 241.798 117.526 241.518 117.714 241.238C117.901 240.958 117.901 240.119 117.901 239.279L117.901 233.962C117.901 232.842 118.089 231.723 118.464 231.443C118.839 231.163 119.214 230.604 119.777 230.604C120.339 230.604 120.902 230.883 121.09 231.443C121.277 232.003 121.465 232.842 121.652 233.962L121.84 240.119C121.84 240.958 122.027 241.518 122.215 241.798C122.402 242.078 122.778 242.078 123.153 242.078L127.279 242.078C128.967 242.078 129.717 243.197 129.717 245.156C129.717 247.115 128.967 248.235 127.279 248.235L123.34 248.235C122.965 248.235 122.59 248.515 122.402 248.794C122.215 249.074 122.027 249.634 122.027 250.474L121.84 256.63C121.84 257.75 121.652 258.59 121.277 259.149C120.902 259.709 120.527 259.989 119.964 259.989C119.402 259.989 118.839 259.709 118.652 259.149C118.464 258.59 118.089 257.75 118.089 256.63L118.089 249.634Z" fill="#9D9D9C"/>
<path d="M118.089 441.337C118.089 440.777 117.901 440.218 117.714 439.938C117.526 439.658 116.964 439.658 116.588 439.658L112.087 439.378C111.525 439.378 110.962 439.098 110.587 438.539C110.212 437.979 110.024 437.419 110.024 436.58C110.024 435.74 110.212 435.18 110.587 434.621C110.962 434.061 111.525 433.781 112.087 433.781L116.776 433.501C117.339 433.501 117.526 433.221 117.714 432.941C117.901 432.661 117.901 431.822 117.901 430.982L117.901 425.665C117.901 424.546 118.089 423.426 118.464 423.146C118.839 422.866 119.214 422.307 119.777 422.307C120.339 422.307 120.902 422.587 121.09 423.146C121.277 423.706 121.465 424.546 121.652 425.665L121.84 431.822C121.84 432.661 122.027 433.221 122.215 433.501C122.402 433.781 122.778 433.781 123.153 433.781L127.279 433.781C128.967 433.781 129.717 434.9 129.717 436.859C129.717 438.818 128.967 439.938 127.279 439.938L123.34 439.938C122.965 439.938 122.59 440.218 122.402 440.498C122.215 440.777 122.027 441.337 122.027 442.177L121.84 448.334C121.84 449.453 121.652 450.293 121.277 450.852C120.902 451.412 120.527 451.692 119.964 451.692C119.402 451.692 118.839 451.412 118.652 450.852C118.464 450.293 118.089 449.453 118.089 448.334L118.089 441.337Z" fill="#9D9D9C"/>
<path d="M250.31 64.3672C249.56 64.3672 248.997 64.0873 248.435 63.5276C247.872 62.9679 247.872 62.1283 247.872 61.2887C247.872 60.1693 248.06 59.3297 248.622 58.77C249.185 58.2103 249.748 57.9304 250.685 57.9304L264.751 58.2103C266.252 58.2103 267.002 59.0499 267.002 61.0089C267.002 62.688 266.252 63.8075 264.751 63.8075L250.31 64.3672ZM264.564 50.6541L250.31 50.934C248.81 50.934 248.06 50.0944 248.06 48.1354C248.06 47.2958 248.247 46.4562 248.622 45.8965C248.997 45.3368 249.56 45.0569 250.31 45.0569L264.564 45.3368C265.126 45.3368 265.689 45.6166 266.064 46.1764C266.439 46.7361 266.627 47.2958 266.627 48.1354C266.627 48.9749 266.439 49.8145 266.064 50.3742C265.689 50.934 265.126 50.6541 264.564 50.6541Z" fill="#9D9D9C"/>
<path d="M250.31 255.791C249.56 255.791 248.997 255.511 248.435 254.951C247.872 254.391 247.872 253.552 247.872 252.712C247.872 251.593 248.06 250.753 248.622 250.193C249.185 249.634 249.748 249.354 250.685 249.354L264.751 249.634C266.252 249.634 267.002 250.473 267.002 252.432C267.002 254.111 266.252 255.231 264.751 255.231L250.31 255.791ZM264.564 242.077L250.31 242.357C248.81 242.357 248.06 241.518 248.06 239.559C248.06 238.719 248.247 237.88 248.622 237.32C248.997 236.76 249.56 236.48 250.31 236.48L264.564 236.76C265.126 236.76 265.689 237.04 266.064 237.6C266.439 238.159 266.627 238.719 266.627 239.559C266.627 240.398 266.439 241.238 266.064 241.798C265.689 242.357 265.126 242.077 264.564 242.077Z" fill="#9D9D9C"/>
<path d="M250.31 447.494C249.56 447.494 248.997 447.214 248.435 446.655C247.872 446.095 247.872 445.255 247.872 444.416C247.872 443.296 248.06 442.457 248.622 441.897C249.185 441.337 249.748 441.057 250.685 441.057L264.751 441.337C266.252 441.337 267.002 442.177 267.002 444.136C267.002 445.815 266.252 446.934 264.751 446.934L250.31 447.494ZM264.564 433.781L250.31 434.061C248.81 434.061 248.06 433.221 248.06 431.262C248.06 430.423 248.247 429.583 248.622 429.023C248.997 428.464 249.56 428.184 250.31 428.184L264.564 428.464C265.126 428.464 265.689 428.744 266.064 429.303C266.439 429.863 266.627 430.423 266.627 431.262C266.627 432.102 266.439 432.941 266.064 433.501C265.689 434.061 265.126 433.781 264.564 433.781Z" fill="#9D9D9C"/>
<path d="M355.732 485.835L293.327 485.835C283.533 485.835 275.697 477.999 275.697 468.204L275.697 407.195C275.697 397.4 283.533 389.563 293.327 389.563L355.452 389.563C365.247 389.563 373.083 397.4 373.083 407.195L373.083 468.204C373.362 477.999 365.527 485.835 355.732 485.835Z" fill="#A94794"/>
<path d="M328.027 471.842C305.92 474.081 287.73 455.89 289.969 434.061C291.648 418.109 304.8 404.956 321.031 403.276C342.859 401.038 361.329 419.228 359.09 441.057C357.411 457.289 344.258 470.163 328.027 471.842ZM328.307 409.154C309.278 406.635 293.047 422.587 295.566 441.617C297.245 454.491 307.599 464.845 320.752 466.525C339.781 469.043 356.012 453.091 353.493 434.061C351.814 421.187 341.18 410.833 328.307 409.154Z" fill="white"/>
<path d="M297.75 517.827C297.536 517.827 297.376 517.768 297.27 517.651C297.163 517.544 297.11 517.384 297.11 517.171V507.603C297.11 507.39 297.163 507.23 297.27 507.123C297.376 507.006 297.531 506.947 297.734 506.947C297.947 506.947 298.107 507.006 298.214 507.123C298.331 507.23 298.39 507.39 298.39 507.603V509.123L298.214 508.899C298.384 508.291 298.72 507.811 299.222 507.459C299.734 507.096 300.342 506.915 301.046 506.915C301.739 506.915 302.342 507.08 302.854 507.411C303.376 507.731 303.776 508.195 304.054 508.803C304.342 509.4 304.486 510.115 304.486 510.947C304.486 511.768 304.342 512.483 304.054 513.091C303.776 513.688 303.382 514.152 302.87 514.483C302.358 514.814 301.75 514.979 301.046 514.979C300.342 514.979 299.739 514.803 299.238 514.451C298.736 514.088 298.395 513.608 298.214 513.011H298.406V517.171C298.406 517.384 298.347 517.544 298.23 517.651C298.112 517.768 297.952 517.827 297.75 517.827ZM300.774 513.939C301.264 513.939 301.686 513.822 302.038 513.587C302.4 513.352 302.678 513.011 302.87 512.563C303.072 512.115 303.174 511.576 303.174 510.947C303.174 509.976 302.955 509.235 302.518 508.723C302.091 508.211 301.51 507.955 300.774 507.955C300.294 507.955 299.872 508.072 299.51 508.307C299.147 508.531 298.864 508.867 298.662 509.315C298.47 509.752 298.374 510.296 298.374 510.947C298.374 511.907 298.592 512.648 299.03 513.171C299.467 513.683 300.048 513.939 300.774 513.939ZM309.19 514.979C308.56 514.979 308.038 514.867 307.622 514.643C307.216 514.408 306.907 514.062 306.694 513.603C306.491 513.144 306.39 512.574 306.39 511.891V507.603C306.39 507.379 306.443 507.214 306.55 507.107C306.667 507 306.827 506.947 307.03 506.947C307.243 506.947 307.403 507 307.51 507.107C307.627 507.214 307.686 507.379 307.686 507.603V511.875C307.686 512.558 307.824 513.07 308.102 513.411C308.39 513.742 308.838 513.907 309.446 513.907C310.107 513.907 310.646 513.683 311.062 513.235C311.478 512.787 311.686 512.2 311.686 511.475V507.603C311.686 507.379 311.739 507.214 311.846 507.107C311.963 507 312.128 506.947 312.342 506.947C312.544 506.947 312.699 507 312.806 507.107C312.923 507.214 312.982 507.379 312.982 507.603V514.275C312.982 514.723 312.774 514.947 312.358 514.947C312.155 514.947 311.995 514.888 311.878 514.771C311.771 514.654 311.718 514.488 311.718 514.275V512.819L311.926 513.043C311.712 513.672 311.36 514.152 310.87 514.483C310.39 514.814 309.83 514.979 309.19 514.979ZM310.246 505.923C310.171 506.03 310.08 506.094 309.974 506.115C309.867 506.126 309.766 506.11 309.67 506.067C309.574 506.014 309.504 505.939 309.462 505.843C309.419 505.747 309.43 505.635 309.494 505.507L310.838 502.899C310.912 502.75 311.008 502.654 311.126 502.611C311.243 502.568 311.36 502.563 311.478 502.595C311.606 502.616 311.712 502.67 311.798 502.755C311.883 502.84 311.931 502.942 311.942 503.059C311.963 503.176 311.931 503.299 311.846 503.427L310.246 505.923ZM316.062 514.947C315.849 514.947 315.684 514.888 315.566 514.771C315.46 514.654 315.406 514.488 315.406 514.275V507.603C315.406 507.39 315.46 507.23 315.566 507.123C315.673 507.006 315.828 506.947 316.03 506.947C316.233 506.947 316.388 507.006 316.494 507.123C316.612 507.23 316.67 507.39 316.67 507.603V508.899H316.51C316.681 508.27 317.006 507.784 317.486 507.443C317.966 507.102 318.558 506.92 319.262 506.899C319.422 506.888 319.55 506.926 319.646 507.011C319.742 507.086 319.796 507.219 319.806 507.411C319.817 507.592 319.774 507.736 319.678 507.843C319.582 507.95 319.433 508.014 319.23 508.035L318.974 508.067C318.249 508.131 317.689 508.366 317.294 508.771C316.91 509.166 316.718 509.71 316.718 510.403V514.275C316.718 514.488 316.66 514.654 316.542 514.771C316.436 514.888 316.276 514.947 316.062 514.947ZM321.781 517.827C321.567 517.827 321.407 517.768 321.301 517.651C321.194 517.544 321.141 517.384 321.141 517.171V507.603C321.141 507.39 321.194 507.23 321.301 507.123C321.407 507.006 321.562 506.947 321.765 506.947C321.978 506.947 322.138 507.006 322.245 507.123C322.362 507.23 322.421 507.39 322.421 507.603V509.123L322.245 508.899C322.415 508.291 322.751 507.811 323.253 507.459C323.765 507.096 324.373 506.915 325.077 506.915C325.77 506.915 326.373 507.08 326.885 507.411C327.407 507.731 327.807 508.195 328.085 508.803C328.373 509.4 328.517 510.115 328.517 510.947C328.517 511.768 328.373 512.483 328.085 513.091C327.807 513.688 327.413 514.152 326.901 514.483C326.389 514.814 325.781 514.979 325.077 514.979C324.373 514.979 323.77 514.803 323.269 514.451C322.767 514.088 322.426 513.608 322.245 513.011H322.437V517.171C322.437 517.384 322.378 517.544 322.261 517.651C322.143 517.768 321.983 517.827 321.781 517.827ZM324.805 513.939C325.295 513.939 325.717 513.822 326.069 513.587C326.431 513.352 326.709 513.011 326.901 512.563C327.103 512.115 327.205 511.576 327.205 510.947C327.205 509.976 326.986 509.235 326.549 508.723C326.122 508.211 325.541 507.955 324.805 507.955C324.325 507.955 323.903 508.072 323.541 508.307C323.178 508.531 322.895 508.867 322.693 509.315C322.501 509.752 322.405 510.296 322.405 510.947C322.405 511.907 322.623 512.648 323.061 513.171C323.498 513.683 324.079 513.939 324.805 513.939ZM333.221 514.979C332.592 514.979 332.069 514.867 331.653 514.643C331.248 514.408 330.938 514.062 330.725 513.603C330.522 513.144 330.421 512.574 330.421 511.891V507.603C330.421 507.379 330.474 507.214 330.581 507.107C330.698 507 330.858 506.947 331.061 506.947C331.274 506.947 331.434 507 331.541 507.107C331.658 507.214 331.717 507.379 331.717 507.603V511.875C331.717 512.558 331.856 513.07 332.133 513.411C332.421 513.742 332.869 513.907 333.477 513.907C334.138 513.907 334.677 513.683 335.093 513.235C335.509 512.787 335.717 512.2 335.717 511.475V507.603C335.717 507.379 335.77 507.214 335.877 507.107C335.994 507 336.16 506.947 336.373 506.947C336.576 506.947 336.73 507 336.837 507.107C336.954 507.214 337.013 507.379 337.013 507.603V514.275C337.013 514.723 336.805 514.947 336.389 514.947C336.186 514.947 336.026 514.888 335.909 514.771C335.802 514.654 335.749 514.488 335.749 514.275V512.819L335.957 513.043C335.744 513.672 335.392 514.152 334.901 514.483C334.421 514.814 333.861 514.979 333.221 514.979ZM340.094 514.947C339.88 514.947 339.715 514.888 339.598 514.771C339.491 514.654 339.438 514.488 339.438 514.275V507.603C339.438 507.39 339.491 507.23 339.598 507.123C339.704 507.006 339.859 506.947 340.062 506.947C340.264 506.947 340.419 507.006 340.526 507.123C340.643 507.23 340.702 507.39 340.702 507.603V508.899H340.542C340.712 508.27 341.038 507.784 341.518 507.443C341.998 507.102 342.59 506.92 343.294 506.899C343.454 506.888 343.582 506.926 343.678 507.011C343.774 507.086 343.827 507.219 343.838 507.411C343.848 507.592 343.806 507.736 343.71 507.843C343.614 507.95 343.464 508.014 343.262 508.035L343.006 508.067C342.28 508.131 341.72 508.366 341.326 508.771C340.942 509.166 340.75 509.71 340.75 510.403V514.275C340.75 514.488 340.691 514.654 340.574 514.771C340.467 514.888 340.307 514.947 340.094 514.947ZM347.542 514.979C347.009 514.979 346.529 514.878 346.102 514.675C345.686 514.462 345.355 514.174 345.11 513.811C344.865 513.448 344.742 513.043 344.742 512.595C344.742 512.019 344.886 511.566 345.174 511.235C345.473 510.904 345.958 510.67 346.63 510.531C347.313 510.392 348.241 510.323 349.414 510.323H350.134V511.171H349.43C348.566 511.171 347.883 511.214 347.382 511.299C346.891 511.374 346.545 511.507 346.342 511.699C346.15 511.891 346.054 512.163 346.054 512.515C346.054 512.952 346.203 513.31 346.502 513.587C346.811 513.864 347.227 514.003 347.75 514.003C348.177 514.003 348.55 513.902 348.87 513.699C349.201 513.496 349.457 513.219 349.638 512.867C349.83 512.515 349.926 512.11 349.926 511.651V509.827C349.926 509.166 349.793 508.691 349.526 508.403C349.259 508.104 348.822 507.955 348.214 507.955C347.841 507.955 347.467 508.003 347.094 508.099C346.721 508.195 346.326 508.35 345.91 508.563C345.761 508.638 345.633 508.664 345.526 508.643C345.419 508.611 345.334 508.552 345.27 508.467C345.206 508.382 345.169 508.286 345.158 508.179C345.147 508.062 345.169 507.95 345.222 507.843C345.286 507.736 345.382 507.651 345.51 507.587C345.979 507.352 346.443 507.182 346.902 507.075C347.361 506.968 347.798 506.915 348.214 506.915C348.886 506.915 349.441 507.027 349.878 507.251C350.315 507.464 350.641 507.795 350.854 508.243C351.067 508.68 351.174 509.246 351.174 509.939V514.275C351.174 514.488 351.121 514.654 351.014 514.771C350.918 514.888 350.774 514.947 350.582 514.947C350.379 514.947 350.225 514.888 350.118 514.771C350.011 514.654 349.958 514.488 349.958 514.275V513.027H350.102C350.017 513.432 349.851 513.779 349.606 514.067C349.371 514.355 349.078 514.579 348.726 514.739C348.374 514.899 347.979 514.979 347.542 514.979Z" fill="#1A1A1A"/>
<path d="M191.983 386.205C163.545 386.205 140.491 409.26 140.491 437.699C140.491 466.139 163.545 489.193 191.982 489.193C220.42 489.193 243.474 466.139 243.474 437.699C243.474 409.26 220.42 386.205 191.983 386.205Z" fill="#009FE3"/>
<path d="M180.646 518.337C180.113 518.337 179.633 518.236 179.206 518.033C178.79 517.82 178.46 517.532 178.214 517.169C177.969 516.807 177.846 516.401 177.846 515.953C177.846 515.377 177.99 514.924 178.278 514.593C178.577 514.263 179.062 514.028 179.734 513.889C180.417 513.751 181.345 513.681 182.518 513.681H183.238V514.529H182.534C181.67 514.529 180.988 514.572 180.486 514.657C179.996 514.732 179.649 514.865 179.446 515.057C179.254 515.249 179.158 515.521 179.158 515.873C179.158 516.311 179.308 516.668 179.606 516.945C179.916 517.223 180.332 517.361 180.854 517.361C181.281 517.361 181.654 517.26 181.974 517.057C182.305 516.855 182.561 516.577 182.742 516.225C182.934 515.873 183.03 515.468 183.03 515.009V513.185C183.03 512.524 182.897 512.049 182.63 511.761C182.364 511.463 181.926 511.313 181.318 511.313C180.945 511.313 180.572 511.361 180.198 511.457C179.825 511.553 179.43 511.708 179.014 511.921C178.865 511.996 178.737 512.023 178.63 512.001C178.524 511.969 178.438 511.911 178.374 511.825C178.31 511.74 178.273 511.644 178.262 511.537C178.252 511.42 178.273 511.308 178.326 511.201C178.39 511.095 178.486 511.009 178.614 510.945C179.084 510.711 179.548 510.54 180.006 510.433C180.465 510.327 180.902 510.273 181.318 510.273C181.99 510.273 182.545 510.385 182.982 510.609C183.42 510.823 183.745 511.153 183.958 511.601C184.172 512.039 184.278 512.604 184.278 513.297V517.633C184.278 517.847 184.225 518.012 184.118 518.129C184.022 518.247 183.878 518.305 183.686 518.305C183.484 518.305 183.329 518.247 183.222 518.129C183.116 518.012 183.062 517.847 183.062 517.633V516.385H183.206C183.121 516.791 182.956 517.137 182.71 517.425C182.476 517.713 182.182 517.937 181.83 518.097C181.478 518.257 181.084 518.337 180.646 518.337ZM186.827 518.193C186.688 518.193 186.576 518.161 186.491 518.097C186.405 518.033 186.347 517.948 186.315 517.841C186.283 517.735 186.283 517.617 186.315 517.489C186.347 517.361 186.416 517.239 186.523 517.121L191.035 511.089V511.425H186.763C186.592 511.425 186.459 511.383 186.363 511.297C186.277 511.201 186.235 511.073 186.235 510.913C186.235 510.753 186.277 510.631 186.363 510.545C186.459 510.46 186.592 510.417 186.763 510.417H191.675C191.835 510.417 191.963 510.449 192.059 510.513C192.165 510.577 192.235 510.663 192.267 510.769C192.299 510.865 192.299 510.977 192.267 511.105C192.245 511.223 192.187 511.34 192.091 511.457L187.499 517.553V517.185H191.995C192.347 517.185 192.523 517.351 192.523 517.681C192.523 517.841 192.475 517.969 192.379 518.065C192.293 518.151 192.165 518.193 191.995 518.193H186.827ZM196.841 518.337C196.212 518.337 195.689 518.225 195.273 518.001C194.868 517.767 194.558 517.42 194.345 516.961C194.142 516.503 194.041 515.932 194.041 515.249V510.961C194.041 510.737 194.094 510.572 194.201 510.465C194.318 510.359 194.478 510.305 194.681 510.305C194.894 510.305 195.054 510.359 195.161 510.465C195.278 510.572 195.337 510.737 195.337 510.961V515.233C195.337 515.916 195.476 516.428 195.753 516.769C196.041 517.1 196.489 517.265 197.097 517.265C197.758 517.265 198.297 517.041 198.713 516.593C199.129 516.145 199.337 515.559 199.337 514.833V510.961C199.337 510.737 199.39 510.572 199.497 510.465C199.614 510.359 199.78 510.305 199.993 510.305C200.196 510.305 200.35 510.359 200.457 510.465C200.574 510.572 200.633 510.737 200.633 510.961V517.633C200.633 518.081 200.425 518.305 200.009 518.305C199.806 518.305 199.646 518.247 199.529 518.129C199.422 518.012 199.369 517.847 199.369 517.633V516.177L199.577 516.401C199.364 517.031 199.012 517.511 198.521 517.841C198.041 518.172 197.481 518.337 196.841 518.337ZM205.426 518.337C204.658 518.337 204.071 518.103 203.666 517.633C203.26 517.164 203.058 516.492 203.058 515.617V507.457C203.058 507.244 203.111 507.084 203.218 506.977C203.324 506.86 203.484 506.801 203.698 506.801C203.9 506.801 204.06 506.86 204.178 506.977C204.295 507.084 204.354 507.244 204.354 507.457V515.521C204.354 516.097 204.466 516.529 204.69 516.817C204.924 517.095 205.266 517.233 205.714 517.233C205.81 517.233 205.895 517.228 205.97 517.217C206.044 517.207 206.119 517.201 206.194 517.201C206.311 517.191 206.391 517.217 206.434 517.281C206.487 517.345 206.514 517.473 206.514 517.665C206.514 517.857 206.471 518.001 206.386 518.097C206.3 518.193 206.162 518.257 205.97 518.289C205.884 518.3 205.794 518.311 205.698 518.321C205.602 518.332 205.511 518.337 205.426 518.337Z" fill="#1A1A1A"/>
<path d="M86.6279 486.115L15.8276 486.115C8.27188 486.115 2.39521 479.958 2.39521 472.682L2.39521 402.717C2.39521 395.161 8.55173 389.284 15.8277 389.284L86.6279 389.284C94.1837 389.284 100.061 395.44 100.061 402.717L100.061 472.682C100.061 480.238 93.9039 486.115 86.6279 486.115Z" fill="#E30613"/>
<path d="M39.1005 515.227C38.8872 515.227 38.7218 515.168 38.6045 515.051C38.4978 514.933 38.4445 514.768 38.4445 514.555V507.883C38.4445 507.669 38.4978 507.509 38.6045 507.403C38.7112 507.285 38.8658 507.227 39.0685 507.227C39.2712 507.227 39.4258 507.285 39.5325 507.403C39.6498 507.509 39.7085 507.669 39.7085 507.883V509.179H39.5485C39.7192 508.549 40.0445 508.064 40.5245 507.723C41.0045 507.381 41.5965 507.2 42.3005 507.179C42.4605 507.168 42.5885 507.205 42.6845 507.291C42.7805 507.365 42.8338 507.499 42.8445 507.691C42.8552 507.872 42.8125 508.016 42.7165 508.123C42.6205 508.229 42.4712 508.293 42.2685 508.315L42.0125 508.347C41.2872 508.411 40.7272 508.645 40.3325 509.051C39.9485 509.445 39.7565 509.989 39.7565 510.683V514.555C39.7565 514.768 39.6978 514.933 39.5805 515.051C39.4738 515.168 39.3138 515.227 39.1005 515.227ZM47.3171 515.259C46.5598 515.259 45.9038 515.093 45.3491 514.763C44.7945 514.432 44.3625 513.968 44.0531 513.371C43.7545 512.763 43.6051 512.048 43.6051 511.227C43.6051 510.608 43.6905 510.053 43.8611 509.563C44.0318 509.061 44.2825 508.635 44.6131 508.283C44.9438 507.931 45.3331 507.664 45.7811 507.483C46.2398 507.291 46.7518 507.195 47.3171 507.195C48.0745 507.195 48.7305 507.36 49.2851 507.691C49.8398 508.021 50.2665 508.491 50.5651 509.099C50.8745 509.696 51.0291 510.405 51.0291 511.227C51.0291 511.845 50.9438 512.4 50.7731 512.891C50.6025 513.381 50.3518 513.808 50.0211 514.171C49.6905 514.523 49.2958 514.795 48.8371 514.987C48.3891 515.168 47.8825 515.259 47.3171 515.259ZM47.3171 514.219C47.7971 514.219 48.2185 514.101 48.5811 513.867C48.9438 513.632 49.2211 513.291 49.4131 512.843C49.6158 512.395 49.7171 511.856 49.7171 511.227C49.7171 510.256 49.4985 509.515 49.0611 509.003C48.6345 508.491 48.0531 508.235 47.3171 508.235C46.8265 508.235 46.3998 508.352 46.0371 508.587C45.6851 508.811 45.4078 509.147 45.2051 509.595C45.0131 510.032 44.9171 510.576 44.9171 511.227C44.9171 512.187 45.1358 512.928 45.5731 513.451C46.0105 513.963 46.5918 514.219 47.3171 514.219ZM51.4878 518.171C51.3278 518.181 51.1998 518.155 51.1038 518.091C50.9971 518.027 50.9278 517.941 50.8958 517.835C50.8531 517.739 50.8424 517.637 50.8638 517.531C50.8744 517.435 50.9171 517.349 50.9918 517.275C51.0664 517.2 51.1678 517.163 51.2958 517.163C51.8824 517.131 52.3144 516.971 52.5918 516.683C52.8798 516.405 53.0238 515.963 53.0238 515.355V507.883C53.0238 507.669 53.0771 507.509 53.1838 507.403C53.3011 507.285 53.4664 507.227 53.6798 507.227C53.8824 507.227 54.0371 507.285 54.1438 507.403C54.2611 507.509 54.3198 507.669 54.3198 507.883V515.259C54.3198 515.909 54.2078 516.443 53.9838 516.859C53.7704 517.285 53.4558 517.6 53.0398 517.803C52.6238 518.016 52.1064 518.139 51.4878 518.171ZM53.6638 505.467C53.3971 505.467 53.1891 505.397 53.0398 505.259C52.8904 505.109 52.8158 504.912 52.8158 504.667C52.8158 504.411 52.8904 504.219 53.0398 504.091C53.1891 503.952 53.3971 503.883 53.6638 503.883C53.9411 503.883 54.1544 503.952 54.3038 504.091C54.4531 504.219 54.5278 504.411 54.5278 504.667C54.5278 504.912 54.4531 505.109 54.3038 505.259C54.1544 505.397 53.9411 505.467 53.6638 505.467ZM59.989 515.259C59.2317 515.259 58.5757 515.093 58.021 514.763C57.4663 514.432 57.0343 513.968 56.725 513.371C56.4263 512.763 56.277 512.048 56.277 511.227C56.277 510.608 56.3623 510.053 56.533 509.563C56.7037 509.061 56.9543 508.635 57.285 508.283C57.6157 507.931 58.005 507.664 58.453 507.483C58.9117 507.291 59.4237 507.195 59.989 507.195C60.7463 507.195 61.4023 507.36 61.957 507.691C62.5117 508.021 62.9383 508.491 63.237 509.099C63.5463 509.696 63.701 510.405 63.701 511.227C63.701 511.845 63.6157 512.4 63.445 512.891C63.2743 513.381 63.0237 513.808 62.693 514.171C62.3623 514.523 61.9677 514.795 61.509 514.987C61.061 515.168 60.5543 515.259 59.989 515.259ZM59.989 514.219C60.469 514.219 60.8903 514.101 61.253 513.867C61.6157 513.632 61.893 513.291 62.085 512.843C62.2877 512.395 62.389 511.856 62.389 511.227C62.389 510.256 62.1703 509.515 61.733 509.003C61.3063 508.491 60.725 508.235 59.989 508.235C59.4983 508.235 59.0717 508.352 58.709 508.587C58.357 508.811 58.0797 509.147 57.877 509.595C57.685 510.032 57.589 510.576 57.589 511.227C57.589 512.187 57.8077 512.928 58.245 513.451C58.6823 513.963 59.2637 514.219 59.989 514.219Z" fill="#1A1A1A"/>
<path d="M361.882 293.572L283.526 293.572C277.369 293.572 272.612 288.534 272.612 282.657L272.612 205.976C272.612 199.819 277.649 195.061 283.526 195.061L361.882 195.061C368.039 195.061 372.796 200.099 372.796 205.976L372.796 282.657C372.796 288.534 368.039 293.572 361.882 293.572Z" fill="#F3911C"/>
<path d="M354.327 277.34L291.922 277.34C288.284 277.34 286.045 273.422 287.724 270.343L319.066 211.013C320.745 207.655 325.783 207.655 327.462 211.013L358.524 270.343C360.203 273.422 357.965 277.34 354.327 277.34ZM302.556 270.903L343.693 270.903C347.331 270.903 349.569 266.985 347.89 263.907L327.462 225.006C325.783 221.648 320.745 221.648 319.066 225.006L298.638 263.907C296.679 266.985 298.918 270.903 302.556 270.903Z" fill="white"/>
<path d="M297.56 322.684C297.347 322.684 297.187 322.625 297.08 322.508C296.973 322.39 296.92 322.225 296.92 322.012V315.34C296.92 315.126 296.973 314.966 297.08 314.86C297.187 314.742 297.341 314.684 297.544 314.684C297.747 314.684 297.901 314.742 298.008 314.86C298.125 314.966 298.184 315.126 298.184 315.34V316.716L298.008 316.524C298.232 315.905 298.595 315.441 299.096 315.132C299.608 314.812 300.195 314.652 300.856 314.652C301.475 314.652 301.987 314.764 302.392 314.988C302.808 315.212 303.117 315.553 303.32 316.012C303.523 316.46 303.624 317.03 303.624 317.724V322.012C303.624 322.225 303.565 322.39 303.448 322.508C303.341 322.625 303.187 322.684 302.984 322.684C302.771 322.684 302.605 322.625 302.488 322.508C302.381 322.39 302.328 322.225 302.328 322.012V317.804C302.328 317.078 302.184 316.55 301.896 316.22C301.619 315.878 301.171 315.708 300.552 315.708C299.837 315.708 299.267 315.932 298.84 316.38C298.424 316.817 298.216 317.404 298.216 318.14V322.012C298.216 322.46 297.997 322.684 297.56 322.684ZM308.462 322.716C307.929 322.716 307.449 322.614 307.022 322.412C306.606 322.198 306.275 321.91 306.03 321.548C305.785 321.185 305.662 320.78 305.662 320.332C305.662 319.756 305.806 319.302 306.094 318.972C306.393 318.641 306.878 318.406 307.55 318.268C308.233 318.129 309.161 318.06 310.334 318.06H311.054V318.908H310.35C309.486 318.908 308.803 318.95 308.302 319.036C307.811 319.11 307.465 319.244 307.262 319.436C307.07 319.628 306.974 319.9 306.974 320.252C306.974 320.689 307.123 321.046 307.422 321.324C307.731 321.601 308.147 321.74 308.67 321.74C309.097 321.74 309.47 321.638 309.79 321.436C310.121 321.233 310.377 320.956 310.558 320.604C310.75 320.252 310.846 319.846 310.846 319.388V317.564C310.846 316.902 310.713 316.428 310.446 316.14C310.179 315.841 309.742 315.692 309.134 315.692C308.761 315.692 308.387 315.74 308.014 315.836C307.641 315.932 307.246 316.086 306.83 316.3C306.681 316.374 306.553 316.401 306.446 316.38C306.339 316.348 306.254 316.289 306.19 316.204C306.126 316.118 306.089 316.022 306.078 315.916C306.067 315.798 306.089 315.686 306.142 315.58C306.206 315.473 306.302 315.388 306.43 315.324C306.899 315.089 307.363 314.918 307.822 314.812C308.281 314.705 308.718 314.652 309.134 314.652C309.806 314.652 310.361 314.764 310.798 314.988C311.235 315.201 311.561 315.532 311.774 315.98C311.987 316.417 312.094 316.982 312.094 317.676V322.012C312.094 322.225 312.041 322.39 311.934 322.508C311.838 322.625 311.694 322.684 311.502 322.684C311.299 322.684 311.145 322.625 311.038 322.508C310.931 322.39 310.878 322.225 310.878 322.012V320.764H311.022C310.937 321.169 310.771 321.516 310.526 321.804C310.291 322.092 309.998 322.316 309.646 322.476C309.294 322.636 308.899 322.716 308.462 322.716ZM315.154 322.684C314.941 322.684 314.776 322.625 314.658 322.508C314.552 322.39 314.498 322.225 314.498 322.012V315.34C314.498 315.126 314.552 314.966 314.658 314.86C314.765 314.742 314.92 314.684 315.122 314.684C315.325 314.684 315.48 314.742 315.586 314.86C315.704 314.966 315.762 315.126 315.762 315.34V316.636H315.602C315.773 316.006 316.098 315.521 316.578 315.18C317.058 314.838 317.65 314.657 318.354 314.636C318.514 314.625 318.642 314.662 318.738 314.748C318.834 314.822 318.888 314.956 318.898 315.148C318.909 315.329 318.866 315.473 318.77 315.58C318.674 315.686 318.525 315.75 318.322 315.772L318.066 315.804C317.341 315.868 316.781 316.102 316.386 316.508C316.002 316.902 315.81 317.446 315.81 318.14V322.012C315.81 322.225 315.752 322.39 315.634 322.508C315.528 322.625 315.368 322.684 315.154 322.684ZM322.602 322.716C322.069 322.716 321.589 322.614 321.162 322.412C320.746 322.198 320.416 321.91 320.17 321.548C319.925 321.185 319.802 320.78 319.802 320.332C319.802 319.756 319.946 319.302 320.234 318.972C320.533 318.641 321.018 318.406 321.69 318.268C322.373 318.129 323.301 318.06 324.474 318.06H325.194V318.908H324.49C323.626 318.908 322.944 318.95 322.442 319.036C321.952 319.11 321.605 319.244 321.402 319.436C321.21 319.628 321.114 319.9 321.114 320.252C321.114 320.689 321.264 321.046 321.562 321.324C321.872 321.601 322.288 321.74 322.81 321.74C323.237 321.74 323.61 321.638 323.93 321.436C324.261 321.233 324.517 320.956 324.698 320.604C324.89 320.252 324.986 319.846 324.986 319.388V317.564C324.986 316.902 324.853 316.428 324.586 316.14C324.32 315.841 323.882 315.692 323.274 315.692C322.901 315.692 322.528 315.74 322.154 315.836C321.781 315.932 321.386 316.086 320.97 316.3C320.821 316.374 320.693 316.401 320.586 316.38C320.48 316.348 320.394 316.289 320.33 316.204C320.266 316.118 320.229 316.022 320.218 315.916C320.208 315.798 320.229 315.686 320.282 315.58C320.346 315.473 320.442 315.388 320.57 315.324C321.04 315.089 321.504 314.918 321.962 314.812C322.421 314.705 322.858 314.652 323.274 314.652C323.946 314.652 324.501 314.764 324.938 314.988C325.376 315.201 325.701 315.532 325.914 315.98C326.128 316.417 326.234 316.982 326.234 317.676V322.012C326.234 322.225 326.181 322.39 326.074 322.508C325.978 322.625 325.834 322.684 325.642 322.684C325.44 322.684 325.285 322.625 325.178 322.508C325.072 322.39 325.018 322.225 325.018 322.012V320.764H325.162C325.077 321.169 324.912 321.516 324.666 321.804C324.432 322.092 324.138 322.316 323.786 322.476C323.434 322.636 323.04 322.716 322.602 322.716ZM329.279 322.684C329.066 322.684 328.906 322.625 328.799 322.508C328.692 322.39 328.639 322.225 328.639 322.012V315.34C328.639 315.126 328.692 314.966 328.799 314.86C328.906 314.742 329.06 314.684 329.263 314.684C329.466 314.684 329.62 314.742 329.727 314.86C329.844 314.966 329.903 315.126 329.903 315.34V316.716L329.727 316.524C329.951 315.905 330.314 315.441 330.815 315.132C331.327 314.812 331.914 314.652 332.575 314.652C333.194 314.652 333.706 314.764 334.111 314.988C334.527 315.212 334.836 315.553 335.039 316.012C335.242 316.46 335.343 317.03 335.343 317.724V322.012C335.343 322.225 335.284 322.39 335.167 322.508C335.06 322.625 334.906 322.684 334.703 322.684C334.49 322.684 334.324 322.625 334.207 322.508C334.1 322.39 334.047 322.225 334.047 322.012V317.804C334.047 317.078 333.903 316.55 333.615 316.22C333.338 315.878 332.89 315.708 332.271 315.708C331.556 315.708 330.986 315.932 330.559 316.38C330.143 316.817 329.935 317.404 329.935 318.14V322.012C329.935 322.46 329.716 322.684 329.279 322.684ZM336.245 325.628C336.085 325.638 335.957 325.612 335.861 325.548C335.754 325.484 335.685 325.398 335.653 325.292C335.61 325.196 335.599 325.094 335.621 324.988C335.631 324.892 335.674 324.806 335.749 324.732C335.823 324.657 335.925 324.62 336.053 324.62C336.639 324.588 337.071 324.428 337.349 324.14C337.637 323.862 337.781 323.42 337.781 322.812V315.34C337.781 315.126 337.834 314.966 337.941 314.86C338.058 314.742 338.223 314.684 338.437 314.684C338.639 314.684 338.794 314.742 338.901 314.86C339.018 314.966 339.077 315.126 339.077 315.34V322.716C339.077 323.366 338.965 323.9 338.741 324.316C338.527 324.742 338.213 325.057 337.797 325.26C337.381 325.473 336.863 325.596 336.245 325.628ZM338.421 312.924C338.154 312.924 337.946 312.854 337.797 312.716C337.647 312.566 337.573 312.369 337.573 312.124C337.573 311.868 337.647 311.676 337.797 311.548C337.946 311.409 338.154 311.34 338.421 311.34C338.698 311.34 338.911 311.409 339.061 311.548C339.21 311.676 339.285 311.868 339.285 312.124C339.285 312.369 339.21 312.566 339.061 312.716C338.911 312.854 338.698 312.924 338.421 312.924ZM343.962 322.716C343.429 322.716 342.949 322.614 342.522 322.412C342.106 322.198 341.775 321.91 341.53 321.548C341.285 321.185 341.162 320.78 341.162 320.332C341.162 319.756 341.306 319.302 341.594 318.972C341.893 318.641 342.378 318.406 343.05 318.268C343.733 318.129 344.661 318.06 345.834 318.06H346.554V318.908H345.85C344.986 318.908 344.303 318.95 343.802 319.036C343.311 319.11 342.965 319.244 342.762 319.436C342.57 319.628 342.474 319.9 342.474 320.252C342.474 320.689 342.623 321.046 342.922 321.324C343.231 321.601 343.647 321.74 344.17 321.74C344.597 321.74 344.97 321.638 345.29 321.436C345.621 321.233 345.877 320.956 346.058 320.604C346.25 320.252 346.346 319.846 346.346 319.388V317.564C346.346 316.902 346.213 316.428 345.946 316.14C345.679 315.841 345.242 315.692 344.634 315.692C344.261 315.692 343.887 315.74 343.514 315.836C343.141 315.932 342.746 316.086 342.33 316.3C342.181 316.374 342.053 316.401 341.946 316.38C341.839 316.348 341.754 316.289 341.69 316.204C341.626 316.118 341.589 316.022 341.578 315.916C341.567 315.798 341.589 315.686 341.642 315.58C341.706 315.473 341.802 315.388 341.93 315.324C342.399 315.089 342.863 314.918 343.322 314.812C343.781 314.705 344.218 314.652 344.634 314.652C345.306 314.652 345.861 314.764 346.298 314.988C346.735 315.201 347.061 315.532 347.274 315.98C347.487 316.417 347.594 316.982 347.594 317.676V322.012C347.594 322.225 347.541 322.39 347.434 322.508C347.338 322.625 347.194 322.684 347.002 322.684C346.799 322.684 346.645 322.625 346.538 322.508C346.431 322.39 346.378 322.225 346.378 322.012V320.764H346.522C346.437 321.169 346.271 321.516 346.026 321.804C345.791 322.092 345.498 322.316 345.146 322.476C344.794 322.636 344.399 322.716 343.962 322.716Z" fill="#1A1A1A"/>
<path d="M227.289 292.732L156.489 292.732C148.933 292.732 143.056 286.575 143.056 279.299L143.056 209.334C143.056 201.778 149.213 195.901 156.489 195.901L227.289 195.901C234.845 195.901 240.722 202.058 240.722 209.334L240.722 279.299C240.722 286.575 234.845 292.732 227.289 292.732Z" fill="#E30613"/>
<path d="M179.762 321.844C179.548 321.844 179.383 321.785 179.266 321.668C179.159 321.551 179.106 321.385 179.106 321.172V314.5C179.106 314.287 179.159 314.127 179.266 314.02C179.372 313.903 179.527 313.844 179.73 313.844C179.932 313.844 180.087 313.903 180.194 314.02C180.311 314.127 180.37 314.287 180.37 314.5V315.796H180.21C180.38 315.167 180.706 314.681 181.186 314.34C181.666 313.999 182.258 313.817 182.962 313.796C183.122 313.785 183.25 313.823 183.346 313.908C183.442 313.983 183.495 314.116 183.506 314.308C183.516 314.489 183.474 314.633 183.378 314.74C183.282 314.847 183.132 314.911 182.93 314.932L182.674 314.964C181.948 315.028 181.388 315.263 180.994 315.668C180.61 316.063 180.418 316.607 180.418 317.3V321.172C180.418 321.385 180.359 321.551 180.242 321.668C180.135 321.785 179.975 321.844 179.762 321.844ZM187.978 321.876C187.221 321.876 186.565 321.711 186.01 321.38C185.456 321.049 185.024 320.585 184.714 319.988C184.416 319.38 184.266 318.665 184.266 317.844C184.266 317.225 184.352 316.671 184.522 316.18C184.693 315.679 184.944 315.252 185.274 314.9C185.605 314.548 185.994 314.281 186.442 314.1C186.901 313.908 187.413 313.812 187.978 313.812C188.736 313.812 189.392 313.977 189.946 314.308C190.501 314.639 190.928 315.108 191.226 315.716C191.536 316.313 191.69 317.023 191.69 317.844C191.69 318.463 191.605 319.017 191.434 319.508C191.264 319.999 191.013 320.425 190.682 320.788C190.352 321.14 189.957 321.412 189.498 321.604C189.05 321.785 188.544 321.876 187.978 321.876ZM187.978 320.836C188.458 320.836 188.88 320.719 189.242 320.484C189.605 320.249 189.882 319.908 190.074 319.46C190.277 319.012 190.378 318.473 190.378 317.844C190.378 316.873 190.16 316.132 189.722 315.62C189.296 315.108 188.714 314.852 187.978 314.852C187.488 314.852 187.061 314.969 186.698 315.204C186.346 315.428 186.069 315.764 185.866 316.212C185.674 316.649 185.578 317.193 185.578 317.844C185.578 318.804 185.797 319.545 186.234 320.068C186.672 320.58 187.253 320.836 187.978 320.836ZM192.149 324.788C191.989 324.799 191.861 324.772 191.765 324.708C191.658 324.644 191.589 324.559 191.557 324.452C191.514 324.356 191.504 324.255 191.525 324.148C191.536 324.052 191.578 323.967 191.653 323.892C191.728 323.817 191.829 323.78 191.957 323.78C192.544 323.748 192.976 323.588 193.253 323.3C193.541 323.023 193.685 322.58 193.685 321.972V314.5C193.685 314.287 193.738 314.127 193.845 314.02C193.962 313.903 194.128 313.844 194.341 313.844C194.544 313.844 194.698 313.903 194.805 314.02C194.922 314.127 194.981 314.287 194.981 314.5V321.876C194.981 322.527 194.869 323.06 194.645 323.476C194.432 323.903 194.117 324.217 193.701 324.42C193.285 324.633 192.768 324.756 192.149 324.788ZM194.325 312.084C194.058 312.084 193.85 312.015 193.701 311.876C193.552 311.727 193.477 311.529 193.477 311.284C193.477 311.028 193.552 310.836 193.701 310.708C193.85 310.569 194.058 310.5 194.325 310.5C194.602 310.5 194.816 310.569 194.965 310.708C195.114 310.836 195.189 311.028 195.189 311.284C195.189 311.529 195.114 311.727 194.965 311.876C194.816 312.015 194.602 312.084 194.325 312.084ZM200.65 321.876C199.893 321.876 199.237 321.711 198.682 321.38C198.127 321.049 197.695 320.585 197.386 319.988C197.087 319.38 196.938 318.665 196.938 317.844C196.938 317.225 197.023 316.671 197.194 316.18C197.365 315.679 197.615 315.252 197.946 314.9C198.277 314.548 198.666 314.281 199.114 314.1C199.573 313.908 200.085 313.812 200.65 313.812C201.407 313.812 202.063 313.977 202.618 314.308C203.173 314.639 203.599 315.108 203.898 315.716C204.207 316.313 204.362 317.023 204.362 317.844C204.362 318.463 204.277 319.017 204.106 319.508C203.935 319.999 203.685 320.425 203.354 320.788C203.023 321.14 202.629 321.412 202.17 321.604C201.722 321.785 201.215 321.876 200.65 321.876ZM200.65 320.836C201.13 320.836 201.551 320.719 201.914 320.484C202.277 320.249 202.554 319.908 202.746 319.46C202.949 319.012 203.05 318.473 203.05 317.844C203.05 316.873 202.831 316.132 202.394 315.62C201.967 315.108 201.386 314.852 200.65 314.852C200.159 314.852 199.733 314.969 199.37 315.204C199.018 315.428 198.741 315.764 198.538 316.212C198.346 316.649 198.25 317.193 198.25 317.844C198.25 318.804 198.469 319.545 198.906 320.068C199.343 320.58 199.925 320.836 200.65 320.836Z" fill="#1A1A1A"/>
<path d="M96.1024 292.172L6.55254 292.172C2.63473 292.172 0.396057 287.974 2.07512 284.616L46.85 198.979C48.8089 195.341 53.846 195.341 55.8049 198.979L100.58 284.616C102.259 288.254 99.7403 292.172 96.1024 292.172Z" fill="#FFED00"/>
<path d="M25.4755 321.316C24.9422 321.316 24.4622 321.215 24.0355 321.012C23.6195 320.799 23.2889 320.511 23.0435 320.148C22.7982 319.785 22.6755 319.38 22.6755 318.932C22.6755 318.356 22.8195 317.903 23.1075 317.572C23.4062 317.241 23.8915 317.007 24.5635 316.868C25.2462 316.729 26.1742 316.66 27.3475 316.66H28.0675V317.508H27.3635C26.4995 317.508 25.8169 317.551 25.3155 317.636C24.8249 317.711 24.4782 317.844 24.2755 318.036C24.0835 318.228 23.9875 318.5 23.9875 318.852C23.9875 319.289 24.1369 319.647 24.4355 319.924C24.7449 320.201 25.1609 320.34 25.6835 320.34C26.1102 320.34 26.4835 320.239 26.8035 320.036C27.1342 319.833 27.3902 319.556 27.5715 319.204C27.7635 318.852 27.8595 318.447 27.8595 317.988V316.164C27.8595 315.503 27.7262 315.028 27.4595 314.74C27.1929 314.441 26.7555 314.292 26.1475 314.292C25.7742 314.292 25.4009 314.34 25.0275 314.436C24.6542 314.532 24.2595 314.687 23.8435 314.9C23.6942 314.975 23.5662 315.001 23.4595 314.98C23.3529 314.948 23.2675 314.889 23.2035 314.804C23.1395 314.719 23.1022 314.623 23.0915 314.516C23.0809 314.399 23.1022 314.287 23.1555 314.18C23.2195 314.073 23.3155 313.988 23.4435 313.924C23.9129 313.689 24.3769 313.519 24.8355 313.412C25.2942 313.305 25.7315 313.252 26.1475 313.252C26.8195 313.252 27.3742 313.364 27.8115 313.588C28.2489 313.801 28.5742 314.132 28.7875 314.58C29.0009 315.017 29.1075 315.583 29.1075 316.276V320.612C29.1075 320.825 29.0542 320.991 28.9475 321.108C28.8515 321.225 28.7075 321.284 28.5155 321.284C28.3129 321.284 28.1582 321.225 28.0515 321.108C27.9449 320.991 27.8915 320.825 27.8915 320.612V319.364H28.0355C27.9502 319.769 27.7849 320.116 27.5395 320.404C27.3049 320.692 27.0115 320.916 26.6595 321.076C26.3075 321.236 25.9129 321.316 25.4755 321.316ZM32.1839 321.284C31.9706 321.284 31.8106 321.225 31.7039 321.108C31.5972 320.991 31.5439 320.825 31.5439 320.612V313.94C31.5439 313.727 31.5972 313.567 31.7039 313.46C31.8106 313.343 31.9652 313.284 32.1679 313.284C32.3706 313.284 32.5252 313.343 32.6319 313.46C32.7492 313.567 32.8079 313.727 32.8079 313.94V315.348L32.6319 315.124C32.8346 314.527 33.1599 314.068 33.6079 313.748C34.0666 313.417 34.6106 313.252 35.2399 313.252C35.9012 313.252 36.4346 313.412 36.8399 313.732C37.2559 314.041 37.5332 314.527 37.6719 315.188H37.4319C37.6239 314.591 37.9652 314.121 38.4559 313.78C38.9572 313.428 39.5386 313.252 40.1999 313.252C40.7866 313.252 41.2666 313.364 41.6399 313.588C42.0239 313.812 42.3119 314.153 42.5039 314.612C42.6959 315.06 42.7919 315.631 42.7919 316.324V320.612C42.7919 320.825 42.7332 320.991 42.6159 321.108C42.5092 321.225 42.3492 321.284 42.1359 321.284C41.9332 321.284 41.7732 321.225 41.6559 321.108C41.5492 320.991 41.4959 320.825 41.4959 320.612V316.388C41.4959 315.673 41.3732 315.151 41.1279 314.82C40.8826 314.479 40.4666 314.308 39.8799 314.308C39.2399 314.308 38.7332 314.532 38.3599 314.98C37.9972 315.417 37.8159 316.015 37.8159 316.772V320.612C37.8159 320.825 37.7572 320.991 37.6399 321.108C37.5332 321.225 37.3732 321.284 37.1599 321.284C36.9572 321.284 36.7972 321.225 36.6799 321.108C36.5732 320.991 36.5199 320.825 36.5199 320.612V316.388C36.5199 315.673 36.3919 315.151 36.1359 314.82C35.8906 314.479 35.4799 314.308 34.9039 314.308C34.2639 314.308 33.7572 314.532 33.3839 314.98C33.0212 315.417 32.8399 316.015 32.8399 316.772V320.612C32.8399 321.06 32.6212 321.284 32.1839 321.284ZM47.663 321.316C47.1297 321.316 46.6497 321.215 46.223 321.012C45.807 320.799 45.4764 320.511 45.231 320.148C44.9857 319.785 44.863 319.38 44.863 318.932C44.863 318.356 45.007 317.903 45.295 317.572C45.5937 317.241 46.079 317.007 46.751 316.868C47.4337 316.729 48.3617 316.66 49.535 316.66H50.255V317.508H49.551C48.687 317.508 48.0044 317.551 47.503 317.636C47.0124 317.711 46.6657 317.844 46.463 318.036C46.271 318.228 46.175 318.5 46.175 318.852C46.175 319.289 46.3244 319.647 46.623 319.924C46.9324 320.201 47.3484 320.34 47.871 320.34C48.2977 320.34 48.671 320.239 48.991 320.036C49.3217 319.833 49.5777 319.556 49.759 319.204C49.951 318.852 50.047 318.447 50.047 317.988V316.164C50.047 315.503 49.9137 315.028 49.647 314.74C49.3804 314.441 48.943 314.292 48.335 314.292C47.9617 314.292 47.5884 314.34 47.215 314.436C46.8417 314.532 46.447 314.687 46.031 314.9C45.8817 314.975 45.7537 315.001 45.647 314.98C45.5404 314.948 45.455 314.889 45.391 314.804C45.327 314.719 45.2897 314.623 45.279 314.516C45.2684 314.399 45.2897 314.287 45.343 314.18C45.407 314.073 45.503 313.988 45.631 313.924C46.1004 313.689 46.5644 313.519 47.023 313.412C47.4817 313.305 47.919 313.252 48.335 313.252C49.007 313.252 49.5617 313.364 49.999 313.588C50.4364 313.801 50.7617 314.132 50.975 314.58C51.1884 315.017 51.295 315.583 51.295 316.276V320.612C51.295 320.825 51.2417 320.991 51.135 321.108C51.039 321.225 50.895 321.284 50.703 321.284C50.5004 321.284 50.3457 321.225 50.239 321.108C50.1324 320.991 50.079 320.825 50.079 320.612V319.364H50.223C50.1377 319.769 49.9724 320.116 49.727 320.404C49.4924 320.692 49.199 320.916 48.847 321.076C48.495 321.236 48.1004 321.316 47.663 321.316ZM54.3554 321.284C54.1421 321.284 53.9767 321.225 53.8594 321.108C53.7527 320.991 53.6994 320.825 53.6994 320.612V313.94C53.6994 313.727 53.7527 313.567 53.8594 313.46C53.9661 313.343 54.1207 313.284 54.3234 313.284C54.5261 313.284 54.6807 313.343 54.7874 313.46C54.9047 313.567 54.9634 313.727 54.9634 313.94V315.236H54.8034C54.9741 314.607 55.2994 314.121 55.7794 313.78C56.2594 313.439 56.8514 313.257 57.5554 313.236C57.7154 313.225 57.8434 313.263 57.9394 313.348C58.0354 313.423 58.0887 313.556 58.0994 313.748C58.1101 313.929 58.0674 314.073 57.9714 314.18C57.8754 314.287 57.7261 314.351 57.5234 314.372L57.2674 314.404C56.5421 314.468 55.9821 314.703 55.5874 315.108C55.2034 315.503 55.0114 316.047 55.0114 316.74V320.612C55.0114 320.825 54.9527 320.991 54.8354 321.108C54.7287 321.225 54.5687 321.284 54.3554 321.284ZM60.0738 321.252C59.8604 321.252 59.7004 321.193 59.5938 321.076C59.4871 320.948 59.4338 320.772 59.4338 320.548V314.004C59.4338 313.78 59.4871 313.609 59.5938 313.492C59.7004 313.375 59.8604 313.316 60.0738 313.316C60.2764 313.316 60.4364 313.375 60.5538 313.492C60.6711 313.609 60.7298 313.78 60.7298 314.004V320.548C60.7298 320.772 60.6711 320.948 60.5538 321.076C60.4471 321.193 60.2871 321.252 60.0738 321.252ZM60.0738 311.524C59.8071 311.524 59.5991 311.455 59.4498 311.316C59.3004 311.167 59.2258 310.969 59.2258 310.724C59.2258 310.468 59.3004 310.276 59.4498 310.148C59.5991 310.009 59.8071 309.94 60.0738 309.94C60.3511 309.94 60.5591 310.009 60.6978 310.148C60.8471 310.276 60.9218 310.468 60.9218 310.724C60.9218 310.969 60.8471 311.167 60.6978 311.316C60.5591 311.455 60.3511 311.524 60.0738 311.524ZM65.5205 321.316C64.7525 321.316 64.1659 321.081 63.7605 320.612C63.3552 320.143 63.1525 319.471 63.1525 318.596V310.436C63.1525 310.223 63.2059 310.063 63.3125 309.956C63.4192 309.839 63.5792 309.78 63.7925 309.78C63.9952 309.78 64.1552 309.839 64.2725 309.956C64.3899 310.063 64.4485 310.223 64.4485 310.436V318.5C64.4485 319.076 64.5605 319.508 64.7845 319.796C65.0192 320.073 65.3605 320.212 65.8085 320.212C65.9045 320.212 65.9899 320.207 66.0645 320.196C66.1392 320.185 66.2139 320.18 66.2885 320.18C66.4059 320.169 66.4859 320.196 66.5285 320.26C66.5819 320.324 66.6085 320.452 66.6085 320.644C66.6085 320.836 66.5659 320.98 66.4805 321.076C66.3952 321.172 66.2565 321.236 66.0645 321.268C65.9792 321.279 65.8885 321.289 65.7925 321.3C65.6965 321.311 65.6059 321.316 65.5205 321.316ZM70.2549 321.316C69.4869 321.316 68.9002 321.081 68.4949 320.612C68.0896 320.143 67.8869 319.471 67.8869 318.596V310.436C67.8869 310.223 67.9402 310.063 68.0469 309.956C68.1536 309.839 68.3136 309.78 68.5269 309.78C68.7296 309.78 68.8896 309.839 69.0069 309.956C69.1242 310.063 69.1829 310.223 69.1829 310.436V318.5C69.1829 319.076 69.2949 319.508 69.5189 319.796C69.7536 320.073 70.0949 320.212 70.5429 320.212C70.6389 320.212 70.7242 320.207 70.7989 320.196C70.8736 320.185 70.9482 320.18 71.0229 320.18C71.1402 320.169 71.2202 320.196 71.2629 320.26C71.3162 320.324 71.3429 320.452 71.3429 320.644C71.3429 320.836 71.3002 320.98 71.2149 321.076C71.1296 321.172 70.9909 321.236 70.7989 321.268C70.7136 321.279 70.6229 321.289 70.5269 321.3C70.4309 321.311 70.3402 321.316 70.2549 321.316ZM75.7751 321.316C75.0178 321.316 74.3618 321.151 73.8071 320.82C73.2525 320.489 72.8205 320.025 72.5111 319.428C72.2125 318.82 72.0631 318.105 72.0631 317.284C72.0631 316.665 72.1485 316.111 72.3191 315.62C72.4898 315.119 72.7405 314.692 73.0711 314.34C73.4018 313.988 73.7911 313.721 74.2391 313.54C74.6978 313.348 75.2098 313.252 75.7751 313.252C76.5325 313.252 77.1885 313.417 77.7431 313.748C78.2978 314.079 78.7245 314.548 79.0231 315.156C79.3325 315.753 79.4871 316.463 79.4871 317.284C79.4871 317.903 79.4018 318.457 79.2311 318.948C79.0605 319.439 78.8098 319.865 78.4791 320.228C78.1485 320.58 77.7538 320.852 77.2951 321.044C76.8471 321.225 76.3405 321.316 75.7751 321.316ZM75.7751 320.276C76.2551 320.276 76.6765 320.159 77.0391 319.924C77.4018 319.689 77.6791 319.348 77.8711 318.9C78.0738 318.452 78.1751 317.913 78.1751 317.284C78.1751 316.313 77.9565 315.572 77.5191 315.06C77.0925 314.548 76.5111 314.292 75.7751 314.292C75.2845 314.292 74.8578 314.409 74.4951 314.644C74.1431 314.868 73.8658 315.204 73.6631 315.652C73.4711 316.089 73.3751 316.633 73.3751 317.284C73.3751 318.244 73.5938 318.985 74.0311 319.508C74.4685 320.02 75.0498 320.276 75.7751 320.276Z" fill="#1A1A1A"/>
<path d="M322.891 0.000193863C294.453 0.000191377 271.399 23.0548 271.399 51.4942C271.399 79.9336 294.453 102.988 322.891 102.988C351.328 102.988 374.382 79.9336 374.382 51.4942C374.382 23.0548 351.328 0.000196349 322.891 0.000193863Z" fill="#69B653"/>
<path d="M357.311 81.999L289.309 81.999C286.511 81.999 284.552 78.9206 285.951 76.4018L320.092 12.0343C321.491 9.23571 325.409 9.23571 326.808 12.0343L360.949 76.4018C362.069 78.9206 360.11 81.999 357.311 81.999ZM300.223 75.2824L346.118 75.2824C348.916 75.2824 350.875 72.2039 349.476 69.6852L326.529 26.0272C325.129 23.2287 321.212 23.2287 319.812 26.0272L296.865 69.6852C295.746 72.2039 297.425 75.2824 300.223 75.2824Z" fill="white"/>
<path d="M306.503 132.1C306.321 132.1 306.161 132.052 306.023 131.956C305.884 131.85 305.767 131.69 305.671 131.476L302.903 125.012C302.828 124.852 302.801 124.703 302.823 124.564C302.844 124.426 302.908 124.314 303.015 124.228C303.121 124.143 303.271 124.1 303.463 124.1C303.633 124.1 303.767 124.138 303.863 124.212C303.959 124.287 304.044 124.42 304.119 124.612L306.743 131.028H306.311L308.983 124.612C309.057 124.42 309.143 124.287 309.239 124.212C309.335 124.138 309.473 124.1 309.655 124.1C309.825 124.1 309.953 124.143 310.039 124.228C310.135 124.314 310.188 124.426 310.199 124.564C310.22 124.692 310.199 124.836 310.135 124.996L307.335 131.476C307.26 131.69 307.148 131.85 306.999 131.956C306.86 132.052 306.695 132.1 306.503 132.1ZM315.236 132.132C314.414 132.132 313.705 131.972 313.108 131.652C312.521 131.322 312.062 130.858 311.732 130.26C311.412 129.663 311.252 128.948 311.252 128.116C311.252 127.306 311.412 126.602 311.732 126.004C312.052 125.396 312.489 124.922 313.044 124.58C313.609 124.239 314.26 124.068 314.996 124.068C315.518 124.068 315.988 124.159 316.404 124.34C316.82 124.511 317.172 124.762 317.46 125.092C317.758 125.423 317.982 125.823 318.132 126.292C318.292 126.762 318.372 127.29 318.372 127.876C318.372 128.047 318.324 128.175 318.228 128.26C318.132 128.335 317.993 128.372 317.812 128.372H312.244V127.524H317.508L317.252 127.732C317.252 127.156 317.166 126.671 316.996 126.276C316.825 125.871 316.574 125.562 316.244 125.348C315.924 125.135 315.518 125.028 315.028 125.028C314.484 125.028 314.02 125.156 313.636 125.412C313.262 125.658 312.98 126.004 312.788 126.452C312.596 126.89 312.5 127.402 312.5 127.988V128.084C312.5 129.066 312.734 129.812 313.204 130.324C313.684 130.836 314.361 131.092 315.236 131.092C315.598 131.092 315.956 131.044 316.308 130.948C316.67 130.852 317.022 130.692 317.364 130.468C317.513 130.372 317.646 130.33 317.764 130.34C317.892 130.34 317.993 130.378 318.068 130.452C318.142 130.516 318.19 130.602 318.212 130.708C318.244 130.804 318.233 130.911 318.18 131.028C318.137 131.146 318.046 131.247 317.908 131.332C317.556 131.588 317.14 131.786 316.66 131.924C316.18 132.063 315.705 132.132 315.236 132.132ZM320.903 132.1C320.69 132.1 320.525 132.042 320.407 131.924C320.301 131.807 320.247 131.642 320.247 131.428V124.756C320.247 124.543 320.301 124.383 320.407 124.276C320.514 124.159 320.669 124.1 320.871 124.1C321.074 124.1 321.229 124.159 321.335 124.276C321.453 124.383 321.511 124.543 321.511 124.756V126.052H321.351C321.522 125.423 321.847 124.938 322.327 124.596C322.807 124.255 323.399 124.074 324.103 124.052C324.263 124.042 324.391 124.079 324.487 124.164C324.583 124.239 324.637 124.372 324.647 124.564C324.658 124.746 324.615 124.89 324.519 124.996C324.423 125.103 324.274 125.167 324.071 125.188L323.815 125.22C323.09 125.284 322.53 125.519 322.135 125.924C321.751 126.319 321.559 126.863 321.559 127.556V131.428C321.559 131.642 321.501 131.807 321.383 131.924C321.277 132.042 321.117 132.1 320.903 132.1ZM328.848 132.132C328.155 132.132 327.547 131.967 327.024 131.636C326.512 131.306 326.112 130.842 325.824 130.244C325.547 129.636 325.408 128.922 325.408 128.1C325.408 127.268 325.547 126.554 325.824 125.956C326.112 125.348 326.512 124.884 327.024 124.564C327.547 124.234 328.155 124.068 328.848 124.068C329.552 124.068 330.155 124.244 330.656 124.596C331.157 124.948 331.493 125.423 331.664 126.02H331.488V121.252C331.488 121.039 331.541 120.879 331.648 120.772C331.765 120.655 331.931 120.596 332.144 120.596C332.347 120.596 332.501 120.655 332.608 120.772C332.725 120.879 332.784 121.039 332.784 121.252V131.428C332.784 131.642 332.731 131.807 332.624 131.924C332.517 132.042 332.357 132.1 332.144 132.1C331.941 132.1 331.781 132.042 331.664 131.924C331.557 131.807 331.504 131.642 331.504 131.428V129.908L331.68 130.132C331.509 130.74 331.168 131.226 330.656 131.588C330.155 131.951 329.552 132.132 328.848 132.132ZM329.12 131.092C329.6 131.092 330.021 130.975 330.384 130.74C330.747 130.506 331.024 130.164 331.216 129.716C331.419 129.268 331.52 128.73 331.52 128.1C331.52 127.13 331.301 126.388 330.864 125.876C330.437 125.364 329.856 125.108 329.12 125.108C328.629 125.108 328.203 125.226 327.84 125.46C327.488 125.684 327.211 126.02 327.008 126.468C326.816 126.906 326.72 127.45 326.72 128.1C326.72 129.06 326.939 129.802 327.376 130.324C327.813 130.836 328.395 131.092 329.12 131.092ZM338.72 132.132C337.899 132.132 337.189 131.972 336.592 131.652C336.005 131.322 335.547 130.858 335.216 130.26C334.896 129.663 334.736 128.948 334.736 128.116C334.736 127.306 334.896 126.602 335.216 126.004C335.536 125.396 335.973 124.922 336.528 124.58C337.093 124.239 337.744 124.068 338.48 124.068C339.003 124.068 339.472 124.159 339.888 124.34C340.304 124.511 340.656 124.762 340.944 125.092C341.243 125.423 341.467 125.823 341.616 126.292C341.776 126.762 341.856 127.29 341.856 127.876C341.856 128.047 341.808 128.175 341.712 128.26C341.616 128.335 341.477 128.372 341.296 128.372H335.728V127.524H340.992L340.736 127.732C340.736 127.156 340.651 126.671 340.48 126.276C340.309 125.871 340.059 125.562 339.728 125.348C339.408 125.135 339.003 125.028 338.512 125.028C337.968 125.028 337.504 125.156 337.12 125.412C336.747 125.658 336.464 126.004 336.272 126.452C336.08 126.89 335.984 127.402 335.984 127.988V128.084C335.984 129.066 336.219 129.812 336.688 130.324C337.168 130.836 337.845 131.092 338.72 131.092C339.083 131.092 339.44 131.044 339.792 130.948C340.155 130.852 340.507 130.692 340.848 130.468C340.997 130.372 341.131 130.33 341.248 130.34C341.376 130.34 341.477 130.378 341.552 130.452C341.627 130.516 341.675 130.602 341.696 130.708C341.728 130.804 341.717 130.911 341.664 131.028C341.621 131.146 341.531 131.247 341.392 131.332C341.04 131.588 340.624 131.786 340.144 131.924C339.664 132.063 339.189 132.132 338.72 132.132Z" fill="#1A1A1A"/>
<path d="M235.05 99.6299L145.5 99.6299C141.583 99.6299 139.344 95.432 141.023 92.0736L185.798 6.43685C187.757 2.79868 192.794 2.79868 194.753 6.43685L239.528 92.0737C241.487 95.432 238.968 99.6299 235.05 99.6299Z" fill="#FFED00"/>
<path d="M164.497 128.774C163.964 128.774 163.484 128.673 163.057 128.47C162.641 128.257 162.31 127.969 162.065 127.606C161.82 127.243 161.697 126.838 161.697 126.39C161.697 125.814 161.841 125.361 162.129 125.03C162.428 124.699 162.913 124.465 163.585 124.326C164.268 124.187 165.196 124.118 166.369 124.118H167.089V124.966H166.385C165.521 124.966 164.838 125.009 164.337 125.094C163.846 125.169 163.5 125.302 163.297 125.494C163.105 125.686 163.009 125.958 163.009 126.31C163.009 126.747 163.158 127.105 163.457 127.382C163.766 127.659 164.182 127.798 164.705 127.798C165.132 127.798 165.505 127.697 165.825 127.494C166.156 127.291 166.412 127.014 166.593 126.662C166.785 126.31 166.881 125.905 166.881 125.446V123.622C166.881 122.961 166.748 122.486 166.481 122.198C166.214 121.899 165.777 121.75 165.169 121.75C164.796 121.75 164.422 121.798 164.049 121.894C163.676 121.99 163.281 122.145 162.865 122.358C162.716 122.433 162.588 122.459 162.481 122.438C162.374 122.406 162.289 122.347 162.225 122.262C162.161 122.177 162.124 122.081 162.113 121.974C162.102 121.857 162.124 121.745 162.177 121.638C162.241 121.531 162.337 121.446 162.465 121.382C162.934 121.147 163.398 120.977 163.857 120.87C164.316 120.763 164.753 120.71 165.169 120.71C165.841 120.71 166.396 120.822 166.833 121.046C167.27 121.259 167.596 121.59 167.809 122.038C168.022 122.475 168.129 123.041 168.129 123.734V128.07C168.129 128.283 168.076 128.449 167.969 128.566C167.873 128.683 167.729 128.742 167.537 128.742C167.334 128.742 167.18 128.683 167.073 128.566C166.966 128.449 166.913 128.283 166.913 128.07V126.822H167.057C166.972 127.227 166.806 127.574 166.561 127.862C166.326 128.15 166.033 128.374 165.681 128.534C165.329 128.694 164.934 128.774 164.497 128.774ZM171.205 128.742C170.992 128.742 170.832 128.683 170.725 128.566C170.619 128.449 170.565 128.283 170.565 128.07V121.398C170.565 121.185 170.619 121.025 170.725 120.918C170.832 120.801 170.987 120.742 171.189 120.742C171.392 120.742 171.547 120.801 171.653 120.918C171.771 121.025 171.829 121.185 171.829 121.398V122.806L171.653 122.582C171.856 121.985 172.181 121.526 172.629 121.206C173.088 120.875 173.632 120.71 174.261 120.71C174.923 120.71 175.456 120.87 175.861 121.19C176.277 121.499 176.555 121.985 176.693 122.646H176.453C176.645 122.049 176.987 121.579 177.477 121.238C177.979 120.886 178.56 120.71 179.221 120.71C179.808 120.71 180.288 120.822 180.661 121.046C181.045 121.27 181.333 121.611 181.525 122.07C181.717 122.518 181.813 123.089 181.813 123.782V128.07C181.813 128.283 181.755 128.449 181.637 128.566C181.531 128.683 181.371 128.742 181.157 128.742C180.955 128.742 180.795 128.683 180.677 128.566C180.571 128.449 180.517 128.283 180.517 128.07V123.846C180.517 123.131 180.395 122.609 180.149 122.278C179.904 121.937 179.488 121.766 178.901 121.766C178.261 121.766 177.755 121.99 177.381 122.438C177.019 122.875 176.837 123.473 176.837 124.23V128.07C176.837 128.283 176.779 128.449 176.661 128.566C176.555 128.683 176.395 128.742 176.181 128.742C175.979 128.742 175.819 128.683 175.701 128.566C175.595 128.449 175.541 128.283 175.541 128.07V123.846C175.541 123.131 175.413 122.609 175.157 122.278C174.912 121.937 174.501 121.766 173.925 121.766C173.285 121.766 172.779 121.99 172.405 122.438C172.043 122.875 171.861 123.473 171.861 124.23V128.07C171.861 128.518 171.643 128.742 171.205 128.742ZM186.685 128.774C186.151 128.774 185.671 128.673 185.245 128.47C184.829 128.257 184.498 127.969 184.253 127.606C184.007 127.243 183.885 126.838 183.885 126.39C183.885 125.814 184.029 125.361 184.317 125.03C184.615 124.699 185.101 124.465 185.773 124.326C186.455 124.187 187.383 124.118 188.557 124.118H189.277V124.966H188.573C187.709 124.966 187.026 125.009 186.525 125.094C186.034 125.169 185.687 125.302 185.485 125.494C185.293 125.686 185.197 125.958 185.197 126.31C185.197 126.747 185.346 127.105 185.645 127.382C185.954 127.659 186.37 127.798 186.893 127.798C187.319 127.798 187.693 127.697 188.013 127.494C188.343 127.291 188.599 127.014 188.781 126.662C188.973 126.31 189.069 125.905 189.069 125.446V123.622C189.069 122.961 188.935 122.486 188.669 122.198C188.402 121.899 187.965 121.75 187.357 121.75C186.983 121.75 186.61 121.798 186.237 121.894C185.863 121.99 185.469 122.145 185.053 122.358C184.903 122.433 184.775 122.459 184.669 122.438C184.562 122.406 184.477 122.347 184.413 122.262C184.349 122.177 184.311 122.081 184.301 121.974C184.29 121.857 184.311 121.745 184.365 121.638C184.429 121.531 184.525 121.446 184.653 121.382C185.122 121.147 185.586 120.977 186.045 120.87C186.503 120.763 186.941 120.71 187.357 120.71C188.029 120.71 188.583 120.822 189.021 121.046C189.458 121.259 189.783 121.59 189.997 122.038C190.21 122.475 190.317 123.041 190.317 123.734V128.07C190.317 128.283 190.263 128.449 190.157 128.566C190.061 128.683 189.917 128.742 189.725 128.742C189.522 128.742 189.367 128.683 189.261 128.566C189.154 128.449 189.101 128.283 189.101 128.07V126.822H189.245C189.159 127.227 188.994 127.574 188.749 127.862C188.514 128.15 188.221 128.374 187.869 128.534C187.517 128.694 187.122 128.774 186.685 128.774ZM193.377 128.742C193.164 128.742 192.998 128.683 192.881 128.566C192.774 128.449 192.721 128.283 192.721 128.07V121.398C192.721 121.185 192.774 121.025 192.881 120.918C192.988 120.801 193.142 120.742 193.345 120.742C193.548 120.742 193.702 120.801 193.809 120.918C193.926 121.025 193.985 121.185 193.985 121.398V122.694H193.825C193.996 122.065 194.321 121.579 194.801 121.238C195.281 120.897 195.873 120.715 196.577 120.694C196.737 120.683 196.865 120.721 196.961 120.806C197.057 120.881 197.11 121.014 197.121 121.206C197.132 121.387 197.089 121.531 196.993 121.638C196.897 121.745 196.748 121.809 196.545 121.83L196.289 121.862C195.564 121.926 195.004 122.161 194.609 122.566C194.225 122.961 194.033 123.505 194.033 124.198V128.07C194.033 128.283 193.974 128.449 193.857 128.566C193.75 128.683 193.59 128.742 193.377 128.742ZM199.095 128.71C198.882 128.71 198.722 128.651 198.615 128.534C198.509 128.406 198.455 128.23 198.455 128.006V121.462C198.455 121.238 198.509 121.067 198.615 120.95C198.722 120.833 198.882 120.774 199.095 120.774C199.298 120.774 199.458 120.833 199.575 120.95C199.693 121.067 199.751 121.238 199.751 121.462V128.006C199.751 128.23 199.693 128.406 199.575 128.534C199.469 128.651 199.309 128.71 199.095 128.71ZM199.095 118.982C198.829 118.982 198.621 118.913 198.471 118.774C198.322 118.625 198.247 118.427 198.247 118.182C198.247 117.926 198.322 117.734 198.471 117.606C198.621 117.467 198.829 117.398 199.095 117.398C199.373 117.398 199.581 117.467 199.719 117.606C199.869 117.734 199.943 117.926 199.943 118.182C199.943 118.427 199.869 118.625 199.719 118.774C199.581 118.913 199.373 118.982 199.095 118.982ZM204.542 128.774C203.774 128.774 203.187 128.539 202.782 128.07C202.377 127.601 202.174 126.929 202.174 126.054V117.894C202.174 117.681 202.227 117.521 202.334 117.414C202.441 117.297 202.601 117.238 202.814 117.238C203.017 117.238 203.177 117.297 203.294 117.414C203.411 117.521 203.47 117.681 203.47 117.894V125.958C203.47 126.534 203.582 126.966 203.806 127.254C204.041 127.531 204.382 127.67 204.83 127.67C204.926 127.67 205.011 127.665 205.086 127.654C205.161 127.643 205.235 127.638 205.31 127.638C205.427 127.627 205.507 127.654 205.55 127.718C205.603 127.782 205.63 127.91 205.63 128.102C205.63 128.294 205.587 128.438 205.502 128.534C205.417 128.63 205.278 128.694 205.086 128.726C205.001 128.737 204.91 128.747 204.814 128.758C204.718 128.769 204.627 128.774 204.542 128.774ZM209.276 128.774C208.508 128.774 207.922 128.539 207.516 128.07C207.111 127.601 206.908 126.929 206.908 126.054V117.894C206.908 117.681 206.962 117.521 207.068 117.414C207.175 117.297 207.335 117.238 207.548 117.238C207.751 117.238 207.911 117.297 208.028 117.414C208.146 117.521 208.204 117.681 208.204 117.894V125.958C208.204 126.534 208.316 126.966 208.54 127.254C208.775 127.531 209.116 127.67 209.564 127.67C209.66 127.67 209.746 127.665 209.82 127.654C209.895 127.643 209.97 127.638 210.044 127.638C210.162 127.627 210.242 127.654 210.284 127.718C210.338 127.782 210.364 127.91 210.364 128.102C210.364 128.294 210.322 128.438 210.236 128.534C210.151 128.63 210.012 128.694 209.82 128.726C209.735 128.737 209.644 128.747 209.548 128.758C209.452 128.769 209.362 128.774 209.276 128.774ZM214.797 128.774C214.039 128.774 213.383 128.609 212.829 128.278C212.274 127.947 211.842 127.483 211.533 126.886C211.234 126.278 211.085 125.563 211.085 124.742C211.085 124.123 211.17 123.569 211.341 123.078C211.511 122.577 211.762 122.15 212.093 121.798C212.423 121.446 212.813 121.179 213.261 120.998C213.719 120.806 214.231 120.71 214.797 120.71C215.554 120.71 216.21 120.875 216.765 121.206C217.319 121.537 217.746 122.006 218.045 122.614C218.354 123.211 218.509 123.921 218.509 124.742C218.509 125.361 218.423 125.915 218.253 126.406C218.082 126.897 217.831 127.323 217.501 127.686C217.17 128.038 216.775 128.31 216.317 128.502C215.869 128.683 215.362 128.774 214.797 128.774ZM214.797 127.734C215.277 127.734 215.698 127.617 216.061 127.382C216.423 127.147 216.701 126.806 216.893 126.358C217.095 125.91 217.197 125.371 217.197 124.742C217.197 123.771 216.978 123.03 216.541 122.518C216.114 122.006 215.533 121.75 214.797 121.75C214.306 121.75 213.879 121.867 213.517 122.102C213.165 122.326 212.887 122.662 212.685 123.11C212.493 123.547 212.397 124.091 212.397 124.742C212.397 125.702 212.615 126.443 213.053 126.966C213.49 127.478 214.071 127.734 214.797 127.734Z" fill="#1A1A1A"/>
<path d="M51.5088 0.000193863C23.071 0.000191377 0.0177453 23.0548 0.0177428 51.4942C0.0177404 79.9336 23.071 102.988 51.5088 102.988C79.9466 102.988 103 79.9336 103 51.4942C103 23.0548 79.9466 0.000196349 51.5088 0.000193863Z" fill="#009FE3"/>
<path d="M40.1728 132.132C39.6395 132.132 39.1595 132.031 38.7328 131.828C38.3168 131.615 37.9861 131.327 37.7408 130.964C37.4955 130.602 37.3728 130.196 37.3728 129.748C37.3728 129.172 37.5168 128.719 37.8048 128.388C38.1035 128.058 38.5888 127.823 39.2608 127.684C39.9435 127.546 40.8715 127.476 42.0448 127.476H42.7648V128.324H42.0608C41.1968 128.324 40.5141 128.367 40.0128 128.452C39.5221 128.527 39.1755 128.66 38.9728 128.852C38.7808 129.044 38.6848 129.316 38.6848 129.668C38.6848 130.106 38.8341 130.463 39.1328 130.74C39.4421 131.018 39.8581 131.156 40.3808 131.156C40.8075 131.156 41.1808 131.055 41.5008 130.852C41.8315 130.65 42.0875 130.372 42.2688 130.02C42.4608 129.668 42.5568 129.263 42.5568 128.804V126.98C42.5568 126.319 42.4235 125.844 42.1568 125.556C41.8901 125.258 41.4528 125.108 40.8448 125.108C40.4715 125.108 40.0981 125.156 39.7248 125.252C39.3515 125.348 38.9568 125.503 38.5408 125.716C38.3915 125.791 38.2635 125.818 38.1568 125.796C38.0501 125.764 37.9648 125.706 37.9008 125.62C37.8368 125.535 37.7995 125.439 37.7888 125.332C37.7781 125.215 37.7995 125.103 37.8528 124.996C37.9168 124.89 38.0128 124.804 38.1408 124.74C38.6101 124.506 39.0741 124.335 39.5328 124.228C39.9915 124.122 40.4288 124.068 40.8448 124.068C41.5168 124.068 42.0715 124.18 42.5088 124.404C42.9461 124.618 43.2715 124.948 43.4848 125.396C43.6981 125.834 43.8048 126.399 43.8048 127.092V131.428C43.8048 131.642 43.7515 131.807 43.6448 131.924C43.5488 132.042 43.4048 132.1 43.2128 132.1C43.0101 132.1 42.8555 132.042 42.7488 131.924C42.6421 131.807 42.5888 131.642 42.5888 131.428V130.18H42.7328C42.6475 130.586 42.4821 130.932 42.2368 131.22C42.0021 131.508 41.7088 131.732 41.3568 131.892C41.0048 132.052 40.6101 132.132 40.1728 132.132ZM46.3532 131.988C46.2145 131.988 46.1025 131.956 46.0172 131.892C45.9318 131.828 45.8732 131.743 45.8412 131.636C45.8092 131.53 45.8092 131.412 45.8412 131.284C45.8732 131.156 45.9425 131.034 46.0492 130.916L50.5612 124.884V125.22H46.2892C46.1185 125.22 45.9852 125.178 45.8892 125.092C45.8038 124.996 45.7612 124.868 45.7612 124.708C45.7612 124.548 45.8038 124.426 45.8892 124.34C45.9852 124.255 46.1185 124.212 46.2892 124.212H51.2012C51.3612 124.212 51.4892 124.244 51.5852 124.308C51.6918 124.372 51.7612 124.458 51.7932 124.564C51.8252 124.66 51.8252 124.772 51.7932 124.9C51.7718 125.018 51.7132 125.135 51.6172 125.252L47.0252 131.348V130.98H51.5212C51.8732 130.98 52.0492 131.146 52.0492 131.476C52.0492 131.636 52.0012 131.764 51.9052 131.86C51.8198 131.946 51.6918 131.988 51.5212 131.988H46.3532ZM56.3674 132.132C55.7381 132.132 55.2154 132.02 54.7994 131.796C54.3941 131.562 54.0847 131.215 53.8714 130.756C53.6687 130.298 53.5674 129.727 53.5674 129.044V124.756C53.5674 124.532 53.6207 124.367 53.7274 124.26C53.8447 124.154 54.0047 124.1 54.2074 124.1C54.4207 124.1 54.5807 124.154 54.6874 124.26C54.8047 124.367 54.8634 124.532 54.8634 124.756V129.028C54.8634 129.711 55.0021 130.223 55.2794 130.564C55.5674 130.895 56.0154 131.06 56.6234 131.06C57.2847 131.06 57.8234 130.836 58.2394 130.388C58.6554 129.94 58.8634 129.354 58.8634 128.628V124.756C58.8634 124.532 58.9167 124.367 59.0234 124.26C59.1407 124.154 59.3061 124.1 59.5194 124.1C59.7221 124.1 59.8767 124.154 59.9834 124.26C60.1007 124.367 60.1594 124.532 60.1594 124.756V131.428C60.1594 131.876 59.9514 132.1 59.5354 132.1C59.3327 132.1 59.1727 132.042 59.0554 131.924C58.9487 131.807 58.8954 131.642 58.8954 131.428V129.972L59.1034 130.196C58.8901 130.826 58.5381 131.306 58.0474 131.636C57.5674 131.967 57.0074 132.132 56.3674 132.132ZM64.9522 132.132C64.1842 132.132 63.5975 131.898 63.1922 131.428C62.7868 130.959 62.5842 130.287 62.5842 129.412V121.252C62.5842 121.039 62.6375 120.879 62.7442 120.772C62.8508 120.655 63.0108 120.596 63.2242 120.596C63.4268 120.596 63.5868 120.655 63.7042 120.772C63.8215 120.879 63.8802 121.039 63.8802 121.252V129.316C63.8802 129.892 63.9922 130.324 64.2162 130.612C64.4508 130.89 64.7922 131.028 65.2402 131.028C65.3362 131.028 65.4215 131.023 65.4962 131.012C65.5708 131.002 65.6455 130.996 65.7202 130.996C65.8375 130.986 65.9175 131.012 65.9602 131.076C66.0135 131.14 66.0402 131.268 66.0402 131.46C66.0402 131.652 65.9975 131.796 65.9122 131.892C65.8268 131.988 65.6882 132.052 65.4962 132.084C65.4108 132.095 65.3202 132.106 65.2242 132.116C65.1282 132.127 65.0375 132.132 64.9522 132.132Z" fill="#1A1A1A"/>
</svg>
