<svg width="341" height="141" viewBox="0 0 341 141" fill="none" xmlns="http://www.w3.org/2000/svg">
<path d="M93.4008 11.7542C93.121 5.3174 87.804 9.1039e-05 81.3676 9.04763e-05L32.6748 8.62194e-05C25.9586 8.56323e-05 20.6416 5.31741 20.6416 12.034L20.6416 83.6779C20.6416 90.3945 26.2384 95.9917 32.6748 95.9917L81.3676 95.9917C88.0838 95.9917 93.6807 90.3945 93.6807 83.6779L93.6807 12.034C93.4008 12.034 93.4008 11.7542 93.4008 11.7542ZM80.528 76.1217C80.528 80.0397 77.4497 83.1182 73.5319 83.1182L40.2306 83.1182C36.3128 83.1182 33.2345 80.0397 33.2345 76.1217L33.2345 44.4976L80.2481 44.4976L80.2481 76.1217L80.528 76.1217Z" fill="#9C9B9B"/>
<path d="M48.3171 136.016C47.7518 136.016 47.1971 135.946 46.6531 135.808C46.1198 135.68 45.6345 135.472 45.1971 135.184C45.0691 135.109 44.9838 135.018 44.9411 134.912C44.9091 134.805 44.9038 134.698 44.9251 134.592C44.9465 134.496 44.9945 134.405 45.0691 134.32C45.1438 134.245 45.2291 134.197 45.3251 134.176C45.4318 134.154 45.5385 134.17 45.6451 134.224C46.1145 134.512 46.5625 134.709 46.9891 134.816C47.4158 134.922 47.8371 134.976 48.2531 134.976C49.0105 134.976 49.5811 134.773 49.9651 134.368C50.3598 133.962 50.5571 133.376 50.5571 132.608V130.8H50.7171C50.5571 131.418 50.2158 131.909 49.6931 132.272C49.1811 132.634 48.5785 132.816 47.8851 132.816C47.1705 132.816 46.5518 132.656 46.0291 132.336C45.5065 132.005 45.1011 131.546 44.8131 130.96C44.5358 130.373 44.3971 129.696 44.3971 128.928C44.3971 128.352 44.4771 127.829 44.6371 127.36C44.7971 126.88 45.0265 126.474 45.3251 126.144C45.6345 125.802 46.0025 125.541 46.4291 125.36C46.8665 125.168 47.3518 125.072 47.8851 125.072C48.5891 125.072 49.1971 125.253 49.7091 125.616C50.2211 125.968 50.5518 126.448 50.7011 127.056L50.5411 127.248V125.76C50.5411 125.546 50.5945 125.386 50.7011 125.28C50.8185 125.162 50.9785 125.104 51.1811 125.104C51.3945 125.104 51.5545 125.162 51.6611 125.28C51.7678 125.386 51.8211 125.546 51.8211 125.76V132.432C51.8211 133.616 51.5225 134.506 50.9251 135.104C50.3385 135.712 49.4691 136.016 48.3171 136.016ZM48.1251 131.76C48.6265 131.76 49.0585 131.648 49.4211 131.424C49.7838 131.189 50.0611 130.858 50.2531 130.432C50.4558 130.005 50.5571 129.504 50.5571 128.928C50.5571 128.064 50.3385 127.381 49.9011 126.88C49.4638 126.368 48.8718 126.112 48.1251 126.112C47.6345 126.112 47.2078 126.229 46.8451 126.464C46.4825 126.688 46.1998 127.013 45.9971 127.44C45.8051 127.856 45.7091 128.352 45.7091 128.928C45.7091 129.792 45.9278 130.48 46.3651 130.992C46.8025 131.504 47.3891 131.76 48.1251 131.76ZM54.9081 133.104C54.6948 133.104 54.5295 133.045 54.4121 132.928C54.3055 132.81 54.2521 132.645 54.2521 132.432V125.76C54.2521 125.546 54.3055 125.386 54.4121 125.28C54.5188 125.162 54.6735 125.104 54.8761 125.104C55.0788 125.104 55.2335 125.162 55.3401 125.28C55.4575 125.386 55.5161 125.546 55.5161 125.76V127.056H55.3561C55.5268 126.426 55.8521 125.941 56.3321 125.6C56.8121 125.258 57.4041 125.077 58.1081 125.056C58.2681 125.045 58.3961 125.082 58.4921 125.168C58.5881 125.242 58.6415 125.376 58.6521 125.568C58.6628 125.749 58.6201 125.893 58.5241 126C58.4281 126.106 58.2788 126.17 58.0761 126.192L57.8201 126.224C57.0948 126.288 56.5348 126.522 56.1401 126.928C55.7561 127.322 55.5641 127.866 55.5641 128.56V132.432C55.5641 132.645 55.5055 132.81 55.3881 132.928C55.2815 133.045 55.1215 133.104 54.9081 133.104ZM60.6265 133.072C60.4132 133.072 60.2532 133.013 60.1465 132.896C60.0398 132.768 59.9865 132.592 59.9865 132.368V125.824C59.9865 125.6 60.0398 125.429 60.1465 125.312C60.2532 125.194 60.4132 125.136 60.6265 125.136C60.8292 125.136 60.9892 125.194 61.1065 125.312C61.2238 125.429 61.2825 125.6 61.2825 125.824V132.368C61.2825 132.592 61.2238 132.768 61.1065 132.896C60.9998 133.013 60.8398 133.072 60.6265 133.072ZM60.6265 123.344C60.3598 123.344 60.1518 123.274 60.0025 123.136C59.8532 122.986 59.7785 122.789 59.7785 122.544C59.7785 122.288 59.8532 122.096 60.0025 121.968C60.1518 121.829 60.3598 121.76 60.6265 121.76C60.9038 121.76 61.1118 121.829 61.2505 121.968C61.3998 122.096 61.4745 122.288 61.4745 122.544C61.4745 122.789 61.3998 122.986 61.2505 123.136C61.1118 123.274 60.9038 123.344 60.6265 123.344ZM66.3293 133.136C65.8493 133.136 65.3639 133.077 64.8733 132.96C64.3933 132.842 63.9453 132.64 63.5293 132.352C63.4226 132.277 63.3479 132.192 63.3053 132.096C63.2626 131.989 63.2466 131.888 63.2573 131.792C63.2786 131.685 63.3213 131.594 63.3853 131.52C63.4599 131.445 63.5453 131.402 63.6413 131.392C63.7479 131.37 63.8653 131.392 63.9933 131.456C64.4093 131.712 64.8093 131.893 65.1933 132C65.5879 132.096 65.9773 132.144 66.3613 132.144C66.9693 132.144 67.4279 132.032 67.7373 131.808C68.0466 131.584 68.2013 131.28 68.2013 130.896C68.2013 130.597 68.0999 130.362 67.8973 130.192C67.6946 130.01 67.3746 129.872 66.9373 129.776L65.4813 129.456C64.8093 129.317 64.3079 129.077 63.9773 128.736C63.6573 128.394 63.4973 127.952 63.4973 127.408C63.4973 126.928 63.6199 126.517 63.8653 126.176C64.1213 125.824 64.4786 125.552 64.9373 125.36C65.3959 125.168 65.9293 125.072 66.5373 125.072C67.0066 125.072 67.4493 125.136 67.8653 125.264C68.2919 125.381 68.6759 125.573 69.0173 125.84C69.1239 125.914 69.1933 126.005 69.2253 126.112C69.2679 126.208 69.2733 126.309 69.2413 126.416C69.2199 126.512 69.1719 126.597 69.0973 126.672C69.0226 126.736 68.9319 126.773 68.8253 126.784C68.7186 126.794 68.6066 126.762 68.4893 126.688C68.1693 126.474 67.8439 126.32 67.5133 126.224C67.1826 126.117 66.8573 126.064 66.5373 126.064C65.9399 126.064 65.4866 126.181 65.1773 126.416C64.8679 126.65 64.7133 126.96 64.7133 127.344C64.7133 127.642 64.8093 127.888 65.0013 128.08C65.1933 128.272 65.4919 128.41 65.8973 128.496L67.3533 128.8C68.0466 128.949 68.5639 129.189 68.9053 129.52C69.2573 129.84 69.4333 130.277 69.4333 130.832C69.4333 131.536 69.1506 132.096 68.5853 132.512C68.0199 132.928 67.2679 133.136 66.3293 133.136Z" fill="#1A1A1A"/>
<path d="M206.44 11.7537C206.16 5.31693 200.843 -0.000381983 194.407 -0.000382546L145.714 -0.000386803C138.998 -0.00038739 133.681 5.31694 133.681 12.0336L133.681 83.6774C133.681 90.394 139.277 95.9912 145.714 95.9912L194.407 95.9912C201.123 95.9912 206.72 90.394 206.72 83.6774L206.72 12.0336C206.44 12.0336 206.44 11.7537 206.44 11.7537ZM193.567 76.1212C193.567 80.0393 190.489 83.1177 186.571 83.1177L153.27 83.1177C149.352 83.1177 146.274 80.0393 146.274 76.1212L146.274 19.3099C146.274 15.6717 149.352 12.5933 152.99 12.5933L186.851 12.5933C190.489 12.5933 193.567 15.6717 193.567 19.3099L193.567 76.1212Z" fill="black"/>
<path d="M186.72 30.5435L186.72 66.3354C186.72 69.6649 184.203 72.4395 181.126 72.4395L159.313 72.4395C156.237 72.4395 153.72 69.6649 153.72 66.3354L153.72 30.5435C153.72 27.214 156.237 24.4395 159.313 24.4395L181.127 24.4395C184.203 24.7169 186.44 27.214 186.72 30.5435Z" fill="black"/>
<path d="M151.056 133.104C150.843 133.104 150.683 133.045 150.576 132.928C150.47 132.81 150.416 132.645 150.416 132.432V125.76C150.416 125.546 150.47 125.386 150.576 125.28C150.683 125.162 150.838 125.104 151.04 125.104C151.243 125.104 151.398 125.162 151.504 125.28C151.622 125.386 151.68 125.546 151.68 125.76V127.136L151.504 126.944C151.728 126.325 152.091 125.861 152.592 125.552C153.104 125.232 153.691 125.072 154.352 125.072C154.971 125.072 155.483 125.184 155.888 125.408C156.304 125.632 156.614 125.973 156.816 126.432C157.019 126.88 157.12 127.45 157.12 128.144V132.432C157.12 132.645 157.062 132.81 156.944 132.928C156.838 133.045 156.683 133.104 156.48 133.104C156.267 133.104 156.102 133.045 155.984 132.928C155.878 132.81 155.824 132.645 155.824 132.432V128.224C155.824 127.498 155.68 126.97 155.392 126.64C155.115 126.298 154.667 126.128 154.048 126.128C153.334 126.128 152.763 126.352 152.336 126.8C151.92 127.237 151.712 127.824 151.712 128.56V132.432C151.712 132.88 151.494 133.104 151.056 133.104ZM163.014 133.136C162.193 133.136 161.483 132.976 160.886 132.656C160.299 132.325 159.841 131.861 159.51 131.264C159.19 130.666 159.03 129.952 159.03 129.12C159.03 128.309 159.19 127.605 159.51 127.008C159.83 126.4 160.267 125.925 160.822 125.584C161.387 125.242 162.038 125.072 162.774 125.072C163.297 125.072 163.766 125.162 164.182 125.344C164.598 125.514 164.95 125.765 165.238 126.096C165.537 126.426 165.761 126.826 165.91 127.296C166.07 127.765 166.15 128.293 166.15 128.88C166.15 129.05 166.102 129.178 166.006 129.264C165.91 129.338 165.771 129.376 165.59 129.376H160.022V128.528H165.286L165.03 128.736C165.03 128.16 164.945 127.674 164.774 127.28C164.603 126.874 164.353 126.565 164.022 126.352C163.702 126.138 163.297 126.032 162.806 126.032C162.262 126.032 161.798 126.16 161.414 126.416C161.041 126.661 160.758 127.008 160.566 127.456C160.374 127.893 160.278 128.405 160.278 128.992V129.088C160.278 130.069 160.513 130.816 160.982 131.328C161.462 131.84 162.139 132.096 163.014 132.096C163.377 132.096 163.734 132.048 164.086 131.952C164.449 131.856 164.801 131.696 165.142 131.472C165.291 131.376 165.425 131.333 165.542 131.344C165.67 131.344 165.771 131.381 165.846 131.456C165.921 131.52 165.969 131.605 165.99 131.712C166.022 131.808 166.011 131.914 165.958 132.032C165.915 132.149 165.825 132.25 165.686 132.336C165.334 132.592 164.918 132.789 164.438 132.928C163.958 133.066 163.483 133.136 163.014 133.136ZM171.466 136.016C170.9 136.016 170.346 135.946 169.802 135.808C169.268 135.68 168.783 135.472 168.346 135.184C168.218 135.109 168.132 135.018 168.09 134.912C168.058 134.805 168.052 134.698 168.074 134.592C168.095 134.496 168.143 134.405 168.218 134.32C168.292 134.245 168.378 134.197 168.474 134.176C168.58 134.154 168.687 134.17 168.794 134.224C169.263 134.512 169.711 134.709 170.138 134.816C170.564 134.922 170.986 134.976 171.402 134.976C172.159 134.976 172.73 134.773 173.114 134.368C173.508 133.962 173.706 133.376 173.706 132.608V130.8H173.866C173.706 131.418 173.364 131.909 172.842 132.272C172.33 132.634 171.727 132.816 171.034 132.816C170.319 132.816 169.7 132.656 169.178 132.336C168.655 132.005 168.25 131.546 167.962 130.96C167.684 130.373 167.546 129.696 167.546 128.928C167.546 128.352 167.626 127.829 167.786 127.36C167.946 126.88 168.175 126.474 168.474 126.144C168.783 125.802 169.151 125.541 169.578 125.36C170.015 125.168 170.5 125.072 171.034 125.072C171.738 125.072 172.346 125.253 172.858 125.616C173.37 125.968 173.7 126.448 173.85 127.056L173.69 127.248V125.76C173.69 125.546 173.743 125.386 173.85 125.28C173.967 125.162 174.127 125.104 174.33 125.104C174.543 125.104 174.703 125.162 174.81 125.28C174.916 125.386 174.97 125.546 174.97 125.76V132.432C174.97 133.616 174.671 134.506 174.074 135.104C173.487 135.712 172.618 136.016 171.466 136.016ZM171.274 131.76C171.775 131.76 172.207 131.648 172.57 131.424C172.932 131.189 173.21 130.858 173.402 130.432C173.604 130.005 173.706 129.504 173.706 128.928C173.706 128.064 173.487 127.381 173.05 126.88C172.612 126.368 172.02 126.112 171.274 126.112C170.783 126.112 170.356 126.229 169.994 126.464C169.631 126.688 169.348 127.013 169.146 127.44C168.954 127.856 168.858 128.352 168.858 128.928C168.858 129.792 169.076 130.48 169.514 130.992C169.951 131.504 170.538 131.76 171.274 131.76ZM178.057 133.104C177.843 133.104 177.678 133.045 177.561 132.928C177.454 132.81 177.401 132.645 177.401 132.432V125.76C177.401 125.546 177.454 125.386 177.561 125.28C177.667 125.162 177.822 125.104 178.025 125.104C178.227 125.104 178.382 125.162 178.489 125.28C178.606 125.386 178.665 125.546 178.665 125.76V127.056H178.505C178.675 126.426 179.001 125.941 179.481 125.6C179.961 125.258 180.553 125.077 181.257 125.056C181.417 125.045 181.545 125.082 181.641 125.168C181.737 125.242 181.79 125.376 181.801 125.568C181.811 125.749 181.769 125.893 181.673 126C181.577 126.106 181.427 126.17 181.225 126.192L180.969 126.224C180.243 126.288 179.683 126.522 179.289 126.928C178.905 127.322 178.713 127.866 178.713 128.56V132.432C178.713 132.645 178.654 132.81 178.537 132.928C178.43 133.045 178.27 133.104 178.057 133.104ZM186.273 133.136C185.516 133.136 184.86 132.97 184.305 132.64C183.751 132.309 183.319 131.845 183.009 131.248C182.711 130.64 182.561 129.925 182.561 129.104C182.561 128.485 182.647 127.93 182.817 127.44C182.988 126.938 183.239 126.512 183.569 126.16C183.9 125.808 184.289 125.541 184.737 125.36C185.196 125.168 185.708 125.072 186.273 125.072C187.031 125.072 187.687 125.237 188.241 125.568C188.796 125.898 189.223 126.368 189.521 126.976C189.831 127.573 189.985 128.282 189.985 129.104C189.985 129.722 189.9 130.277 189.729 130.768C189.559 131.258 189.308 131.685 188.977 132.048C188.647 132.4 188.252 132.672 187.793 132.864C187.345 133.045 186.839 133.136 186.273 133.136ZM186.273 132.096C186.753 132.096 187.175 131.978 187.537 131.744C187.9 131.509 188.177 131.168 188.369 130.72C188.572 130.272 188.673 129.733 188.673 129.104C188.673 128.133 188.455 127.392 188.017 126.88C187.591 126.368 187.009 126.112 186.273 126.112C185.783 126.112 185.356 126.229 184.993 126.464C184.641 126.688 184.364 127.024 184.161 127.472C183.969 127.909 183.873 128.453 183.873 129.104C183.873 130.064 184.092 130.805 184.529 131.328C184.967 131.84 185.548 132.096 186.273 132.096Z" fill="#1A1A1A"/>
<path d="M319.479 11.754C319.199 5.31726 313.882 -5.39195e-05 307.446 -5.44822e-05L258.753 -5.87391e-05C252.037 -5.93262e-05 246.72 5.31727 246.72 12.0339L246.72 84.2375C246.72 90.9541 252.317 96.5513 258.753 96.5513L307.446 96.5513C314.162 96.5513 319.759 90.9541 319.759 84.2375L319.759 12.5936C319.479 12.3137 319.479 12.0339 319.479 11.754ZM306.326 76.4014C306.326 80.3195 303.248 83.3979 299.33 83.3979L266.029 83.3979C262.111 83.3979 259.033 80.3195 259.033 76.4014L259.033 19.5901C259.033 15.9519 262.111 12.8734 265.749 12.8734L299.61 12.8734C303.248 12.8734 306.326 15.9519 306.326 19.5901L306.326 76.4014Z" fill="black"/>
<path d="M306.326 76.4015C306.326 80.3195 303.248 83.3979 299.33 83.3979L266.029 83.3979C262.111 83.3979 259.033 80.3195 259.033 76.4015L259.033 19.5901C259.033 15.952 262.111 12.8735 265.749 12.8735L299.61 12.8735C303.248 12.8735 306.326 15.952 306.326 19.5901L306.326 76.4015Z" fill="white"/>
<path d="M264.501 133.695C263.797 133.695 263.189 133.514 262.677 133.151C262.175 132.789 261.839 132.303 261.669 131.695L261.845 131.519V132.991C261.845 133.205 261.786 133.37 261.669 133.487C261.562 133.605 261.407 133.663 261.205 133.663C260.991 133.663 260.831 133.605 260.725 133.487C260.618 133.37 260.565 133.205 260.565 132.991V122.815C260.565 122.602 260.618 122.442 260.725 122.335C260.831 122.218 260.991 122.159 261.205 122.159C261.407 122.159 261.567 122.218 261.685 122.335C261.802 122.442 261.861 122.602 261.861 122.815V127.583H261.669C261.85 126.986 262.191 126.511 262.693 126.159C263.194 125.807 263.797 125.631 264.501 125.631C265.205 125.631 265.813 125.797 266.325 126.127C266.837 126.447 267.231 126.911 267.509 127.519C267.797 128.117 267.941 128.831 267.941 129.663C267.941 130.485 267.797 131.199 267.509 131.807C267.231 132.405 266.831 132.869 266.309 133.199C265.797 133.53 265.194 133.695 264.501 133.695ZM264.229 132.655C264.719 132.655 265.141 132.538 265.493 132.303C265.855 132.069 266.133 131.727 266.325 131.279C266.527 130.831 266.629 130.293 266.629 129.663C266.629 128.693 266.41 127.951 265.973 127.439C265.546 126.927 264.965 126.671 264.229 126.671C263.749 126.671 263.327 126.789 262.965 127.023C262.602 127.247 262.319 127.583 262.117 128.031C261.925 128.469 261.829 129.013 261.829 129.663C261.829 130.623 262.047 131.365 262.485 131.887C262.922 132.399 263.503 132.655 264.229 132.655ZM272.261 133.695C271.493 133.695 270.906 133.461 270.501 132.991C270.095 132.522 269.893 131.85 269.893 130.975V122.815C269.893 122.602 269.946 122.442 270.053 122.335C270.159 122.218 270.319 122.159 270.533 122.159C270.735 122.159 270.895 122.218 271.013 122.335C271.13 122.442 271.189 122.602 271.189 122.815V130.879C271.189 131.455 271.301 131.887 271.525 132.175C271.759 132.453 272.101 132.591 272.549 132.591C272.645 132.591 272.73 132.586 272.805 132.575C272.879 132.565 272.954 132.559 273.029 132.559C273.146 132.549 273.226 132.575 273.269 132.639C273.322 132.703 273.349 132.831 273.349 133.023C273.349 133.215 273.306 133.359 273.221 133.455C273.135 133.551 272.997 133.615 272.805 133.647C272.719 133.658 272.629 133.669 272.533 133.679C272.437 133.69 272.346 133.695 272.261 133.695ZM277.075 133.695C276.542 133.695 276.062 133.594 275.635 133.391C275.219 133.178 274.888 132.89 274.643 132.527C274.398 132.165 274.275 131.759 274.275 131.311C274.275 130.735 274.419 130.282 274.707 129.951C275.006 129.621 275.491 129.386 276.163 129.247C276.846 129.109 277.774 129.039 278.947 129.039H279.667V129.887H278.963C278.099 129.887 277.416 129.93 276.915 130.015C276.424 130.09 276.078 130.223 275.875 130.415C275.683 130.607 275.587 130.879 275.587 131.231C275.587 131.669 275.736 132.026 276.035 132.303C276.344 132.581 276.76 132.719 277.283 132.719C277.71 132.719 278.083 132.618 278.403 132.415C278.734 132.213 278.99 131.935 279.171 131.583C279.363 131.231 279.459 130.826 279.459 130.367V128.543C279.459 127.882 279.326 127.407 279.059 127.119C278.792 126.821 278.355 126.671 277.747 126.671C277.374 126.671 277 126.719 276.627 126.815C276.254 126.911 275.859 127.066 275.443 127.279C275.294 127.354 275.166 127.381 275.059 127.359C274.952 127.327 274.867 127.269 274.803 127.183C274.739 127.098 274.702 127.002 274.691 126.895C274.68 126.778 274.702 126.666 274.755 126.559C274.819 126.453 274.915 126.367 275.043 126.303C275.512 126.069 275.976 125.898 276.435 125.791C276.894 125.685 277.331 125.631 277.747 125.631C278.419 125.631 278.974 125.743 279.411 125.967C279.848 126.181 280.174 126.511 280.387 126.959C280.6 127.397 280.707 127.962 280.707 128.655V132.991C280.707 133.205 280.654 133.37 280.547 133.487C280.451 133.605 280.307 133.663 280.115 133.663C279.912 133.663 279.758 133.605 279.651 133.487C279.544 133.37 279.491 133.205 279.491 132.991V131.743H279.635C279.55 132.149 279.384 132.495 279.139 132.783C278.904 133.071 278.611 133.295 278.259 133.455C277.907 133.615 277.512 133.695 277.075 133.695ZM283.752 133.663C283.538 133.663 283.378 133.605 283.272 133.487C283.165 133.37 283.112 133.205 283.112 132.991V126.319C283.112 126.106 283.165 125.946 283.272 125.839C283.378 125.722 283.533 125.663 283.736 125.663C283.938 125.663 284.093 125.722 284.2 125.839C284.317 125.946 284.376 126.106 284.376 126.319V127.695L284.2 127.503C284.424 126.885 284.786 126.421 285.288 126.111C285.8 125.791 286.386 125.631 287.048 125.631C287.666 125.631 288.178 125.743 288.584 125.967C289 126.191 289.309 126.533 289.512 126.991C289.714 127.439 289.816 128.01 289.816 128.703V132.991C289.816 133.205 289.757 133.37 289.64 133.487C289.533 133.605 289.378 133.663 289.176 133.663C288.962 133.663 288.797 133.605 288.68 133.487C288.573 133.37 288.52 133.205 288.52 132.991V128.783C288.52 128.058 288.376 127.53 288.088 127.199C287.81 126.858 287.362 126.687 286.744 126.687C286.029 126.687 285.458 126.911 285.032 127.359C284.616 127.797 284.408 128.383 284.408 129.119V132.991C284.408 133.439 284.189 133.663 283.752 133.663ZM295.501 133.695C294.723 133.695 294.051 133.525 293.485 133.183C292.92 132.842 292.483 132.367 292.173 131.759C291.875 131.141 291.725 130.426 291.725 129.615C291.725 128.997 291.811 128.442 291.981 127.951C292.152 127.461 292.403 127.045 292.733 126.703C293.064 126.351 293.459 126.085 293.917 125.903C294.387 125.722 294.915 125.631 295.501 125.631C295.885 125.631 296.285 125.69 296.701 125.807C297.117 125.925 297.496 126.127 297.837 126.415C297.944 126.49 298.013 126.581 298.045 126.687C298.077 126.794 298.077 126.901 298.045 127.007C298.013 127.103 297.96 127.189 297.885 127.263C297.811 127.327 297.715 127.365 297.597 127.375C297.491 127.386 297.379 127.349 297.261 127.263C296.984 127.05 296.701 126.901 296.413 126.815C296.125 126.73 295.848 126.687 295.581 126.687C295.165 126.687 294.803 126.757 294.493 126.895C294.184 127.023 293.923 127.21 293.709 127.455C293.496 127.701 293.331 128.005 293.213 128.367C293.107 128.73 293.053 129.151 293.053 129.631C293.053 130.559 293.272 131.295 293.709 131.839C294.147 132.373 294.771 132.639 295.581 132.639C295.848 132.639 296.12 132.597 296.397 132.511C296.685 132.426 296.973 132.277 297.261 132.063C297.379 131.978 297.491 131.941 297.597 131.951C297.704 131.962 297.795 132.005 297.869 132.079C297.944 132.143 297.992 132.229 298.013 132.335C298.045 132.442 298.045 132.549 298.013 132.655C297.981 132.751 297.912 132.837 297.805 132.911C297.464 133.189 297.091 133.391 296.685 133.519C296.28 133.637 295.885 133.695 295.501 133.695ZM302.687 133.695C301.93 133.695 301.274 133.53 300.719 133.199C300.165 132.869 299.733 132.405 299.423 131.807C299.125 131.199 298.975 130.485 298.975 129.663C298.975 129.045 299.061 128.49 299.231 127.999C299.402 127.498 299.653 127.071 299.983 126.719C300.314 126.367 300.703 126.101 301.151 125.919C301.61 125.727 302.122 125.631 302.687 125.631C303.445 125.631 304.101 125.797 304.655 126.127C305.21 126.458 305.637 126.927 305.935 127.535C306.245 128.133 306.399 128.842 306.399 129.663C306.399 130.282 306.314 130.837 306.143 131.327C305.973 131.818 305.722 132.245 305.391 132.607C305.061 132.959 304.666 133.231 304.207 133.423C303.759 133.605 303.253 133.695 302.687 133.695ZM302.687 132.655C303.167 132.655 303.589 132.538 303.951 132.303C304.314 132.069 304.591 131.727 304.783 131.279C304.986 130.831 305.087 130.293 305.087 129.663C305.087 128.693 304.869 127.951 304.431 127.439C304.005 126.927 303.423 126.671 302.687 126.671C302.197 126.671 301.77 126.789 301.407 127.023C301.055 127.247 300.778 127.583 300.575 128.031C300.383 128.469 300.287 129.013 300.287 129.663C300.287 130.623 300.506 131.365 300.943 131.887C301.381 132.399 301.962 132.655 302.687 132.655Z" fill="#1A1A1A"/>
</svg>
