<?xml version="1.0" encoding="utf-8"?>
<!-- Generator: Adobe Illustrator 26.1.0, SVG Export Plug-In . SVG Version: 6.00 Build 0)  -->
<svg version="1.1" id="Capa_1" xmlns="http://www.w3.org/2000/svg" xmlns:xlink="http://www.w3.org/1999/xlink" x="0px" y="0px"
	 viewBox="0 0 200 150" style="enable-background:new 0 0 200 150;" xml:space="preserve">
<style type="text/css">
	.st0{fill:#142852;}
	.st1{fill:#485AFF;}
	.st2{fill:#CC232C;}
	.st3{fill:#F2DC41;}
</style>
<path class="st0" d="M3.4,95.8c0-1.9,0-5.3,0-10.1L3.2,53.5h6.5l0.1,19.9c1.3-4.2,3.2-8.2,5.6-11.8c1.6-2.6,3.8-4.8,6.3-6.5
	c1.8-1.2,3.9-1.9,6-2c2.7-0.1,5.4,1,7.2,3c1.8,2,3,5.6,3.7,10.7h0.5c2.4-0.1,4.7,0.4,6.8,1.6c1.8,1.3,3.1,3.2,3.7,5.4
	c0.9,3.4,1.3,6.9,1.2,10.4v15.1h-6.5V84.2c0.1-2.4-0.1-4.9-0.5-7.2c-0.2-1.3-0.7-2.5-1.6-3.4c-0.9-0.6-1.9-0.9-3-0.9
	c0.1,2.4,0.1,4.5,0.1,6.1c0,5-0.8,8.6-2.2,10.8c-1.5,2.2-4,3.5-6.6,3.4c-2.4,0.1-4.6-0.8-6.2-2.5c-1.5-1.7-2.2-4.2-2.2-7.5
	c-0.1-3.4,0.9-6.8,2.9-9.6c1.9-2.5,4.6-4.4,7.6-5.4c-0.1-2-0.4-3.9-0.9-5.8c-0.2-1-0.8-1.9-1.6-2.5c-0.7-0.4-1.6-0.7-2.5-0.6
	c-1.7,0-3.8,1.2-6.1,3.6s-4.5,6.6-6.7,12.6s-3.7,14-4.7,24.1H3.4C3.4,98.9,3.4,97.7,3.4,95.8z M28.9,86.1c0.2,0.6,0.8,1,1.5,1
	c0.5,0,1-0.2,1.3-0.6c0.4-0.7,0.7-1.5,0.8-2.4c0.2-1.8,0.3-3.5,0.3-5.3L32.6,74c-2.8,1.6-4.2,4.5-4.2,8.9
	C28.3,84,28.5,85.1,28.9,86.1z"/>
<path class="st0" d="M56.3,53.5h6.5v45.7h-6.5V53.5z"/>
<path class="st0" d="M180.6,81.8c-1.4-1.7-3.1-3-5.1-4c-2.5-1.2-5.2-2.2-7.8-3.1c-2.5-0.9-4.5-1.7-5.8-2.3c-1.3-0.6-2.5-1.4-3.5-2.3
	c-0.9-0.9-1.4-2.1-1.4-3.4v-0.4c1.9,1.1,3.9,2.1,6,2.8c2.2,0.7,4.4,1,6.7,1c1.9,0,3.8-0.3,5.5-1.1c1.4-0.6,2.7-1.6,3.6-2.8
	c0.8-1.1,1.2-2.4,1.2-3.7c-0.1-1.3-0.6-2.6-1.5-3.5c-1.2-1.3-2.8-2.3-4.5-2.8c-4.4-1.4-9.2-1.5-13.6-0.3c-1.9,0.5-3.7,1.3-5.3,2.5
	c-1.5-0.5-4.6-1.2-5.4-1.3c-0.1,0-0.2-0.1-0.3-0.1c-0.9-0.2-1.8-0.3-2.7-0.4c-1.4-0.1-2.6-0.2-3.4-0.2c-1.5,0-3,0.2-4.4,0.7
	c-3.4-2.7-7.7-4.1-12.1-4c-2.7-0.2-5.5,0.6-7.8,2c-1.9,1.2-3,3.2-3,5.4c0,1.4,0.5,2.7,1.3,3.7c1,1.2,2.3,2.2,3.8,2.8
	c1.8,0.8,3.8,1.1,5.7,1.1c1.6,0,3.1-0.2,4.7-0.6c1.1-0.3,2.2-0.7,3.2-1.2c0.8-0.5,1.9-1.1,3.1-2c1.3,1.8,2.3,3.9,2.9,6.1
	c0.7,2.5,1,5,1,7.5c0,5.3-1.3,9.3-3.9,12.1c-2.6,2.8-6.1,4.2-10.6,4.2c-2.6,0-5.1-0.7-7.3-2c-2.2-1.3-3.9-3.2-5-5.5
	c-1.2-2.5-1.9-5.2-1.8-8c-0.1-2.3,0.3-4.7,1-6.9c0.8-2,1.9-3.8,3.3-5.4l-4.8-3.9c-2,2.1-3.5,4.6-4.5,7.4c-1.6,4.7-1.9,9.7-0.9,14.5
	c-3.4,3.3-9.3,9.7-18,9.7c-4.5,0-8-1.5-10.6-4.6s-3.8-7.4-3.8-13.1s1.2-10,3.6-13s5.8-4.6,10.3-4.6c1.9,0,3.7,0.3,5.5,0.9
	c1.7,0.6,3.4,1.5,4.8,2.6l4.3-4.1c-1.8-1.8-4-3.1-6.3-3.9c-2.7-1-5.5-1.4-8.3-1.4c-6.7,0-11.8,2-15.4,6.1c-3.6,4-5.4,9.9-5.4,17.4
	c0,7.6,1.8,13.4,5.4,17.5s8.7,6.1,15.4,6.1c3.2,0,6.4-0.6,9.3-1.8c4.5-1.7,8.6-5.3,11.3-8.1c1.7,3,4.1,5.5,7,7.2
	c3.3,1.9,7,2.9,10.8,2.8c3.8,0.1,7.5-0.9,10.8-2.8c3.2-1.8,5.8-4.5,7.5-7.8c1.9-3.6,2.8-7.6,2.7-11.7c0-2.8-0.4-5.7-1.1-8.4
	c-0.7-2.6-1.9-5.1-3.4-7.4c1.3,0,2.6,0.1,3.9,0.2l0,0l1,0.2c0.8,0.1,1.6,0.3,2.4,0.6c-0.4,1.1-0.6,2.2-0.6,3.4
	c-0.1,2.5,0.7,4.9,2.1,6.9c1.4,1.8,3.2,3.2,5.2,4.2c2.6,1.3,5.2,2.4,7.9,3.4c2.4,0.8,4.2,1.6,5.6,2.2c1.3,0.6,2.4,1.3,3.4,2.3
	c0.9,0.9,1.4,2.1,1.4,3.3c0.1,2.1-0.8,4.1-2.4,5.4c-1.6,1.3-4.2,1.9-7.9,1.9c-2.5,0-5-0.5-7.3-1.5c-2.5-1.1-4.8-2.6-6.7-4.5l-4,4.6
	c2.1,2.5,4.8,4.4,7.8,5.5c3.3,1.2,6.8,1.8,10.3,1.8c5.8,0,10-1.2,12.8-3.7c2.8-2.5,4.1-5.9,4.1-10.2C182.8,85.9,182,83.6,180.6,81.8
	z M166.4,60.9c1.9-0.1,3.8,0.1,5.6,0.5c0.9,0.3,1.4,0.8,1.4,1.4c0,0.5-0.4,1-0.9,1.1c-1,0.3-2.1,0.5-3.1,0.4c-1.4,0-2.7-0.2-4-0.7
	c-1.4-0.6-2.7-1.3-4-2.2C163.1,61,164.7,60.8,166.4,60.9z M130,61.8c-1.1,0.4-2.3,0.5-3.5,0.5c-1,0.1-2-0.1-3-0.4
	c-0.5-0.2-0.9-0.7-0.9-1.3c0-1.1,1.4-1.7,4.2-1.7c2.2,0,4.3,0.5,6.3,1.4C132.2,60.9,131.1,61.4,130,61.8z"/>
<circle class="st1" cx="60" cy="40.6" r="7.2"/>
<path class="st2" d="M109,103.2l4.5,1.1c2.1,0.5,3.5,2.7,2.9,4.8l-1.1,4.5c-0.5,2.1-2.7,3.5-4.8,2.9l-4.5-1.1
	c-2.1-0.5-3.5-2.7-2.9-4.8l1.1-4.5C104.7,104,106.8,102.7,109,103.2z"/>
<path class="st3" d="M195.3,83.1L184.4,78c-0.6-0.3-0.9-1-0.6-1.6l10.4-7.6c0.5-0.4,1.3-0.3,1.7,0.3c0.1,0.2,0.2,0.4,0.2,0.6
	l0.8,12.8C196.6,83.1,195.9,83.4,195.3,83.1z"/>
</svg>
