<svg id="Capa_1" data-name="Capa 1" xmlns="http://www.w3.org/2000/svg" viewBox="0 0 200 150"><defs><style>.cls-1{fill:#485aff;}.cls-2{fill:#cc232c;}.cls-3{fill:#f2dc41;}</style></defs><path d="M3.36,95.8q0-2.91,0-10.09l-.2-32.19H9.66l.13,19.85a46.87,46.87,0,0,1,5.55-11.85A23.1,23.1,0,0,1,21.64,55a11.4,11.4,0,0,1,6-2,9.06,9.06,0,0,1,7.18,3q2.69,3,3.73,10.74h.52a12.43,12.43,0,0,1,6.79,1.6,9.44,9.44,0,0,1,3.66,5.38,36.61,36.61,0,0,1,1.17,10.39V99.23H44.2V84.15a37.57,37.57,0,0,0-.52-7.25,5.85,5.85,0,0,0-1.6-3.37,4.61,4.61,0,0,0-3-.88q.14,3.66.13,6.08,0,7.44-2.25,10.8a7.49,7.49,0,0,1-6.63,3.36,7.9,7.9,0,0,1-6.24-2.54q-2.25-2.55-2.25-7.51a15.62,15.62,0,0,1,2.87-9.63,15.34,15.34,0,0,1,7.64-5.39A28.44,28.44,0,0,0,31.44,62a4.68,4.68,0,0,0-1.57-2.54,4.35,4.35,0,0,0-2.45-.62c-1.74,0-3.76,1.2-6.07,3.62s-4.54,6.63-6.69,12.63-3.74,14-4.74,24.1H3.39C3.39,98.88,3.38,97.74,3.36,95.8Zm25.53-9.73a1.58,1.58,0,0,0,1.47,1,1.67,1.67,0,0,0,1.34-.59,5.32,5.32,0,0,0,.75-2.38,40.82,40.82,0,0,0,.26-5.32L32.64,74q-4.25,2.36-4.24,8.88A7.55,7.55,0,0,0,28.89,86.07Z"/><path d="M56.28,53.52h6.53V99.23H56.28Z"/><path d="M180.56,81.82a15.06,15.06,0,0,0-5.06-4,79.32,79.32,0,0,0-7.81-3.13c-2.52-.92-4.47-1.67-5.84-2.29a11.07,11.07,0,0,1-3.46-2.35A4.64,4.64,0,0,1,157,66.7v-.4a35.56,35.56,0,0,0,6,2.85,20.08,20.08,0,0,0,6.69,1,13.05,13.05,0,0,0,5.49-1.08,8.73,8.73,0,0,0,3.59-2.84A6.34,6.34,0,0,0,180,62.52,5.52,5.52,0,0,0,178.53,59a10.24,10.24,0,0,0-4.5-2.84,24.71,24.71,0,0,0-13.65-.29,16.38,16.38,0,0,0-5.29,2.45c-1.46-.5-4.62-1.18-5.35-1.33a1.92,1.92,0,0,1-.32-.09,15.35,15.35,0,0,0-2.68-.36c-1.41-.11-2.55-.17-3.43-.17a12.84,12.84,0,0,0-4.44.72,19,19,0,0,0-12.07-4A13.15,13.15,0,0,0,119,55.12,6.41,6.41,0,0,0,116,60.51a6.09,6.09,0,0,0,1.31,3.75,9.19,9.19,0,0,0,3.75,2.81,14.07,14.07,0,0,0,5.72,1.08,17.47,17.47,0,0,0,4.66-.55,15.15,15.15,0,0,0,3.24-1.25c.82-.46,1.87-1.12,3.13-2a19.05,19.05,0,0,1,2.87,6.11,27.5,27.5,0,0,1,1,7.54q0,7.89-3.88,12.11t-10.55,4.21a13.74,13.74,0,0,1-7.28-2,13.25,13.25,0,0,1-5-5.48,17.28,17.28,0,0,1-1.8-8,20.23,20.23,0,0,1,1-6.89,16.76,16.76,0,0,1,3.33-5.38l-4.83-3.92A23.5,23.5,0,0,0,108.12,70a26.54,26.54,0,0,0-.88,14.5c-3.36,3.32-9.29,9.72-18,9.69-4.53,0-8-1.53-10.55-4.6s-3.75-7.43-3.75-13.1,1.19-10,3.59-13,5.83-4.57,10.32-4.57a16.72,16.72,0,0,1,5.51.91,16.31,16.31,0,0,1,4.8,2.61l4.31-4.11a16.94,16.94,0,0,0-6.33-3.92A24.31,24.31,0,0,0,88.8,53q-10,0-15.38,6.07T68,76.5Q68,87.87,73.42,94t15.38,6.11a26.31,26.31,0,0,0,9.33-1.8c4.52-1.67,8.63-5.27,11.32-8.09a19.23,19.23,0,0,0,7,7.21,20.59,20.59,0,0,0,10.77,2.81A21.09,21.09,0,0,0,138,97.46a19.4,19.4,0,0,0,7.51-7.8A24,24,0,0,0,148.21,78a31,31,0,0,0-1.14-8.39,25.75,25.75,0,0,0-3.36-7.41,24,24,0,0,1,3.9.24h0l1,.25a16,16,0,0,1,2.41.59,9.67,9.67,0,0,0-.58,3.4,10.78,10.78,0,0,0,2.15,6.89,15.6,15.6,0,0,0,5.19,4.24,81.65,81.65,0,0,0,7.93,3.36q3.54,1.25,5.59,2.19a11.1,11.1,0,0,1,3.39,2.32A4.51,4.51,0,0,1,176.05,89a6.44,6.44,0,0,1-2.38,5.36q-2.38,1.89-7.94,1.89a19.16,19.16,0,0,1-7.31-1.5,21,21,0,0,1-6.72-4.51l-4,4.64a18.72,18.72,0,0,0,7.77,5.49,28.93,28.93,0,0,0,10.31,1.76q8.63,0,12.77-3.73c2.77-2.48,4.14-5.87,4.14-10.18A9.6,9.6,0,0,0,180.56,81.82ZM166.39,60.89a22.34,22.34,0,0,1,5.64.45q1.41.46,1.41,1.44a1.21,1.21,0,0,1-.85,1.11,8.46,8.46,0,0,1-3.13.39,10.41,10.41,0,0,1-4-.65,30.3,30.3,0,0,1-4-2.15A17,17,0,0,1,166.39,60.89ZM130,61.75a10.76,10.76,0,0,1-3.49.52,7.75,7.75,0,0,1-3-.42,1.38,1.38,0,0,1-.88-1.27c0-1.14,1.42-1.7,4.25-1.7a14,14,0,0,1,6.27,1.43A17.56,17.56,0,0,1,130,61.75Z"/><circle class="cls-1" cx="60.02" cy="40.58" r="7.24"/><rect class="cls-2" x="103.41" y="103.56" width="12.61" height="12.61" rx="4" transform="translate(29.25 -22.92) rotate(13.75)"/><path class="cls-3" d="M195.27,83.09,184.39,78a1.21,1.21,0,0,1-.58-1.6l10.37-7.6a1.2,1.2,0,0,1,1.91.89l.78,12.84A1.21,1.21,0,0,1,195.27,83.09Z"/></svg>