<svg id="Capa_1" data-name="Capa 1" xmlns="http://www.w3.org/2000/svg" viewBox="0 0 200 150"><defs><style>.cls-1{fill:#fcf7f7;}.cls-2{fill:#212121;}.cls-3{fill:#485aff;}.cls-4{fill:#cc232c;}.cls-5{fill:#f2dc41;}</style></defs><path class="cls-1" d="M171.22,75.32c0,39.43-32.16,75.28-71.4,71.39-39-3.87-71-37.94-71-77.37S61-3,99.82,3.93C139.21,11,171.22,35.89,171.22,75.32Z"/><path class="cls-2" d="M58.92,44.67c-.26-.21-.7-.59-1.32-1.13l-4.21-3.62.74-.84,2.59,2.22a8.24,8.24,0,0,1-.91-2.06,4,4,0,0,1-.14-1.56,2.08,2.08,0,0,1,.42-1,1.57,1.57,0,0,1,1.21-.59,3.62,3.62,0,0,1,1.82.73l.06-.07a2.12,2.12,0,0,1,1-.7,1.62,1.62,0,0,1,1.12.13,6,6,0,0,1,1.48,1l2,1.7-.74.85L62,38a5.93,5.93,0,0,0-1-.75,1,1,0,0,0-.62-.17.8.8,0,0,0-.45.28l.81.67a3.46,3.46,0,0,1,1.15,1.52,1.29,1.29,0,0,1-.31,1.24,1.34,1.34,0,0,1-1,.52,1.87,1.87,0,0,1-1.23-.55,2.77,2.77,0,0,1-.93-1.46,2.72,2.72,0,0,1,.16-1.61,4.66,4.66,0,0,0-.85-.53.79.79,0,0,0-.51-.08.76.76,0,0,0-.36.25,1.63,1.63,0,0,0-.22,1.2,6.49,6.49,0,0,0,.89,2.3,18.34,18.34,0,0,0,2.6,3.34l-.73.85Zm1.61-4.42a.27.27,0,0,0,.29-.08.29.29,0,0,0,.08-.24.94.94,0,0,0-.23-.37,5.92,5.92,0,0,0-.66-.64l-.63-.53A1.6,1.6,0,0,0,60.06,40,1.44,1.44,0,0,0,60.53,40.25Z"/><path class="cls-2" d="M60,32.71l.83-.77,5.36,5.78-.83.76Z"/><path class="cls-2" d="M70.69,33.84a4.18,4.18,0,0,1-1.08,1.24,3.34,3.34,0,0,1-2.74.79,4.39,4.39,0,0,1-2.58-1.81,4.39,4.39,0,0,1-1.11-2.94,3.33,3.33,0,0,1,1.45-2.45A4.07,4.07,0,0,1,65.9,28a3,3,0,0,1,1.28-.14l-.15,1a2.67,2.67,0,0,0-.93.15,2.81,2.81,0,0,0-.85.46,2.1,2.1,0,0,0-.92,1.71,3.58,3.58,0,0,0,.89,2.16,3.46,3.46,0,0,0,1.9,1.38A2.19,2.19,0,0,0,69,34.23a2.82,2.82,0,0,0,1.11-1.83l.91,0A2.79,2.79,0,0,1,70.69,33.84Z"/><path class="cls-2" d="M73.05,32.08a3.39,3.39,0,0,1-1.75-.51A4,4,0,0,1,70,30.18a4.18,4.18,0,0,1-.55-1.46,4.13,4.13,0,0,1,0-1.48l1.06.16a2.93,2.93,0,0,0,0,1.1A3.5,3.5,0,0,0,71,29.61a3,3,0,0,0,1,1,2.36,2.36,0,0,0,1.22.38,2.6,2.6,0,0,0,2.46-1.87A3,3,0,0,0,75.14,27a5,5,0,0,0-.8-1,3.3,3.3,0,0,0-1-.66c-.11.24-.21.43-.29.57a2.35,2.35,0,0,1-.38.46,3.15,3.15,0,0,1-.64.49,2.35,2.35,0,0,1-.95.33,1.7,1.7,0,0,1-.8-.09,1.09,1.09,0,0,1-.55-1.51,2.24,2.24,0,0,1,1-1,3.23,3.23,0,0,1,2.15-.44,2.14,2.14,0,0,1,.6-.49,4.77,4.77,0,0,1,.52-.27,1.84,1.84,0,0,1,.47-.18l.19,1a3.31,3.31,0,0,0-.61.3,4.45,4.45,0,0,1,1.14.82,5.28,5.28,0,0,1,.89,1.15,4.16,4.16,0,0,1,.6,2,3.33,3.33,0,0,1-.45,1.82,3.62,3.62,0,0,1-1.36,1.33A3.52,3.52,0,0,1,73.05,32.08Zm-2-5.9a1.42,1.42,0,0,0,.49-.2A2.06,2.06,0,0,0,72,25.6a2.89,2.89,0,0,0,.33-.48,2.38,2.38,0,0,0-1,.32c-.43.25-.59.46-.49.62A.23.23,0,0,0,71,26.18Z"/><path class="cls-2" d="M79.53,28.82a3.26,3.26,0,0,1-1.6-.38l.35-1a3.49,3.49,0,0,0,1.36.28,3.12,3.12,0,0,0,1.27-.23,2.23,2.23,0,0,0,1.14-.81,1.12,1.12,0,0,0,0-1,.78.78,0,0,0-.43-.44,1.84,1.84,0,0,0-.69-.15c-.26,0-.6,0-1,0a13.87,13.87,0,0,1-1.49,0,2.67,2.67,0,0,1-1.1-.34,1.85,1.85,0,0,1-.79-1,1.68,1.68,0,0,1-.13-.58,2,2,0,0,0-.42.07l-.21-1a5.74,5.74,0,0,1,1-.14,3,3,0,0,1,.69-.73,4,4,0,0,1,.91-.52,3.68,3.68,0,0,1,1.29-.32,1.82,1.82,0,0,1,.9.16.93.93,0,0,1,.46.48,1.09,1.09,0,0,1,0,.67,1.61,1.61,0,0,1-.39.69,2.53,2.53,0,0,1-.81.53,3.75,3.75,0,0,1-1.14.27,6.52,6.52,0,0,1-1.13-.07l0,.06a.81.81,0,0,0,.44.45,1.85,1.85,0,0,0,.71.16c.26,0,.62,0,1.08,0a11.55,11.55,0,0,1,1.45,0,2.59,2.59,0,0,1,1.06.3,1.65,1.65,0,0,1,.75.88,2.25,2.25,0,0,1,0,1.9,3.26,3.26,0,0,1-1.8,1.42A5.1,5.1,0,0,1,79.53,28.82Zm-.77-6.52a2,2,0,0,0,.68-.15,1.4,1.4,0,0,0,.47-.27.2.2,0,0,0,.07-.23c0-.1-.15-.15-.32-.14a4,4,0,0,0-.93.3,2.74,2.74,0,0,0-.75.41A5.4,5.4,0,0,0,78.76,22.3Z"/><path class="cls-2" d="M92.54,25a4,4,0,0,1-1.52.6,3.3,3.3,0,0,1-2.8-.54,4.37,4.37,0,0,1-1.47-2.78,4.4,4.4,0,0,1,.35-3.13,3.35,3.35,0,0,1,2.41-1.52,4,4,0,0,1,1.45,0,2.87,2.87,0,0,1,1.2.46l-.6.83a3.06,3.06,0,0,0-.9-.29,2.82,2.82,0,0,0-1,0,2.12,2.12,0,0,0-1.6,1.1,3.57,3.57,0,0,0-.19,2.33A3.42,3.42,0,0,0,89,24.17a2.19,2.19,0,0,0,1.93.44,2.8,2.8,0,0,0,1.82-1.12l.81.43A2.82,2.82,0,0,1,92.54,25Z"/><path class="cls-2" d="M94.75,24a4.36,4.36,0,0,1-1.08-3A4.33,4.33,0,0,1,94.45,18a3.86,3.86,0,0,1,5.29-.26,4.41,4.41,0,0,1,1.08,2.95A4.45,4.45,0,0,1,100,23.7a3.85,3.85,0,0,1-5.29.27Zm.83-.79a2.17,2.17,0,0,0,1.82.7A2.13,2.13,0,0,0,99.13,23a3.57,3.57,0,0,0,.51-2.29,3.6,3.6,0,0,0-.73-2.22,2.18,2.18,0,0,0-1.82-.7,2.13,2.13,0,0,0-1.73.88A3.54,3.54,0,0,0,94.85,21,3.61,3.61,0,0,0,95.58,23.18Z"/><path class="cls-2" d="M102.32,16.79l1.12.09-.57,6.84,4.27.36-.09,1-5.39-.45Z"/><path class="cls-2" d="M108.15,24.35a4.42,4.42,0,0,1-.28-3.14,4.45,4.45,0,0,1,1.54-2.75,3.87,3.87,0,0,1,5.18,1.11,4.39,4.39,0,0,1,.28,3.13,4.37,4.37,0,0,1-1.53,2.75,3.86,3.86,0,0,1-5.19-1.1Zm1-.55a2.41,2.41,0,0,0,3.48.74,3.64,3.64,0,0,0,1.08-2.08,3.61,3.61,0,0,0-.14-2.33,2.41,2.41,0,0,0-3.48-.75A3.58,3.58,0,0,0,109,21.46,3.59,3.59,0,0,0,109.16,23.8Z"/><path class="cls-2" d="M119.22,27.64c.08-.25.12-.42.14-.5.1-.3.18-.58.25-.86a1.6,1.6,0,0,0,0-1.07,1.27,1.27,0,0,0-.76-.64l-1.89-.69-1.21,3.27-1-.39,2.72-7.39,3.41,1.25a2.16,2.16,0,0,1,1.31,1.1,2.29,2.29,0,0,1,0,1.74,1.67,1.67,0,0,1-.58.79,1.81,1.81,0,0,1-1,.32,1.54,1.54,0,0,1,.35.91,4.32,4.32,0,0,1-.14,1.21c-.07.27-.15.56-.25.85l-.14.51c-.07.26-.13.5-.18.73L119,28.37C119.09,28.14,119.15,27.9,119.22,27.64Zm.2-3.92a1.31,1.31,0,0,0,1,0,1.16,1.16,0,0,0,.58-.7,1.2,1.2,0,0,0,0-.95,1.24,1.24,0,0,0-.75-.61l-2.13-.78-.81,2.21Z"/><path class="cls-2" d="M128.09,33a3.89,3.89,0,0,1-1.53-.58,3.34,3.34,0,0,1-1.71-2.28,4.42,4.42,0,0,1,.78-3.05A4.46,4.46,0,0,1,128,25a3.35,3.35,0,0,1,2.8.5,4.27,4.27,0,0,1,1.1.95,2.92,2.92,0,0,1,.57,1.14l-1,.22A2.91,2.91,0,0,0,131,27a3,3,0,0,0-.73-.63,2.15,2.15,0,0,0-1.93-.26,3.65,3.65,0,0,0-1.7,1.6A3.48,3.48,0,0,0,126,30a2.22,2.22,0,0,0,1.13,1.63,2.85,2.85,0,0,0,2.11.39l.31.86A2.8,2.8,0,0,1,128.09,33Z"/><path class="cls-2" d="M130.43,33.71a4.36,4.36,0,0,1,1.19-2.92,4.34,4.34,0,0,1,2.62-1.73,3.87,3.87,0,0,1,4.1,3.36,4.32,4.32,0,0,1-1.19,2.91,4.4,4.4,0,0,1-2.63,1.74,3.87,3.87,0,0,1-4.09-3.36Zm1.15,0a2.1,2.1,0,0,0,.87,1.74,2.14,2.14,0,0,0,1.87.52,3.59,3.59,0,0,0,1.92-1.36,3.58,3.58,0,0,0,.95-2.13,2.41,2.41,0,0,0-2.75-2.26,3.65,3.65,0,0,0-1.91,1.35A3.57,3.57,0,0,0,131.58,33.68Z"/><path class="cls-2" d="M140.93,33.52l2,2.23a3.41,3.41,0,0,1,1,2.66,5,5,0,0,1-4.31,3.91,3.39,3.39,0,0,1-2.54-1.27l-2-2.23Zm-3.05,6.85a2.19,2.19,0,0,0,1.76.8,3.42,3.42,0,0,0,2-1,3.37,3.37,0,0,0,1.18-1.92,2.18,2.18,0,0,0-.63-1.83L140.94,35,136.61,39Z"/><path class="cls-2" d="M146.37,39.76l2.9,4.16-.83.58-2.26-3.24-1.94,1.35,2,2.88-.83.58-2-2.88-2,1.41,2.25,3.25-.83.57-2.9-4.16Z"/><path class="cls-2" d="M146.77,54.49l1.64-.57,5.23-1.85.37,1.07-3.23,1.14a7.82,7.82,0,0,1,2.25.23,4,4,0,0,1,1.42.66,2,2,0,0,1,.66.87,1.56,1.56,0,0,1-.09,1.34,3.52,3.52,0,0,1-1.54,1.21l0,.09a2.18,2.18,0,0,1,.12,1.2,1.6,1.6,0,0,1-.67.9,6.3,6.3,0,0,1-1.62.77l-2.46.85-.37-1.06,2.46-.85a5.75,5.75,0,0,0,1.15-.5,1,1,0,0,0,.46-.45.76.76,0,0,0,0-.53l-1,.37a3.48,3.48,0,0,1-1.88.24,1.32,1.32,0,0,1-.93-.89,1.37,1.37,0,0,1,.07-1.16,1.89,1.89,0,0,1,1.09-.79,2.66,2.66,0,0,1,1.73-.08,2.61,2.61,0,0,1,1.31.94,4.81,4.81,0,0,0,.89-.48.82.82,0,0,0,.33-.4.73.73,0,0,0,0-.43,1.64,1.64,0,0,0-.93-.78,6.35,6.35,0,0,0-2.44-.38,17.72,17.72,0,0,0-4.19.59l-.37-1.07Zm3,3.61a.28.28,0,0,0-.07.3.28.28,0,0,0,.17.18.89.89,0,0,0,.43,0,7.19,7.19,0,0,0,.88-.26L152,58a1.62,1.62,0,0,0-1.69-.19A1.58,1.58,0,0,0,149.79,58.1Z"/><path class="cls-2" d="M156.58,61.43l.25,1.1-7.68,1.75-.25-1.1Z"/><path class="cls-2" d="M150.26,70.1a4.05,4.05,0,0,1-.52-1.56,3.32,3.32,0,0,1,.68-2.76,5.34,5.34,0,0,1,6-.82,3.4,3.4,0,0,1,1.4,2.49,4.05,4.05,0,0,1-.05,1.44,2.82,2.82,0,0,1-.52,1.18l-.8-.64a2.75,2.75,0,0,0,.33-.88,2.63,2.63,0,0,0,0-1,2.11,2.11,0,0,0-1-1.65,3.57,3.57,0,0,0-2.31-.31,3.45,3.45,0,0,0-2.15.95,2.17,2.17,0,0,0-.54,1.9,2.88,2.88,0,0,0,1,1.89l-.47.78A3,3,0,0,1,150.26,70.1Z"/><path class="cls-2" d="M150.57,73a3.4,3.4,0,0,1,1.3-1.28,4,4,0,0,1,1.86-.48,4.33,4.33,0,0,1,1.54.24,3.94,3.94,0,0,1,1.27.77l-.67.84a2.82,2.82,0,0,0-.93-.56,3.54,3.54,0,0,0-1.19-.16,3,3,0,0,0-1.37.33,2.32,2.32,0,0,0-.93.88,2.58,2.58,0,0,0,.44,3.07,3,3,0,0,0,2.09.64,5.29,5.29,0,0,0,1.3-.19,3.23,3.23,0,0,0,1.05-.52,5,5,0,0,1-.36-.53,3,3,0,0,1-.22-.55,3.17,3.17,0,0,1-.11-.81,2.57,2.57,0,0,1,.17-1,1.56,1.56,0,0,1,.48-.65,1.1,1.1,0,0,1,.64-.24,1.13,1.13,0,0,1,.94.5,2.31,2.31,0,0,1,.38,1.34,3.26,3.26,0,0,1-.66,2.09,2.3,2.3,0,0,1,.13.77c0,.15,0,.34,0,.59a2.5,2.5,0,0,1-.07.49l-1-.31a3.38,3.38,0,0,0,0-.69,4.57,4.57,0,0,1-1.26.6,5.41,5.41,0,0,1-1.45.22,4.1,4.1,0,0,1-2-.44,3.43,3.43,0,0,1-1.37-1.27,3.67,3.67,0,0,1-.5-1.84A3.56,3.56,0,0,1,150.57,73Zm6.15,1.09a1.37,1.37,0,0,0-.07.53,2.21,2.21,0,0,0,.1.6,3.24,3.24,0,0,0,.26.53,2.31,2.31,0,0,0,.23-1.08c0-.49-.11-.73-.3-.73A.23.23,0,0,0,156.72,74.09Z"/><path class="cls-2" d="M150.2,80.27a3.05,3.05,0,0,1,1.12-1.19l.69.8a3.47,3.47,0,0,0-.92,1,3.09,3.09,0,0,0-.43,1.21,2.2,2.2,0,0,0,.13,1.4,1.11,1.11,0,0,0,.86.53.78.78,0,0,0,.59-.15,1.86,1.86,0,0,0,.48-.52c.14-.22.3-.52.5-.9s.54-1,.76-1.28a2.8,2.8,0,0,1,.85-.79,1.84,1.84,0,0,1,1.23-.2,1.75,1.75,0,0,1,.56.18,2.78,2.78,0,0,0,.16-.4l1,.31a5.28,5.28,0,0,1-.36.9,2.85,2.85,0,0,1,.3,1,4.52,4.52,0,0,1,0,1,4.24,4.24,0,0,1-.37,1.28,1.78,1.78,0,0,1-.6.7,1,1,0,0,1-.64.17,1.07,1.07,0,0,1-.6-.3,1.49,1.49,0,0,1-.4-.68,2.21,2.21,0,0,1-.06-1,3.38,3.38,0,0,1,.33-1.11,6.05,6.05,0,0,1,.63-1h-.07a.83.83,0,0,0-.61.16,1.79,1.79,0,0,0-.48.54c-.14.22-.32.53-.53.94a13.32,13.32,0,0,1-.72,1.26,2.63,2.63,0,0,1-.79.77,1.66,1.66,0,0,1-1.14.21,2.23,2.23,0,0,1-1.64-.95,3.24,3.24,0,0,1-.34-2.27A4.9,4.9,0,0,1,150.2,80.27Zm6,2.58a1.82,1.82,0,0,0-.21.67,1.39,1.39,0,0,0,0,.54.2.2,0,0,0,.17.17c.11,0,.21,0,.28-.2a3.68,3.68,0,0,0,.21-1,3.1,3.1,0,0,0,0-.85A4.57,4.57,0,0,0,156.23,82.85Z"/><path class="cls-2" d="M147,93.45a4.07,4.07,0,0,1,.24-1.62,3.35,3.35,0,0,1,1.86-2.16,5.33,5.33,0,0,1,5.68,2,3.33,3.33,0,0,1,.12,2.85,4.18,4.18,0,0,1-.69,1.27,2.9,2.9,0,0,1-1,.81l-.43-.93a2.66,2.66,0,0,0,.7-.64,2.86,2.86,0,0,0,.46-.84,2.14,2.14,0,0,0-.16-1.94,3.61,3.61,0,0,0-1.93-1.33,3.43,3.43,0,0,0-2.34-.12,2.23,2.23,0,0,0-1.35,1.45,2.9,2.9,0,0,0,.07,2.15l-.78.48A2.91,2.91,0,0,1,147,93.45Z"/><path class="cls-2" d="M146.82,95.88a5.31,5.31,0,0,1,5.35,2.74,3.88,3.88,0,0,1-2.41,4.72,4.43,4.43,0,0,1-3.1-.54,4.48,4.48,0,0,1-2.26-2.2,3.86,3.86,0,0,1,2.42-4.72Zm.27,1.12a2.4,2.4,0,0,0-1.62,3.16,4.39,4.39,0,0,0,4,2.06A2.16,2.16,0,0,0,151,101a2.13,2.13,0,0,0,.1-1.94,4.43,4.43,0,0,0-4-2Z"/><path class="cls-2" d="M149.25,106l-.64.93L143,103l-2.45,3.51-.83-.57,3.09-4.45Z"/><path class="cls-2" d="M139.78,107.3a5.32,5.32,0,0,1,4.46,4,3.89,3.89,0,0,1-3.55,3.94,5.35,5.35,0,0,1-4.46-4,3.85,3.85,0,0,1,3.55-3.94Zm0,1.15a2.16,2.16,0,0,0-1.78.79,2.13,2.13,0,0,0-.6,1.85,3.57,3.57,0,0,0,1.26,2,3.61,3.61,0,0,0,2.09,1.05,2.42,2.42,0,0,0,2.38-2.64,3.52,3.52,0,0,0-1.26-2A3.6,3.6,0,0,0,139.75,108.45Z"/><path class="cls-2" d="M131.4,115.24l.36.38c.21.23.42.44.62.64a1.64,1.64,0,0,0,1,.5,1.26,1.26,0,0,0,.93-.34l1.55-1.29-2.24-2.68.86-.72,5.06,6-2.79,2.33a2.13,2.13,0,0,1-1.61.59,2.33,2.33,0,0,1-1.49-.9,1.73,1.73,0,0,1-.39-.9,1.82,1.82,0,0,1,.2-1,1.47,1.47,0,0,1-1-.15,4,4,0,0,1-1-.72c-.21-.2-.42-.42-.62-.64l-.37-.38-.54-.52.9-.76C131,114.88,131.21,115.05,131.4,115.24Zm3.3,2.14a1.22,1.22,0,0,0-.5.8,1.12,1.12,0,0,0,.31.85,1.17,1.17,0,0,0,.82.48,1.26,1.26,0,0,0,.91-.34l1.73-1.45-1.51-1.82Z"/><path class="cls-2" d="M122.33,120.27a4.13,4.13,0,0,1,1.27-1,3.34,3.34,0,0,1,2.83-.34,5.32,5.32,0,0,1,2.88,5.28,3.36,3.36,0,0,1-1.83,2.19,4.32,4.32,0,0,1-1.36.47,2.92,2.92,0,0,1-1.29-.07l.32-1a2.7,2.7,0,0,0,.94,0,2.73,2.73,0,0,0,.91-.31,2.12,2.12,0,0,0,1.18-1.55,3.63,3.63,0,0,0-.53-2.27A3.54,3.54,0,0,0,126,120a2.23,2.23,0,0,0-2,.17,2.87,2.87,0,0,0-1.39,1.64l-.9-.17A3,3,0,0,1,122.33,120.27Z"/><path class="cls-2" d="M120.57,121.94a5.34,5.34,0,0,1,2.12,5.63,3.32,3.32,0,0,1-2.11,1.91,3.36,3.36,0,0,1-2.85,0A4.39,4.39,0,0,1,115.8,127a4.43,4.43,0,0,1-.19-3.15,3.85,3.85,0,0,1,5-1.87Zm-.56,1a2.39,2.39,0,0,0-3.32,1.25,4.44,4.44,0,0,0,1.59,4.23,2.42,2.42,0,0,0,3.33-1.26A4.44,4.44,0,0,0,120,123Z"/><path class="cls-2" d="M115.47,131.14l-3,.64a3.36,3.36,0,0,1-2.81-.44,5,5,0,0,1-1.23-5.69,3.41,3.41,0,0,1,2.37-1.57l3-.63Zm-4.4-6.07a2.15,2.15,0,0,0-1.57,1.13,4,4,0,0,0,.91,4.22,2.16,2.16,0,0,0,1.89.37l1.85-.4-1.24-5.72Z"/><path class="cls-2" d="M97,125.92c0,.33-.12.91-.23,1.72l-.73,5.5L94.91,133l.44-3.39a8.13,8.13,0,0,1-1.23,1.89,3.89,3.89,0,0,1-1.22,1,2.12,2.12,0,0,1-1.08.2,1.63,1.63,0,0,1-1.16-.69,3.69,3.69,0,0,1-.38-1.92l-.09,0a2.09,2.09,0,0,1-1.12-.43,1.65,1.65,0,0,1-.5-1,6.23,6.23,0,0,1,.05-1.8l.35-2.57,1.12.15L89.73,127a6.93,6.93,0,0,0-.08,1.25,1,1,0,0,0,.19.61.77.77,0,0,0,.49.22c0-.42.08-.76.12-1a3.45,3.45,0,0,1,.64-1.79,1.28,1.28,0,0,1,1.21-.42,1.35,1.35,0,0,1,1,.58,1.88,1.88,0,0,1,.21,1.34,2.65,2.65,0,0,1-.72,1.57,2.57,2.57,0,0,1-1.43.74,5,5,0,0,0,0,1,.76.76,0,0,0,.21.47.74.74,0,0,0,.4.17,1.61,1.61,0,0,0,1.12-.48,6.35,6.35,0,0,0,1.44-2,18,18,0,0,0,1.38-4l1.11.15C97,125.39,97,125.59,97,125.92ZM92.39,127a.29.29,0,0,0-.47-.13.87.87,0,0,0-.19.39c0,.2-.11.5-.17.9l-.1.82a1.61,1.61,0,0,0,.94-1.42A1.41,1.41,0,0,0,92.39,127Z"/><path class="cls-2" d="M86.35,131.53l-1.09-.28,1.92-7.64,1.09.28Z"/><path class="cls-2" d="M81.48,122a3.9,3.9,0,0,1,1.62.24,3.32,3.32,0,0,1,2.16,1.86,4.43,4.43,0,0,1-.11,3.15,4.36,4.36,0,0,1-1.87,2.53,3.33,3.33,0,0,1-2.85.12,4.31,4.31,0,0,1-1.27-.69,3,3,0,0,1-.81-1l.94-.43a2.8,2.8,0,0,0,.63.7,2.91,2.91,0,0,0,.85.46,2.12,2.12,0,0,0,1.94-.16A3.57,3.57,0,0,0,84,126.82a3.5,3.5,0,0,0,.13-2.34,2.23,2.23,0,0,0-1.45-1.35,2.85,2.85,0,0,0-2.15.06l-.48-.77A2.91,2.91,0,0,1,81.48,122Z"/><path class="cls-2" d="M78.72,120.94a3.25,3.25,0,0,1,.52,1.74,3.93,3.93,0,0,1-.45,1.87,4.21,4.21,0,0,1-.93,1.25,4,4,0,0,1-1.27.76l-.43-1a3.1,3.1,0,0,0,.93-.57,3.53,3.53,0,0,0,.7-1,3,3,0,0,0,.35-1.36,2.32,2.32,0,0,0-.35-1.24,2.38,2.38,0,0,0-1-.87,2.41,2.41,0,0,0-2-.18,3,3,0,0,0-1.54,1.56,4.4,4.4,0,0,0-.44,1.24,3,3,0,0,0,0,1.16,4.34,4.34,0,0,1,.64-.06,2.22,2.22,0,0,1,.59.06,3.1,3.1,0,0,1,.76.28,2.38,2.38,0,0,1,.79.61A1.52,1.52,0,0,1,76,126a1.13,1.13,0,0,1-.09.68,1.11,1.11,0,0,1-.88.59,2.25,2.25,0,0,1-1.37-.28,3.32,3.32,0,0,1-1.53-1.57,2.21,2.21,0,0,1-.74-.24c-.14-.07-.31-.16-.52-.29a3,3,0,0,1-.4-.29l.73-.7a4.55,4.55,0,0,0,.59.35,4.41,4.41,0,0,1,.06-1.4,5.65,5.65,0,0,1,.48-1.38,4.19,4.19,0,0,1,1.34-1.58,3.45,3.45,0,0,1,1.76-.61,3.67,3.67,0,0,1,1.86.42A3.5,3.5,0,0,1,78.72,120.94Zm-3.85,4.91a1.29,1.29,0,0,0-.43-.3,2,2,0,0,0-.58-.2,3.75,3.75,0,0,0-.59,0,2.35,2.35,0,0,0,.85.71c.44.22.7.25.79.08A.25.25,0,0,0,74.87,125.85Z"/><path class="cls-2" d="M72.46,117.28a3.2,3.2,0,0,1,.56,1.54l-1,.25a3.61,3.61,0,0,0-.51-1.3,3.27,3.27,0,0,0-.88-.93,2.21,2.21,0,0,0-1.31-.52,1.1,1.1,0,0,0-.86.52.78.78,0,0,0-.14.59,2.12,2.12,0,0,0,.25.67c.13.22.32.51.57.86a11.93,11.93,0,0,1,.79,1.26,2.49,2.49,0,0,1,.31,1.11,1.86,1.86,0,0,1-.37,1.19,1.68,1.68,0,0,1-.42.42,2.79,2.79,0,0,0,.28.32L69,124a5.91,5.91,0,0,1-.64-.72,3,3,0,0,1-1-.18,3.72,3.72,0,0,1-.93-.48,4.1,4.1,0,0,1-1-.91,1.81,1.81,0,0,1-.35-.85.94.94,0,0,1,.15-.64,1.12,1.12,0,0,1,.54-.41,1.59,1.59,0,0,1,.79,0,2.19,2.19,0,0,1,.88.39,3.41,3.41,0,0,1,.84.8,7.6,7.6,0,0,1,.57,1l0,0a.79.79,0,0,0,.14-.62,1.77,1.77,0,0,0-.25-.67q-.21-.33-.6-.9a11.38,11.38,0,0,1-.79-1.22,2.48,2.48,0,0,1-.33-1,1.64,1.64,0,0,1,.34-1.11,2.22,2.22,0,0,1,1.59-1,3.2,3.2,0,0,1,2.17.74A5,5,0,0,1,72.46,117.28Zm-5,4.18a1.87,1.87,0,0,0-.49-.48,1.56,1.56,0,0,0-.49-.26.21.21,0,0,0-.23.08c-.06.09,0,.2.06.34a3.93,3.93,0,0,0,.75.62,3.09,3.09,0,0,0,.75.4A5,5,0,0,0,67.41,121.46Z"/><path class="cls-2" d="M62.18,108.43a4,4,0,0,1,1.34.95A3.36,3.36,0,0,1,64.6,112a4.42,4.42,0,0,1-1.53,2.75,4.32,4.32,0,0,1-2.81,1.41A3.34,3.34,0,0,1,57.67,115a4.35,4.35,0,0,1-.82-1.2,2.85,2.85,0,0,1-.27-1.25l1,0a3.24,3.24,0,0,0,.25.91,2.88,2.88,0,0,0,.55.79,2.1,2.1,0,0,0,1.8.74,3.56,3.56,0,0,0,2-1.11,3.5,3.5,0,0,0,1.18-2,2.22,2.22,0,0,0-.69-1.86,2.85,2.85,0,0,0-1.94-.92l-.07-.9A2.82,2.82,0,0,1,62.18,108.43Z"/><path class="cls-2" d="M60.1,107.16a4.46,4.46,0,0,1-1.9,2.52,4.39,4.39,0,0,1-3,1,3.88,3.88,0,0,1-3.12-4.29A5.32,5.32,0,0,1,57,102.87a3.34,3.34,0,0,1,2.41,1.52A3.39,3.39,0,0,1,60.1,107.16ZM59,106.89a2.14,2.14,0,0,0-.41-1.9,2.12,2.12,0,0,0-1.68-1,3.63,3.63,0,0,0-2.2.83,3.58,3.58,0,0,0-1.45,1.82,2.1,2.1,0,0,0,.4,1.9,2.12,2.12,0,0,0,1.69,1A4.43,4.43,0,0,0,59,106.89Z"/><path class="cls-2" d="M49.94,104.72l-.53-1,6.05-3.24-2-3.78.89-.48L56.88,101Z"/><path class="cls-2" d="M53.1,95.71a4.41,4.41,0,0,1-2.48,2,4.39,4.39,0,0,1-3.13.2,3.87,3.87,0,0,1-1.9-5A4.4,4.4,0,0,1,48.07,91a4.42,4.42,0,0,1,3.14-.21,3.86,3.86,0,0,1,1.89,4.95Zm-1-.54a2.41,2.41,0,0,0-1.27-3.33,3.65,3.65,0,0,0-2.33.23,3.54,3.54,0,0,0-1.88,1.39,2.4,2.4,0,0,0,1.27,3.32,4.44,4.44,0,0,0,4.21-1.61Z"/><path class="cls-2" d="M49.84,84.64l-.5.15-.85.26a1.62,1.62,0,0,0-.88.62,1.24,1.24,0,0,0-.12,1l.45,2,3.4-.78.25,1.1-7.68,1.75-.81-3.55a2.18,2.18,0,0,1,.21-1.7,2.28,2.28,0,0,1,1.48-.91,1.63,1.63,0,0,1,1,.06,1.84,1.84,0,0,1,.8.63,1.48,1.48,0,0,1,.57-.78,4.1,4.1,0,0,1,1.09-.54c.27-.09.55-.18.85-.26l.5-.16c.26-.07.49-.16.71-.24l.26,1.15A7.24,7.24,0,0,1,49.84,84.64Zm-3.4,2a1.22,1.22,0,0,0-.49-.8,1.11,1.11,0,0,0-.89-.12,1.22,1.22,0,0,0-.81.51,1.3,1.3,0,0,0-.11,1l.5,2.2L47,88.84Z"/><path class="cls-2" d="M49.51,74.28a4.12,4.12,0,0,1,.35,1.6,3.37,3.37,0,0,1-1,2.68,4.44,4.44,0,0,1-3,1,4.43,4.43,0,0,1-3-.85,3.36,3.36,0,0,1-1.11-2.62,4,4,0,0,1,.2-1.44,2.9,2.9,0,0,1,.64-1.11l.73.73a2.78,2.78,0,0,0-.43.84,3,3,0,0,0-.13.95,2.13,2.13,0,0,0,.84,1.76,3.58,3.58,0,0,0,2.26.56,3.48,3.48,0,0,0,2.24-.71,2.21,2.21,0,0,0,.75-1.84,2.91,2.91,0,0,0-.82-2l.55-.72A2.9,2.9,0,0,1,49.51,74.28Z"/><path class="cls-2" d="M48.82,71.93a4.41,4.41,0,0,1-3.09.6,4.4,4.4,0,0,1-2.89-1.25A3.88,3.88,0,0,1,43.42,66a4.39,4.39,0,0,1,3.09-.6,4.4,4.4,0,0,1,2.89,1.26,3.36,3.36,0,0,1,.76,2.75A3.32,3.32,0,0,1,48.82,71.93ZM48.17,71a2.4,2.4,0,0,0,.39-3.54,3.56,3.56,0,0,0-2.18-.86,3.48,3.48,0,0,0-2.3.37,2.39,2.39,0,0,0-.39,3.53,3.5,3.5,0,0,0,2.17.86A3.58,3.58,0,0,0,48.17,71Z"/><path class="cls-2" d="M42.93,63.22l.76-2.91A3.44,3.44,0,0,1,45.36,58a4.22,4.22,0,0,1,3-.15A4.16,4.16,0,0,1,51,59.48a3.36,3.36,0,0,1,.32,2.83l-.76,2.92Zm7.4-1.17A2.13,2.13,0,0,0,50,60.14,3.28,3.28,0,0,0,48.11,59a3.34,3.34,0,0,0-2.25,0,2.21,2.21,0,0,0-1.19,1.52l-.48,1.83,5.66,1.49Z"/><path class="cls-2" d="M45.2,55.27l1.91-4.7.94.38-1.49,3.66,2.19.89,1.32-3.25.94.39-1.33,3.25,2.3.93,1.49-3.66.94.39-1.92,4.7Z"/><circle class="cls-3" cx="83.49" cy="54.6" r="10.2"/><rect class="cls-4" x="107.26" y="62.27" width="20.4" height="20.4" rx="4" transform="translate(56.36 -51.29) rotate(32.05)"/><path class="cls-5" d="M100.15,97l-14.3,12a1.88,1.88,0,0,1-2.64-.23l-4-19.6A1.88,1.88,0,0,1,81.75,87l18.63,7.27A1.87,1.87,0,0,1,100.15,97Z"/></svg>