<svg width="320" height="166" viewBox="0 0 320 166" fill="none" xmlns="http://www.w3.org/2000/svg">
<path d="M16.9282 131.704C7.60221 131.704 0 139.32 0 148.762C0 158.16 7.55801 165.821 16.9282 165.821C26.2541 165.821 33.8563 158.205 33.8563 148.762C33.8121 139.32 26.2541 131.704 16.9282 131.704ZM16.9282 161.1C9.98895 161.1 4.33149 155.443 4.33149 148.406C4.33149 141.413 9.94475 135.712 16.9282 135.712C23.8674 135.712 29.5249 141.369 29.5249 148.406C29.4807 155.399 23.8674 161.1 16.9282 161.1Z" fill="#8AD2F3"/>
<path d="M16.9282 66.6318C7.60221 66.6318 0 74.2482 0 83.6906C0 93.0885 7.55801 100.749 16.9282 100.749C26.2541 100.749 33.8563 93.1331 33.8563 83.6906C33.8121 74.2482 26.2541 66.6318 16.9282 66.6318ZM16.9282 96.0281C9.98895 96.0281 4.33149 90.3716 4.33149 83.3343C4.33149 76.3415 9.94475 70.6404 16.9282 70.6404C23.8674 70.6404 29.5249 76.297 29.5249 83.3343C29.4807 90.327 23.8674 96.0281 16.9282 96.0281Z" fill="#28348A"/>
<path d="M16.8834 91.8419C21.5458 91.8419 25.3254 88.0331 25.3254 83.3347C25.3254 78.6364 21.5458 74.8276 16.8834 74.8276C12.221 74.8276 8.44141 78.6364 8.44141 83.3347C8.44141 88.0331 12.221 91.8419 16.8834 91.8419Z" fill="#28348A"/>
<path d="M17.017 34.2069C26.3662 34.2069 33.9452 26.5694 33.9452 17.1481C33.9452 7.72682 26.3662 0.0893555 17.017 0.0893555C7.66787 0.0893555 0.0888672 7.72682 0.0888672 17.1481C0.0888672 26.5694 7.66787 34.2069 17.017 34.2069Z" fill="#009FE3"/>
<path d="M212.288 34.2513C221.637 34.2513 229.216 26.6138 229.216 17.1925C229.216 7.77125 221.637 0.133789 212.288 0.133789C202.938 0.133789 195.359 7.77125 195.359 17.1925C195.359 26.6138 202.938 34.2513 212.288 34.2513Z" fill="#69B653"/>
<path d="M223.072 26.7238H201.812C200.928 26.7238 200.354 25.7885 200.751 24.9867L211.359 4.72112C211.801 3.87486 212.995 3.87486 213.437 4.72112L224.044 24.9867C224.53 25.7885 223.956 26.7238 223.072 26.7238ZM205.26 24.6304H219.624C220.508 24.6304 221.083 23.6951 220.685 22.8934L213.525 9.1751C213.083 8.32885 211.89 8.32885 211.448 9.1751L204.287 22.8934C203.801 23.6951 204.376 24.6304 205.26 24.6304Z" fill="white"/>
<path d="M212.375 131.882C203.049 131.882 195.447 139.499 195.447 148.941C195.447 158.339 203.005 166 212.375 166C221.746 166 229.304 158.384 229.304 148.941C229.259 139.543 221.701 131.882 212.375 131.882ZM201.193 155.355L210.74 137.093C211.403 135.802 213.259 135.802 213.922 137.093L223.469 155.355C224.088 156.557 223.248 158.027 221.878 158.027H202.74C201.458 158.027 200.574 156.602 201.193 155.355Z" fill="#BCD364"/>
<path d="M147.447 70.1504V97.2307C147.447 98.7005 148.641 99.903 150.099 99.903H176.972C178.431 99.903 179.624 98.7005 179.624 97.2307V70.1504C179.624 68.6806 178.431 67.478 176.972 67.478H150.099C148.641 67.478 147.447 68.6806 147.447 70.1504ZM172.729 95.6272L154.386 95.6718C152.928 95.6718 151.735 94.4692 151.735 92.9994V74.5153C151.735 73.0455 152.928 71.8429 154.386 71.8429L172.729 71.7984C174.188 71.7984 175.381 73.001 175.381 74.4708V92.9548C175.381 94.4246 174.188 95.6272 172.729 95.6272Z" fill="#563484"/>
<path d="M163.536 91.797C167.979 91.797 171.581 88.1677 171.581 83.6907C171.581 79.2138 167.979 75.5845 163.536 75.5845C159.094 75.5845 155.492 79.2138 155.492 83.6907C155.492 88.1677 159.094 91.797 163.536 91.797Z" fill="#563484"/>
<path d="M176.662 33.1822H150.098C148.551 33.1822 147.313 31.9351 147.313 30.3762V4.00865C147.313 2.44975 148.551 1.20264 150.098 1.20264H176.662C178.208 1.20264 179.446 2.44975 179.446 4.00865V30.3762C179.49 31.8906 178.208 33.1822 176.662 33.1822Z" fill="#A94794"/>
<path d="M164.552 28.5051C157.304 29.2178 151.248 23.2049 152 15.9894C152.53 10.6446 156.862 6.32428 162.21 5.83434C169.458 5.1217 175.514 11.1346 174.762 18.35C174.232 23.6503 169.9 27.9706 164.552 28.5051ZM164.641 7.66047C158.364 6.85876 153.06 12.159 153.856 18.3946C154.386 22.6704 157.834 26.1 162.121 26.6345C168.397 27.4362 173.701 22.1359 172.906 15.9003C172.375 11.6691 168.884 8.19495 164.641 7.66047Z" fill="white"/>
<path d="M147.271 135.491V163.551C147.271 164.665 148.154 165.511 149.259 165.511H177.547C178.652 165.511 179.536 164.62 179.536 163.551V135.491C179.536 134.378 178.652 133.531 177.547 133.531H149.259C148.154 133.531 147.271 134.422 147.271 135.491ZM164.729 162.66C156.552 163.462 149.746 156.692 150.541 148.63C151.16 142.617 156.022 137.807 162.077 137.184C170.254 136.382 177.061 143.152 176.265 151.258C175.646 157.226 170.784 162.037 164.729 162.66Z" fill="#CDA8D0"/>
<path d="M319.999 5.16696C319.911 3.02904 318.143 1.29199 315.977 1.29199H299.977C297.767 1.29199 295.955 3.11813 295.955 5.34512V29.1739C295.955 31.4009 297.767 33.2271 299.977 33.2271H315.977C318.187 33.2271 319.999 31.4009 319.999 29.1739V5.38966C319.999 5.30058 319.999 5.2115 319.999 5.16696ZM315.756 26.5906C315.756 27.8823 314.74 28.9067 313.458 28.9067H302.497C301.215 28.9067 300.198 27.8823 300.198 26.5906V16.0792H315.756V26.5906Z" fill="#9C9B9B"/>
<path d="M319.999 71.5317C319.911 69.3938 318.143 67.6567 315.977 67.6567H299.977C297.767 67.6567 295.955 69.4829 295.955 71.7099V95.5387C295.955 97.7657 297.767 99.5918 299.977 99.5918H315.977C318.187 99.5918 319.999 97.7657 319.999 95.5387V71.7544C319.999 71.7099 319.999 71.6208 319.999 71.5317ZM315.756 92.9999C315.756 94.247 314.74 95.316 313.458 95.316H302.497C301.215 95.316 300.198 94.2916 300.198 92.9999V74.1595C300.198 72.957 301.171 71.9771 302.364 71.9771H313.546C314.74 71.9771 315.712 72.957 315.712 74.1595V92.9999H315.756Z" fill="black"/>
<path d="M313.458 77.4549V89.4806C313.458 90.5941 312.662 91.5295 311.645 91.5295H304.441C303.425 91.5295 302.629 90.5941 302.629 89.4806V77.544C302.629 76.4305 303.425 75.4951 304.441 75.4951H311.645C312.618 75.5397 313.413 76.3859 313.458 77.4549Z" fill="black"/>
<path d="M319.999 137.138C319.911 135 318.143 133.263 315.977 133.263H299.977C297.767 133.263 295.955 135.089 295.955 137.316V161.1C295.955 163.327 297.767 165.153 299.977 165.153H315.977C318.187 165.153 319.999 163.327 319.999 161.1V137.36C319.999 137.271 319.999 137.182 319.999 137.138ZM315.756 158.517C315.756 159.764 314.74 160.833 313.458 160.833H302.541C301.303 160.833 300.242 159.808 300.242 158.517V139.676C300.242 138.474 301.215 137.494 302.408 137.494H313.546C314.74 137.494 315.712 138.474 315.712 139.676V158.517H315.756Z" fill="black"/>
<path d="M80.4418 33.1373H53.9225C52.3755 33.1373 51.0938 31.8456 51.0938 30.2867V3.83004C51.0938 2.27114 52.3755 0.979492 53.9225 0.979492H80.4418C81.9888 0.979492 83.2705 2.27114 83.2705 3.83004V30.2867C83.2705 31.8901 82.033 33.1373 80.4418 33.1373Z" fill="#E30613"/>
<path d="M51.0938 70.106V97.1862C51.0938 98.656 52.2871 99.8586 53.7457 99.8586H80.6186C82.0772 99.8586 83.2705 98.656 83.2705 97.1862V70.106C83.2705 68.6362 82.0772 67.4336 80.6186 67.4336H53.7457C52.2871 67.4336 51.0938 68.6362 51.0938 70.106ZM76.3755 95.5382L58.033 95.5828C56.5744 95.5828 55.381 94.3802 55.381 92.9104V74.4263C55.381 72.9565 56.5744 71.754 58.033 71.754L76.3755 71.7094C77.8341 71.7094 79.0274 72.912 79.0274 74.3818V92.8658C79.0274 94.3357 77.8341 95.5382 76.3755 95.5382Z" fill="#8C1819"/>
<path d="M73.2821 92.1079H60.7738C59.8014 92.1079 59.0059 91.3062 59.0059 90.3263V77.7215C59.0059 76.7417 59.8014 75.9399 60.7738 75.9399H73.2821C74.2545 75.9399 75.0501 76.7417 75.0501 77.7215V90.3263C75.0942 91.3062 74.2987 92.1079 73.2821 92.1079Z" fill="#8C1819"/>
<path d="M51.2266 135.669V162.482C51.2266 163.952 52.4199 165.154 53.8785 165.154H80.4862C81.9448 165.154 83.1382 163.952 83.1382 162.482V135.669C83.1382 134.199 81.9448 132.997 80.4862 132.997H53.8785C52.3757 132.997 51.2266 134.199 51.2266 135.669ZM76.2431 160.923L58.0774 160.968C56.6188 160.968 55.4255 159.765 55.4255 158.295V139.989C55.4255 138.52 56.6188 137.317 58.0774 137.317L76.2431 137.272C77.7017 137.272 78.8951 138.475 78.8951 139.945V158.251C78.8951 159.72 77.7017 160.923 76.2431 160.923Z" fill="#E777AC"/>
<path d="M131.403 162.704L116.022 132.327C115.359 131.08 113.591 131.08 112.928 132.327L97.6351 162.704C97.0163 163.862 97.856 165.287 99.182 165.287H129.856C131.182 165.242 132.022 163.862 131.403 162.704ZM125.392 161.768H103.911C102.939 161.768 102.276 160.655 102.762 159.719L113.326 138.073C113.812 137.093 115.005 137.093 115.491 138.073L126.63 159.63C127.072 160.566 126.364 161.768 125.392 161.768Z" fill="#FEF18A"/>
<path d="M129.989 33.0486H99.3588C98.0328 33.0486 97.193 31.6233 97.8118 30.4653L113.149 0.935337C113.812 -0.311779 115.58 -0.311779 116.243 0.935337L131.58 30.4653C132.154 31.6233 131.315 33.0486 129.989 33.0486Z" fill="#FFED00"/>
<path d="M131.713 97.4526L116.597 67.121C115.934 65.8739 113.857 65.8293 113.194 67.0764L97.8567 97.4526C97.2379 98.6107 98.0777 100.036 99.4037 100.036H130.166C131.492 100.036 132.332 98.6107 131.713 97.4526ZM125.702 96.5173H104.177C103.205 96.5173 102.542 95.4038 103.028 94.4685L113.945 73.312C114.431 72.3322 115.536 72.2431 116.022 73.223L126.94 94.3794C127.382 95.3147 126.719 96.5173 125.702 96.5173Z" fill="#C4B101"/>
<path d="M122.652 94.2012H107.006C106.343 94.2012 105.901 93.4886 106.21 92.865L114.033 77.766C114.387 77.1425 115.271 77.1425 115.625 77.766L123.448 92.865C123.757 93.4886 123.315 94.2012 122.652 94.2012Z" fill="#C4B101"/>
<path d="M212.288 66.5425C202.962 66.5425 195.359 74.1588 195.359 83.6012C195.359 92.9991 202.917 100.66 212.288 100.66C221.614 100.66 229.216 93.0437 229.216 83.6012C229.216 74.1588 221.658 66.5425 212.288 66.5425ZM212.288 95.9388C205.348 95.9388 199.691 90.2822 199.691 83.2449C199.691 76.2076 205.304 70.5511 212.288 70.5511C219.227 70.5511 224.884 76.2076 224.884 83.2449C224.884 90.2822 219.227 95.9388 212.288 95.9388Z" fill="#2A5C3E"/>
<path d="M219.889 89.9701H204.906C204.243 89.9701 203.845 89.2575 204.155 88.6785L211.668 74.203C211.978 73.5795 212.862 73.5795 213.171 74.203L220.685 88.6785C220.906 89.2575 220.508 89.9701 219.889 89.9701Z" fill="#2A5C3E"/>
<path d="M244.949 70.4175V97.4977C244.949 98.9676 246.143 100.17 247.601 100.17H274.474C275.933 100.17 277.126 98.9676 277.126 97.4977V70.4175C277.126 68.9477 275.933 67.7451 274.474 67.7451H247.601C246.143 67.7451 244.949 68.9477 244.949 70.4175ZM270.231 95.8943L251.888 95.9388C250.43 95.9388 249.237 94.7363 249.237 93.2665V74.7824C249.237 73.3126 250.43 72.11 251.888 72.11L270.231 72.0655C271.69 72.0655 272.883 73.2681 272.883 74.7379V93.2219C272.883 94.6917 271.69 95.8943 270.231 95.8943Z" fill="#602918"/>
<path d="M268.551 91.3515H253.568C252.905 91.3515 252.507 90.6388 252.817 90.0598L260.33 75.5844C260.64 74.9608 261.524 74.9608 261.833 75.5844L269.347 90.0598C269.612 90.6834 269.214 91.3515 268.551 91.3515Z" fill="#602918"/>
<path d="M275.403 132.997H247.116C246.011 132.997 245.127 133.887 245.127 134.956V162.972C245.127 164.085 246.011 164.932 247.116 164.932H275.403C276.508 164.932 277.392 164.041 277.392 162.972V134.956C277.392 133.887 276.508 132.997 275.403 132.997ZM270.63 158.874H252.42C251.138 158.874 250.298 157.493 250.917 156.335L260.022 138.965C260.685 137.718 262.409 137.718 263.072 138.965L272.177 156.335C272.751 157.493 271.911 158.874 270.63 158.874Z" fill="#FFDA8F"/>
<path d="M274.387 33.1381H248.221C246.542 33.1381 245.216 31.8019 245.216 30.1094V4.27627C245.216 2.58375 246.542 1.24756 248.221 1.24756H274.387C276.067 1.24756 277.393 2.58375 277.393 4.27627V30.1094C277.393 31.7574 276.022 33.1381 274.387 33.1381Z" fill="#F3911C"/>
<path d="M272.045 27.8815H250.785C249.901 27.8815 249.326 26.9462 249.724 26.1445L260.332 5.87883C260.774 5.03258 261.967 5.03258 262.409 5.87883L273.017 26.1445C273.503 26.9462 272.929 27.8815 272.045 27.8815ZM254.232 25.7881H268.597C269.481 25.7881 270.056 24.8528 269.658 24.0511L262.453 10.3328C262.011 9.48656 260.818 9.48656 260.376 10.3328L253.216 24.0511C252.774 24.8528 253.348 25.7881 254.232 25.7881Z" fill="white"/>
</svg>
